<mxfile host="app.diagrams.net" modified="2023-01-24T10:38:29.990Z" agent="5.0 (Windows NT 10.0; Win64; x64) AppleWebKit/537.36 (KHTML, like Gecko) Chrome/107.0.0.0 Safari/537.36 OPR/93.0.0.0" etag="zIVuW3j5-eisRHtsDizI" version="20.8.9" type="gitlab" pages="3">
  <diagram name="Conceptional" id="2MnJ3C8tOV-nJzymelN2">
    <mxGraphModel dx="1249" dy="573" grid="0" gridSize="10" guides="1" tooltips="1" connect="1" arrows="1" fold="1" page="0" pageScale="1" pageWidth="827" pageHeight="1169" math="0" shadow="0">
      <root>
        <mxCell id="0" />
        <mxCell id="1" parent="0" />
        <mxCell id="DNwgpvGfFevWMBpa1m4U-1" value="Client" style="whiteSpace=wrap;html=1;align=center;fontSize=16;" parent="1" vertex="1">
          <mxGeometry x="64" y="116" width="100" height="40" as="geometry" />
        </mxCell>
        <mxCell id="DNwgpvGfFevWMBpa1m4U-3" value="Car" style="whiteSpace=wrap;html=1;align=center;fontSize=16;" parent="1" vertex="1">
          <mxGeometry x="263" y="116" width="100" height="40" as="geometry" />
        </mxCell>
        <mxCell id="DNwgpvGfFevWMBpa1m4U-4" value="VENDOR" style="whiteSpace=wrap;html=1;align=center;fontSize=16;" parent="1" vertex="1">
          <mxGeometry x="475" y="116" width="100" height="40" as="geometry" />
        </mxCell>
        <mxCell id="DNwgpvGfFevWMBpa1m4U-5" value="m&amp;nbsp; &amp;nbsp; &amp;nbsp;m" style="endArrow=none;html=1;rounded=0;fontSize=12;startSize=8;endSize=8;curved=1;entryX=0;entryY=0.5;entryDx=0;entryDy=0;exitX=1;exitY=0.5;exitDx=0;exitDy=0;" parent="1" source="DNwgpvGfFevWMBpa1m4U-3" target="DNwgpvGfFevWMBpa1m4U-4" edge="1">
          <mxGeometry relative="1" as="geometry">
            <mxPoint x="227" y="199" as="sourcePoint" />
            <mxPoint x="387" y="199" as="targetPoint" />
          </mxGeometry>
        </mxCell>
        <mxCell id="DNwgpvGfFevWMBpa1m4U-6" value="1&amp;nbsp; &amp;nbsp; &amp;nbsp; m" style="endArrow=none;html=1;rounded=0;fontSize=12;startSize=8;endSize=8;curved=1;entryX=0;entryY=0.5;entryDx=0;entryDy=0;exitX=1;exitY=0.5;exitDx=0;exitDy=0;" parent="1" source="DNwgpvGfFevWMBpa1m4U-1" target="DNwgpvGfFevWMBpa1m4U-3" edge="1">
          <mxGeometry relative="1" as="geometry">
            <mxPoint x="227" y="199" as="sourcePoint" />
            <mxPoint x="387" y="199" as="targetPoint" />
          </mxGeometry>
        </mxCell>
      </root>
    </mxGraphModel>
  </diagram>
  <diagram id="AtUAStUClZXCKaBzHgOm" name="Logical">
    <mxGraphModel dx="2049" dy="973" grid="0" gridSize="10" guides="1" tooltips="1" connect="1" arrows="1" fold="1" page="0" pageScale="1" pageWidth="827" pageHeight="1169" math="0" shadow="0">
      <root>
        <mxCell id="0" />
        <mxCell id="1" parent="0" />
        <mxCell id="nQiYBwTLlOtj78SVj_Nb-1" value="Client" style="shape=table;startSize=30;container=1;collapsible=1;childLayout=tableLayout;fixedRows=1;rowLines=0;fontStyle=1;align=center;resizeLast=1;fontSize=16;" parent="1" vertex="1">
          <mxGeometry x="-407" y="-91" width="180" height="210" as="geometry" />
        </mxCell>
        <mxCell id="nQiYBwTLlOtj78SVj_Nb-2" value="" style="shape=tableRow;horizontal=0;startSize=0;swimlaneHead=0;swimlaneBody=0;fillColor=none;collapsible=0;dropTarget=0;points=[[0,0.5],[1,0.5]];portConstraint=eastwest;top=0;left=0;right=0;bottom=0;fontSize=16;" parent="nQiYBwTLlOtj78SVj_Nb-1" vertex="1">
          <mxGeometry y="30" width="180" height="30" as="geometry" />
        </mxCell>
        <mxCell id="nQiYBwTLlOtj78SVj_Nb-3" value="PK" style="shape=partialRectangle;connectable=0;fillColor=none;top=0;left=0;bottom=0;right=0;fontStyle=1;overflow=hidden;fontSize=16;" parent="nQiYBwTLlOtj78SVj_Nb-2" vertex="1">
          <mxGeometry width="58.350006103515625" height="30" as="geometry">
            <mxRectangle width="58.350006103515625" height="30" as="alternateBounds" />
          </mxGeometry>
        </mxCell>
        <mxCell id="nQiYBwTLlOtj78SVj_Nb-4" value="idClient" style="shape=partialRectangle;connectable=0;fillColor=none;top=0;left=0;bottom=0;right=0;align=left;spacingLeft=6;fontStyle=5;overflow=hidden;fontSize=16;" parent="nQiYBwTLlOtj78SVj_Nb-2" vertex="1">
          <mxGeometry x="58.350006103515625" width="121.64999389648438" height="30" as="geometry">
            <mxRectangle width="121.64999389648438" height="30" as="alternateBounds" />
          </mxGeometry>
        </mxCell>
        <mxCell id="nQiYBwTLlOtj78SVj_Nb-8" value="" style="shape=tableRow;horizontal=0;startSize=0;swimlaneHead=0;swimlaneBody=0;fillColor=none;collapsible=0;dropTarget=0;points=[[0,0.5],[1,0.5]];portConstraint=eastwest;top=0;left=0;right=0;bottom=0;fontSize=16;" parent="nQiYBwTLlOtj78SVj_Nb-1" vertex="1">
          <mxGeometry y="60" width="180" height="30" as="geometry" />
        </mxCell>
        <mxCell id="nQiYBwTLlOtj78SVj_Nb-9" value="" style="shape=partialRectangle;connectable=0;fillColor=none;top=0;left=0;bottom=0;right=0;editable=1;overflow=hidden;fontSize=16;" parent="nQiYBwTLlOtj78SVj_Nb-8" vertex="1">
          <mxGeometry width="58.350006103515625" height="30" as="geometry">
            <mxRectangle width="58.350006103515625" height="30" as="alternateBounds" />
          </mxGeometry>
        </mxCell>
        <mxCell id="nQiYBwTLlOtj78SVj_Nb-10" value="Surname" style="shape=partialRectangle;connectable=0;fillColor=none;top=0;left=0;bottom=0;right=0;align=left;spacingLeft=6;overflow=hidden;fontSize=16;" parent="nQiYBwTLlOtj78SVj_Nb-8" vertex="1">
          <mxGeometry x="58.350006103515625" width="121.64999389648438" height="30" as="geometry">
            <mxRectangle width="121.64999389648438" height="30" as="alternateBounds" />
          </mxGeometry>
        </mxCell>
        <mxCell id="nQiYBwTLlOtj78SVj_Nb-11" value="" style="shape=tableRow;horizontal=0;startSize=0;swimlaneHead=0;swimlaneBody=0;fillColor=none;collapsible=0;dropTarget=0;points=[[0,0.5],[1,0.5]];portConstraint=eastwest;top=0;left=0;right=0;bottom=0;fontSize=16;" parent="nQiYBwTLlOtj78SVj_Nb-1" vertex="1">
          <mxGeometry y="90" width="180" height="30" as="geometry" />
        </mxCell>
        <mxCell id="nQiYBwTLlOtj78SVj_Nb-12" value="" style="shape=partialRectangle;connectable=0;fillColor=none;top=0;left=0;bottom=0;right=0;editable=1;overflow=hidden;fontSize=16;" parent="nQiYBwTLlOtj78SVj_Nb-11" vertex="1">
          <mxGeometry width="58.350006103515625" height="30" as="geometry">
            <mxRectangle width="58.350006103515625" height="30" as="alternateBounds" />
          </mxGeometry>
        </mxCell>
        <mxCell id="nQiYBwTLlOtj78SVj_Nb-13" value="Givenname" style="shape=partialRectangle;connectable=0;fillColor=none;top=0;left=0;bottom=0;right=0;align=left;spacingLeft=6;overflow=hidden;fontSize=16;" parent="nQiYBwTLlOtj78SVj_Nb-11" vertex="1">
          <mxGeometry x="58.350006103515625" width="121.64999389648438" height="30" as="geometry">
            <mxRectangle width="121.64999389648438" height="30" as="alternateBounds" />
          </mxGeometry>
        </mxCell>
        <mxCell id="nQiYBwTLlOtj78SVj_Nb-21" value="" style="shape=tableRow;horizontal=0;startSize=0;swimlaneHead=0;swimlaneBody=0;fillColor=none;collapsible=0;dropTarget=0;points=[[0,0.5],[1,0.5]];portConstraint=eastwest;top=0;left=0;right=0;bottom=0;fontSize=16;" parent="nQiYBwTLlOtj78SVj_Nb-1" vertex="1">
          <mxGeometry y="120" width="180" height="30" as="geometry" />
        </mxCell>
        <mxCell id="nQiYBwTLlOtj78SVj_Nb-22" value="" style="shape=partialRectangle;connectable=0;fillColor=none;top=0;left=0;bottom=0;right=0;editable=1;overflow=hidden;fontSize=16;" parent="nQiYBwTLlOtj78SVj_Nb-21" vertex="1">
          <mxGeometry width="58.350006103515625" height="30" as="geometry">
            <mxRectangle width="58.350006103515625" height="30" as="alternateBounds" />
          </mxGeometry>
        </mxCell>
        <mxCell id="nQiYBwTLlOtj78SVj_Nb-23" value="City" style="shape=partialRectangle;connectable=0;fillColor=none;top=0;left=0;bottom=0;right=0;align=left;spacingLeft=6;overflow=hidden;fontSize=16;" parent="nQiYBwTLlOtj78SVj_Nb-21" vertex="1">
          <mxGeometry x="58.350006103515625" width="121.64999389648438" height="30" as="geometry">
            <mxRectangle width="121.64999389648438" height="30" as="alternateBounds" />
          </mxGeometry>
        </mxCell>
        <mxCell id="nQiYBwTLlOtj78SVj_Nb-24" value="" style="shape=tableRow;horizontal=0;startSize=0;swimlaneHead=0;swimlaneBody=0;fillColor=none;collapsible=0;dropTarget=0;points=[[0,0.5],[1,0.5]];portConstraint=eastwest;top=0;left=0;right=0;bottom=0;fontSize=16;" parent="nQiYBwTLlOtj78SVj_Nb-1" vertex="1">
          <mxGeometry y="150" width="180" height="30" as="geometry" />
        </mxCell>
        <mxCell id="nQiYBwTLlOtj78SVj_Nb-25" value="" style="shape=partialRectangle;connectable=0;fillColor=none;top=0;left=0;bottom=0;right=0;editable=1;overflow=hidden;fontSize=16;" parent="nQiYBwTLlOtj78SVj_Nb-24" vertex="1">
          <mxGeometry width="58.350006103515625" height="30" as="geometry">
            <mxRectangle width="58.350006103515625" height="30" as="alternateBounds" />
          </mxGeometry>
        </mxCell>
        <mxCell id="nQiYBwTLlOtj78SVj_Nb-26" value="Addres" style="shape=partialRectangle;connectable=0;fillColor=none;top=0;left=0;bottom=0;right=0;align=left;spacingLeft=6;overflow=hidden;fontSize=16;" parent="nQiYBwTLlOtj78SVj_Nb-24" vertex="1">
          <mxGeometry x="58.350006103515625" width="121.64999389648438" height="30" as="geometry">
            <mxRectangle width="121.64999389648438" height="30" as="alternateBounds" />
          </mxGeometry>
        </mxCell>
        <mxCell id="nQiYBwTLlOtj78SVj_Nb-27" value="" style="shape=tableRow;horizontal=0;startSize=0;swimlaneHead=0;swimlaneBody=0;fillColor=none;collapsible=0;dropTarget=0;points=[[0,0.5],[1,0.5]];portConstraint=eastwest;top=0;left=0;right=0;bottom=0;fontSize=16;" parent="nQiYBwTLlOtj78SVj_Nb-1" vertex="1">
          <mxGeometry y="180" width="180" height="30" as="geometry" />
        </mxCell>
        <mxCell id="nQiYBwTLlOtj78SVj_Nb-28" value="" style="shape=partialRectangle;connectable=0;fillColor=none;top=0;left=0;bottom=0;right=0;editable=1;overflow=hidden;fontSize=16;" parent="nQiYBwTLlOtj78SVj_Nb-27" vertex="1">
          <mxGeometry width="58.350006103515625" height="30" as="geometry">
            <mxRectangle width="58.350006103515625" height="30" as="alternateBounds" />
          </mxGeometry>
        </mxCell>
        <mxCell id="nQiYBwTLlOtj78SVj_Nb-29" value="Housenr." style="shape=partialRectangle;connectable=0;fillColor=none;top=0;left=0;bottom=0;right=0;align=left;spacingLeft=6;overflow=hidden;fontSize=16;" parent="nQiYBwTLlOtj78SVj_Nb-27" vertex="1">
          <mxGeometry x="58.350006103515625" width="121.64999389648438" height="30" as="geometry">
            <mxRectangle width="121.64999389648438" height="30" as="alternateBounds" />
          </mxGeometry>
        </mxCell>
        <mxCell id="nQiYBwTLlOtj78SVj_Nb-31" value="Car" style="shape=table;startSize=30;container=1;collapsible=1;childLayout=tableLayout;fixedRows=1;rowLines=0;fontStyle=1;align=center;resizeLast=1;fontSize=16;" parent="1" vertex="1">
          <mxGeometry x="-85" y="-177" width="180" height="211" as="geometry" />
        </mxCell>
        <mxCell id="nQiYBwTLlOtj78SVj_Nb-32" value="" style="shape=tableRow;horizontal=0;startSize=0;swimlaneHead=0;swimlaneBody=0;fillColor=none;collapsible=0;dropTarget=0;points=[[0,0.5],[1,0.5]];portConstraint=eastwest;top=0;left=0;right=0;bottom=1;fontSize=16;" parent="nQiYBwTLlOtj78SVj_Nb-31" vertex="1">
          <mxGeometry y="30" width="180" height="30" as="geometry" />
        </mxCell>
        <mxCell id="nQiYBwTLlOtj78SVj_Nb-33" value="PK" style="shape=partialRectangle;connectable=0;fillColor=none;top=0;left=0;bottom=0;right=0;fontStyle=1;overflow=hidden;fontSize=16;" parent="nQiYBwTLlOtj78SVj_Nb-32" vertex="1">
          <mxGeometry width="30" height="30" as="geometry">
            <mxRectangle width="30" height="30" as="alternateBounds" />
          </mxGeometry>
        </mxCell>
        <mxCell id="nQiYBwTLlOtj78SVj_Nb-34" value="idCar" style="shape=partialRectangle;connectable=0;fillColor=none;top=0;left=0;bottom=0;right=0;align=left;spacingLeft=6;fontStyle=5;overflow=hidden;fontSize=16;" parent="nQiYBwTLlOtj78SVj_Nb-32" vertex="1">
          <mxGeometry x="30" width="150" height="30" as="geometry">
            <mxRectangle width="150" height="30" as="alternateBounds" />
          </mxGeometry>
        </mxCell>
        <mxCell id="nQiYBwTLlOtj78SVj_Nb-35" value="" style="shape=tableRow;horizontal=0;startSize=0;swimlaneHead=0;swimlaneBody=0;fillColor=none;collapsible=0;dropTarget=0;points=[[0,0.5],[1,0.5]];portConstraint=eastwest;top=0;left=0;right=0;bottom=0;fontSize=16;" parent="nQiYBwTLlOtj78SVj_Nb-31" vertex="1">
          <mxGeometry y="60" width="180" height="30" as="geometry" />
        </mxCell>
        <mxCell id="nQiYBwTLlOtj78SVj_Nb-36" value="" style="shape=partialRectangle;connectable=0;fillColor=none;top=0;left=0;bottom=0;right=0;editable=1;overflow=hidden;fontSize=16;" parent="nQiYBwTLlOtj78SVj_Nb-35" vertex="1">
          <mxGeometry width="30" height="30" as="geometry">
            <mxRectangle width="30" height="30" as="alternateBounds" />
          </mxGeometry>
        </mxCell>
        <mxCell id="nQiYBwTLlOtj78SVj_Nb-37" value="Brand" style="shape=partialRectangle;connectable=0;fillColor=none;top=0;left=0;bottom=0;right=0;align=left;spacingLeft=6;overflow=hidden;fontSize=16;" parent="nQiYBwTLlOtj78SVj_Nb-35" vertex="1">
          <mxGeometry x="30" width="150" height="30" as="geometry">
            <mxRectangle width="150" height="30" as="alternateBounds" />
          </mxGeometry>
        </mxCell>
        <mxCell id="nQiYBwTLlOtj78SVj_Nb-38" value="" style="shape=tableRow;horizontal=0;startSize=0;swimlaneHead=0;swimlaneBody=0;fillColor=none;collapsible=0;dropTarget=0;points=[[0,0.5],[1,0.5]];portConstraint=eastwest;top=0;left=0;right=0;bottom=0;fontSize=16;" parent="nQiYBwTLlOtj78SVj_Nb-31" vertex="1">
          <mxGeometry y="90" width="180" height="30" as="geometry" />
        </mxCell>
        <mxCell id="nQiYBwTLlOtj78SVj_Nb-39" value="" style="shape=partialRectangle;connectable=0;fillColor=none;top=0;left=0;bottom=0;right=0;editable=1;overflow=hidden;fontSize=16;" parent="nQiYBwTLlOtj78SVj_Nb-38" vertex="1">
          <mxGeometry width="30" height="30" as="geometry">
            <mxRectangle width="30" height="30" as="alternateBounds" />
          </mxGeometry>
        </mxCell>
        <mxCell id="nQiYBwTLlOtj78SVj_Nb-40" value="Type" style="shape=partialRectangle;connectable=0;fillColor=none;top=0;left=0;bottom=0;right=0;align=left;spacingLeft=6;overflow=hidden;fontSize=16;" parent="nQiYBwTLlOtj78SVj_Nb-38" vertex="1">
          <mxGeometry x="30" width="150" height="30" as="geometry">
            <mxRectangle width="150" height="30" as="alternateBounds" />
          </mxGeometry>
        </mxCell>
        <mxCell id="nQiYBwTLlOtj78SVj_Nb-41" value="" style="shape=tableRow;horizontal=0;startSize=0;swimlaneHead=0;swimlaneBody=0;fillColor=none;collapsible=0;dropTarget=0;points=[[0,0.5],[1,0.5]];portConstraint=eastwest;top=0;left=0;right=0;bottom=0;fontSize=16;" parent="nQiYBwTLlOtj78SVj_Nb-31" vertex="1">
          <mxGeometry y="120" width="180" height="30" as="geometry" />
        </mxCell>
        <mxCell id="nQiYBwTLlOtj78SVj_Nb-42" value="" style="shape=partialRectangle;connectable=0;fillColor=none;top=0;left=0;bottom=0;right=0;editable=1;overflow=hidden;fontSize=16;" parent="nQiYBwTLlOtj78SVj_Nb-41" vertex="1">
          <mxGeometry width="30" height="30" as="geometry">
            <mxRectangle width="30" height="30" as="alternateBounds" />
          </mxGeometry>
        </mxCell>
        <mxCell id="nQiYBwTLlOtj78SVj_Nb-43" value="SellDate" style="shape=partialRectangle;connectable=0;fillColor=none;top=0;left=0;bottom=0;right=0;align=left;spacingLeft=6;overflow=hidden;fontSize=16;" parent="nQiYBwTLlOtj78SVj_Nb-41" vertex="1">
          <mxGeometry x="30" width="150" height="30" as="geometry">
            <mxRectangle width="150" height="30" as="alternateBounds" />
          </mxGeometry>
        </mxCell>
        <mxCell id="nQiYBwTLlOtj78SVj_Nb-44" value="" style="endArrow=none;html=1;rounded=0;fontSize=12;startSize=8;endSize=8;curved=1;exitX=1;exitY=0.5;exitDx=0;exitDy=0;entryX=0;entryY=0.5;entryDx=0;entryDy=0;" parent="1" source="nQiYBwTLlOtj78SVj_Nb-8" target="nQiYBwTLlOtj78SVj_Nb-38" edge="1">
          <mxGeometry relative="1" as="geometry">
            <mxPoint x="-161" y="56" as="sourcePoint" />
            <mxPoint x="-1" y="56" as="targetPoint" />
          </mxGeometry>
        </mxCell>
        <mxCell id="N_qCHSK7YCR1Ldu5NXrQ-2" value="1&amp;nbsp; &amp;nbsp; &amp;nbsp;m" style="edgeLabel;html=1;align=center;verticalAlign=middle;resizable=0;points=[];" vertex="1" connectable="0" parent="nQiYBwTLlOtj78SVj_Nb-44">
          <mxGeometry x="-0.234" y="2" relative="1" as="geometry">
            <mxPoint as="offset" />
          </mxGeometry>
        </mxCell>
        <mxCell id="nQiYBwTLlOtj78SVj_Nb-45" value="Vendor_has_Car" style="shape=table;startSize=30;container=1;collapsible=1;childLayout=tableLayout;fixedRows=1;rowLines=0;fontStyle=1;align=center;resizeLast=1;fontSize=16;" parent="1" vertex="1">
          <mxGeometry x="159" y="-91" width="210" height="90" as="geometry" />
        </mxCell>
        <mxCell id="nQiYBwTLlOtj78SVj_Nb-46" value="" style="shape=tableRow;horizontal=0;startSize=0;swimlaneHead=0;swimlaneBody=0;fillColor=none;collapsible=0;dropTarget=0;points=[[0,0.5],[1,0.5]];portConstraint=eastwest;top=0;left=0;right=0;bottom=0;fontSize=16;" parent="nQiYBwTLlOtj78SVj_Nb-45" vertex="1">
          <mxGeometry y="30" width="210" height="30" as="geometry" />
        </mxCell>
        <mxCell id="nQiYBwTLlOtj78SVj_Nb-47" value="FK" style="shape=partialRectangle;connectable=0;fillColor=none;top=0;left=0;bottom=0;right=0;fontStyle=1;overflow=hidden;fontSize=16;" parent="nQiYBwTLlOtj78SVj_Nb-46" vertex="1">
          <mxGeometry width="60" height="30" as="geometry">
            <mxRectangle width="60" height="30" as="alternateBounds" />
          </mxGeometry>
        </mxCell>
        <mxCell id="nQiYBwTLlOtj78SVj_Nb-48" value="Vendor_idVendor" style="shape=partialRectangle;connectable=0;fillColor=none;top=0;left=0;bottom=0;right=0;align=left;spacingLeft=6;fontStyle=5;overflow=hidden;fontSize=16;" parent="nQiYBwTLlOtj78SVj_Nb-46" vertex="1">
          <mxGeometry x="60" width="150" height="30" as="geometry">
            <mxRectangle width="150" height="30" as="alternateBounds" />
          </mxGeometry>
        </mxCell>
        <mxCell id="nQiYBwTLlOtj78SVj_Nb-49" value="" style="shape=tableRow;horizontal=0;startSize=0;swimlaneHead=0;swimlaneBody=0;fillColor=none;collapsible=0;dropTarget=0;points=[[0,0.5],[1,0.5]];portConstraint=eastwest;top=0;left=0;right=0;bottom=1;fontSize=16;" parent="nQiYBwTLlOtj78SVj_Nb-45" vertex="1">
          <mxGeometry y="60" width="210" height="30" as="geometry" />
        </mxCell>
        <mxCell id="nQiYBwTLlOtj78SVj_Nb-50" value="FK" style="shape=partialRectangle;connectable=0;fillColor=none;top=0;left=0;bottom=0;right=0;fontStyle=1;overflow=hidden;fontSize=16;" parent="nQiYBwTLlOtj78SVj_Nb-49" vertex="1">
          <mxGeometry width="60" height="30" as="geometry">
            <mxRectangle width="60" height="30" as="alternateBounds" />
          </mxGeometry>
        </mxCell>
        <mxCell id="nQiYBwTLlOtj78SVj_Nb-51" value="Car_idCar" style="shape=partialRectangle;connectable=0;fillColor=none;top=0;left=0;bottom=0;right=0;align=left;spacingLeft=6;fontStyle=5;overflow=hidden;fontSize=16;" parent="nQiYBwTLlOtj78SVj_Nb-49" vertex="1">
          <mxGeometry x="60" width="150" height="30" as="geometry">
            <mxRectangle width="150" height="30" as="alternateBounds" />
          </mxGeometry>
        </mxCell>
        <mxCell id="nQiYBwTLlOtj78SVj_Nb-58" value="1&amp;nbsp; &amp;nbsp; &amp;nbsp;m" style="endArrow=none;html=1;rounded=0;fontSize=12;startSize=8;endSize=8;curved=1;exitX=1;exitY=0.5;exitDx=0;exitDy=0;entryX=0;entryY=0.5;entryDx=0;entryDy=0;" parent="1" source="nQiYBwTLlOtj78SVj_Nb-32" target="nQiYBwTLlOtj78SVj_Nb-46" edge="1">
          <mxGeometry relative="1" as="geometry">
            <mxPoint x="129" y="45" as="sourcePoint" />
            <mxPoint x="153" y="-46" as="targetPoint" />
          </mxGeometry>
        </mxCell>
        <mxCell id="nQiYBwTLlOtj78SVj_Nb-59" value="Vendor" style="shape=table;startSize=30;container=1;collapsible=1;childLayout=tableLayout;fixedRows=1;rowLines=0;fontStyle=1;align=center;resizeLast=1;fontSize=16;" parent="1" vertex="1">
          <mxGeometry x="159" y="-249" width="180" height="90" as="geometry" />
        </mxCell>
        <mxCell id="nQiYBwTLlOtj78SVj_Nb-60" value="" style="shape=tableRow;horizontal=0;startSize=0;swimlaneHead=0;swimlaneBody=0;fillColor=none;collapsible=0;dropTarget=0;points=[[0,0.5],[1,0.5]];portConstraint=eastwest;top=0;left=0;right=0;bottom=1;fontSize=16;" parent="nQiYBwTLlOtj78SVj_Nb-59" vertex="1">
          <mxGeometry y="30" width="180" height="30" as="geometry" />
        </mxCell>
        <mxCell id="nQiYBwTLlOtj78SVj_Nb-61" value="PK" style="shape=partialRectangle;connectable=0;fillColor=none;top=0;left=0;bottom=0;right=0;fontStyle=1;overflow=hidden;fontSize=16;" parent="nQiYBwTLlOtj78SVj_Nb-60" vertex="1">
          <mxGeometry width="31.75006103515625" height="30" as="geometry">
            <mxRectangle width="31.75006103515625" height="30" as="alternateBounds" />
          </mxGeometry>
        </mxCell>
        <mxCell id="nQiYBwTLlOtj78SVj_Nb-62" value="idVendor" style="shape=partialRectangle;connectable=0;fillColor=none;top=0;left=0;bottom=0;right=0;align=left;spacingLeft=6;fontStyle=5;overflow=hidden;fontSize=16;" parent="nQiYBwTLlOtj78SVj_Nb-60" vertex="1">
          <mxGeometry x="31.75006103515625" width="148.24993896484375" height="30" as="geometry">
            <mxRectangle width="148.24993896484375" height="30" as="alternateBounds" />
          </mxGeometry>
        </mxCell>
        <mxCell id="nQiYBwTLlOtj78SVj_Nb-63" value="" style="shape=tableRow;horizontal=0;startSize=0;swimlaneHead=0;swimlaneBody=0;fillColor=none;collapsible=0;dropTarget=0;points=[[0,0.5],[1,0.5]];portConstraint=eastwest;top=0;left=0;right=0;bottom=0;fontSize=16;" parent="nQiYBwTLlOtj78SVj_Nb-59" vertex="1">
          <mxGeometry y="60" width="180" height="30" as="geometry" />
        </mxCell>
        <mxCell id="nQiYBwTLlOtj78SVj_Nb-64" value="" style="shape=partialRectangle;connectable=0;fillColor=none;top=0;left=0;bottom=0;right=0;editable=1;overflow=hidden;fontSize=16;" parent="nQiYBwTLlOtj78SVj_Nb-63" vertex="1">
          <mxGeometry width="31.75006103515625" height="30" as="geometry">
            <mxRectangle width="31.75006103515625" height="30" as="alternateBounds" />
          </mxGeometry>
        </mxCell>
        <mxCell id="nQiYBwTLlOtj78SVj_Nb-65" value="Name" style="shape=partialRectangle;connectable=0;fillColor=none;top=0;left=0;bottom=0;right=0;align=left;spacingLeft=6;overflow=hidden;fontSize=16;" parent="nQiYBwTLlOtj78SVj_Nb-63" vertex="1">
          <mxGeometry x="31.75006103515625" width="148.24993896484375" height="30" as="geometry">
            <mxRectangle width="148.24993896484375" height="30" as="alternateBounds" />
          </mxGeometry>
        </mxCell>
        <mxCell id="nQiYBwTLlOtj78SVj_Nb-72" value="" style="endArrow=none;html=1;rounded=0;fontSize=12;startSize=8;endSize=8;curved=1;exitX=0.298;exitY=1.04;exitDx=0;exitDy=0;exitPerimeter=0;entryX=0.25;entryY=0;entryDx=0;entryDy=0;" parent="1" source="nQiYBwTLlOtj78SVj_Nb-63" target="nQiYBwTLlOtj78SVj_Nb-45" edge="1">
          <mxGeometry relative="1" as="geometry">
            <mxPoint x="137" y="-216" as="sourcePoint" />
            <mxPoint x="297" y="-216" as="targetPoint" />
          </mxGeometry>
        </mxCell>
        <mxCell id="N_qCHSK7YCR1Ldu5NXrQ-1" value="1&lt;br&gt;m" style="edgeLabel;html=1;align=center;verticalAlign=middle;resizable=0;points=[];" vertex="1" connectable="0" parent="nQiYBwTLlOtj78SVj_Nb-72">
          <mxGeometry x="0.2684" y="2" relative="1" as="geometry">
            <mxPoint as="offset" />
          </mxGeometry>
        </mxCell>
        <mxCell id="N_qCHSK7YCR1Ldu5NXrQ-3" value="" style="shape=tableRow;horizontal=0;startSize=0;swimlaneHead=0;swimlaneBody=0;fillColor=none;collapsible=0;dropTarget=0;points=[[0,0.5],[1,0.5]];portConstraint=eastwest;top=0;left=0;right=0;bottom=1;fontSize=16;" vertex="1" parent="1">
          <mxGeometry x="-85" y="-31" width="180" height="30" as="geometry" />
        </mxCell>
        <mxCell id="N_qCHSK7YCR1Ldu5NXrQ-4" value="FK" style="shape=partialRectangle;connectable=0;fillColor=none;top=0;left=0;bottom=0;right=0;fontStyle=1;overflow=hidden;fontSize=16;" vertex="1" parent="N_qCHSK7YCR1Ldu5NXrQ-3">
          <mxGeometry width="60" height="30" as="geometry">
            <mxRectangle width="60" height="30" as="alternateBounds" />
          </mxGeometry>
        </mxCell>
        <mxCell id="N_qCHSK7YCR1Ldu5NXrQ-5" value="Car_idCar" style="shape=partialRectangle;connectable=0;fillColor=none;top=0;left=0;bottom=0;right=0;align=left;spacingLeft=6;fontStyle=5;overflow=hidden;fontSize=16;" vertex="1" parent="N_qCHSK7YCR1Ldu5NXrQ-3">
          <mxGeometry x="60" width="120" height="30" as="geometry">
            <mxRectangle width="120" height="30" as="alternateBounds" />
          </mxGeometry>
        </mxCell>
      </root>
    </mxGraphModel>
  </diagram>
  <diagram id="7XTC-P21_1KqQmDquzzp" name="Physical">
    <mxGraphModel dx="880" dy="1012" grid="0" gridSize="10" guides="1" tooltips="1" connect="1" arrows="1" fold="1" page="0" pageScale="1" pageWidth="827" pageHeight="1169" math="0" shadow="0">
      <root>
        <mxCell id="0" />
        <mxCell id="1" parent="0" />
        <mxCell id="j3vUHpnPxmhwPBamIZeG-1" value="" style="shape=image;verticalLabelPosition=bottom;labelBackgroundColor=default;verticalAlign=top;aspect=fixed;imageAspect=0;image=data:image/png,iVBORw0KGgoAAAANSUhEUgAAAx0AAAJTCAYAAABtvHs7AAAAAXNSR0IArs4c6QAAAARnQU1BAACxjwv8YQUAAAAJcEhZcwAAEnQAABJ0Ad5mH3gAAP+lSURBVHhe7J0HYBzF+faf61W9F0u23HuvgDGm9xJ6L6EEAgECSYAUvoT0fwKEJBDApjfTTLExBtx7tyw39d7rna63b97VnS2bk3QnLPskvT94rbuZ2X1nd3b35tlpMovF4lOr1ZDJZOgJn88Hu90OlUoFpVLpD+0el8sFr9eLvvQhjgFOpxMxMTGQy+X+0K6J1OMYKD64PAZGeVCeFAqFP7R7Aseh0Wj8Id0zmH20t7fD7XYjNjbWH9I9XB5cHqHA5cHl0RNcHlweodCXx9FzDYRhGIZhGIZhGOYHwKKDYRiGYRiGYZg+hUUHwzAMwzAMwzB9CosOhmEYhmEYhmH6FBYdDMMwDMMwDMP0KSw6GIZhGIZhGIbpU1h0MAzDMAzDMAzTp8gaGxt9oc7dS9D8wJQ+lDUFCJrrl+bw7Usf4c4pTETicQwUH1weXB6hwOXB5dETXB5cHqHA5cHl0RNcHpFxHLL6+npfKAuGBfB4PNICY6FmnjJO1pc+KD2dJFowLVQi8TgGig8uDy6PUAjXBx0D0d990MOZzlVflsdAOVdcHlweocDlweXRE1wekXEcMrPZHNaK5A6HQzrYUBUQnSDKTF/6sFqtkvqLiooK6SRF6nEMFB9cHoOzPOhBRccRCr3xQcdA2/V3H7RCPJ0vWiE+FAbzueLy4PLoicF8rrg8uDx6ItKOQyYOICzRQUud046VSqU/tHso84HKSF/5oEJwOp1SIYRaqYrE4xgoPrg8BkZ5UJ7CeUjRcYTa5DuYfbS3t0s/GrGxsf6Q7uHy4PIIBS4PLo+e4PLg8giFvjyOnmsgDMMwDMMwDMMwPwAWHQzDMAzDMAzD9CncvWqQdbXh8uDy6ImAD8rTYGu6Phk+uLsCl0dPcHkMvvKgtCaTCWazGR7xmfzQ81reze8CnSfKG/0ehAKlpXzRb0covwUEHTflTa/X+0O6pzc+TsZxDBQfPZWHV+yT4j3ujrGi8fFxR67DSLg/WHRE0HEMFB9cHgOjPChP/flHPFJ9cCWXy6MnuDwGV3nQ8ZLYaGxsxIFDh9FuFb60OvGcJ3+hVUYZhvB4vHC6nHDarYiLisKkieOl+kJcXFzI13tf3h8sOgZZBZTLg8ujJwI+KE/99UeciFQfXMnl8ugJLo/BVR5VVVXYsGEjDEYjXAotHEqD+KuHR66GR0bP7J5/GxhGXKlQ+LxQeJ1Quy1Qe6xQeuwwtbbizDPPRGZmhj9d9/Tl/cESmmEYhmEY5hRQUFCAPXv2QqWPglmbLCwFNnWsEB06ITqU8MkUwuRsbCGYQrpm6NqxqeP811MStMZY7MnNRWFhof+qO3Ww6GAYhmEYhjnJUCWwtKwcZjdgN6TAroqWWjo8MhW8VInkFg4mTOiaoWvHLVdJ4sOhjILDmAyLC9K1VlRU5E95amDRwTAMwzAMc5Kg7ii0mFplZSVarQ74DEmwKaOF2FCy0GBOGHQtURc9mypGXGMJaLHYUVlVJV17dA2eChRPPvnk06H2UaRM0urJlD6U/ucE9Qsj60sf1F890P8s1H7xkXgcA8UHl8fAKA8a/xHOcdB24R5HOD4oPdHfffSmv+xgPVcnwweXB5dHT5xoHxRXXV2NljYT2uVG2DRx8MqOTedyAu2tQpzYELY57YBbbC9XuCEyHHKemQGKTA6vQgWVuAz0Ch9USgWMRmOX10Vf3h8yk8kkyZ1QL0raORHORRzuNuGmJ9VGB6zVaqWDDoVIPA5iIPjg8ogsH70tj3COgQh3m96kJ/q7j0B5hDoFJTFYz9XJ8MHlEVk+BkN52Gw2rFy5EnJ9LFxRqVIrx/FUFHixeklH5S9cVBo54lNkmHh6LWISDNDqDVCEOPEIM3DRudqgaq+Fz2bCeeedJ9UJgtGX94esvb3dR7PghJKYdkpvIUj9hKqA6OFBby360ofVapW2iYqKCqlSFanHMVB8cHkMjPKgPIUqUgLHQbNqhUJvfNCMNrRdf/dB5UF+oqO/X9EIxmA+V1weXB490R/Plc1mxzfffge7Jg5OfQJc8u9X/hoq5Ni9WkUvqSELscsV+RP/Q6mSQRfthFKzEmnDMpCYmgmtIcqfihmsqL12qGxN0DlbcO7ZZ3cpOvry/uApcyPoOAaKDy6PgVEelKdQhU3gOMLpEjFYffAUrVwePcHlMbDLg/a1es06NCvj4FDHwCv7/rPcbdfA2RaLEYlyqBQykQeRDxEu/ZXMB68/zEsm/qGF4Tzir8XpQ1VLK3K3voyskSOROXwMjLHxtFtmEKPwuaF2tiHe04Kzzpzfpejoy/uj5xoIwzAMwzAMc8JQKkXlTK6SpjkNhjFGgXFT9TjrNANOn63BnJlqzJkhTPw9Y64Ws2ZqMH2aCjOmU5gOU6aoMHESfdeKz1okZcjhtJvhdDqkCmSk097ajAPb1mPHqmVobazzhzI+UXZupx12czPspqZuzSHSeERany94eXtFld8nrjmVMrSeFX0Biw6GYRiGYZiTBFX4FHJZx9oKXXWd8ol0Xh8cLg/qWhwor7OivN6KmiYHWswuVDfZUCa+Vzba0WRyoqJBfK+1is8OON0eeIT1hMNmRV1lqWTtplaxjdsf4xOfXWhpqJXiWpvq/eF9R21FCT5b/Bxe+/MvUFFwwB/K+LweuKxmtJYdRlPxfmF5Xdh+tIg0TpHW5wle9j4SGsLEpXfKYNHBMAzDMAwTQfio4k/dpYQ5PV5JfNgdwpweONz03Sc+i7/CnOI7fbY7XLDZneKvA24hGqjbS3cU5G7Hn++9UrINX36A5voaKdwr/LU1NeDdf/5WivvoP3+SwpmTj1yhgFKlRmt1ERoK96L+8K6g1ijiWquKIVeqIeuyixOpjVOoOAQsOhiGYRiGYSIJGq/h9UrjNujFtcvjE+aFW3xxi0CXW4gRITaoVYPinNJ3D5wut4jzwOcJtFp0jTE6FsPGTpYESltjHWztJimcumNRFyeLqQ0xCclIHzZKCmdOATI55Got4oaMhkqrl1o+gplKa0Bc1mgoNVrIaPaBCIVFB8MwDMMwTAQhtXSIyr9HCAwyoS86TAgM6jlFwiPw2UXf6XMgTCT00Ijy7hs6YIxNwMjJs6Q36bXlxVJ3KoK6VlUUHoTVYkJSehaGjBgrKrZeSYSs/fw9fPTiXyT79JV/YPt3X0itIk67DcUH9uCT//0dqz56HWs+eQvL3/yPlO6zRc/i4I6N0vaE2+VCU20Vvnj9X0f2tWbp22ipr5Eq0AGqSwuOxAdsnfBvMbdJ4xYov9u+/QLL334Rezd8i6qSfKz6+E0c2LHBv4eBgVyhQkzGcOhik6AQZXU8FKaLTURMZg7kytBmnDpVsOhgGIZhGIaJIKhnlFeICMmkz0IMkInPbmr9CHzvysQ/PWgOGKSWjilQiopqTVkRGqrL4HLaJdFRVXgItnYz4lMykDIkB+1tzdi1Zjl2r/0aZYfzUF9ZhkM7N2LDl0tQnLdLahmpKjqEbz9cjNVCcJQc2iuJAkr73YevSd23WuqrheBwoqGqFJtXfCLCX5fiSbRY2jrGlNBxu5wOlOfnSYJix6rlkkChNIX7dmLLyqUiH1+J/LRIPvO2rMG6z97FztVfSftc/cmbKNm/x3+EAwOZXA5tVByMyZlQG+P8oUfRiDBDUia04m8kt3IQLDoYhmEYhmEiCZ8QDR53h4AgkREwoUCOafmQPnf67k/T0b1KfOkGncGI9JyRkvgwtzahsaYS5pYmqdLfWFMhpUlITYcxNg5l+fulgd600OCFN92H6x78NabOPx/lBQewT1T86ypKpPTUIkIDz8dOPw1X3fcLnHf9j6WpfHeu+1oSIVZzGw7u3IRlb/1HEjsX3fwT3PXrf+Di236KxPQh0hiGNrE9iZmNyz7EqMkzcfNjz0hpzrriZrhF3j4X+agqOiy1rhAuhx2NtRVCgKyVtjfEhDbdcr9CJkN02lAYEtOOGbMhUyhFWDqi04dJaSIdFh0MwzAMwzCRhKioe2n8htR1isw/nkP6Gwij7lReaawHtWyQBcJoMHiPTR0ClVqDCbPPRHRcktSyQYPJm2urUFVyGOlDRyI1azha6muxa80KOEXlPiNntBAimVBptIhNTJHewptaGiUxQchFJTgte4QQEFlC1ERBpxfCRnxXiHCC9k+tKhqtHvMvv0ESGsdD8ZQuKjYeI4XoUKo6ugwlZWQhc8RYqXtWyaFcqZtVAGNMPB7622I8+b9PccYl1/lDBxbUomEUAoO6WQXQi3IzJKWLuP4htFh0MAzDMAzDRBDUzcjjFgJC/HUKseFyu6XKttPplhZ7dbmc0gBwlzCnQ3wXf2ma3A7xQYJFiI4QoPEcOROmi0p7LJrrqlCYuxOl+XmSj4DAoPET1OWKMrVl5ad4/c+P43+/fQAr3v0fHFYLTE31QnR0DEKnd+20CO2RdSDEXxImAWhch6mpQWqRSEjJhFqr88ccxUuDo2mtCbELuVwh/nTsS2eMFuIoUYqnLleBlg7aR0KKqIwbDNDo9FBE+LiG3kLnlFo1aHwHnVOymPThMCSkHT3fEY7iiSeeeJqmVfOIi7onoxkNAovM0N9gaY43Skf770sfgdUTaSXEULbpjQ9K19fHMVB8cHlwefRkg9kH/ZhTWiqPYPHHW298ULqBcK5Ohg8uDy6PnuxE+6BjrK6uhlmmh1v+/YHBhAxyqGRKJMWoYLOT2HBKg6xlMp+0xodDiA+3EBkyeKleL76Lirr4rFYppTEgTc2tqCrdi9ikFKlFgirjwaDKKrVGHNi+HqbmRlFhV4rKvB3lBfsx57wrkDN+CmwWszRuo7a8CENGjcfw8dOQPWoCskaOx9jp8zBq6hykDh0ujbPYv3UdouMTMX7WfMQnp0ktFtK+Wxox46yLoNJoUFl0CA1V5RgxcTpShgyTunl1TkcD1+2Wdtit7cgZN0WIn1GSkKBuVzQGpKLwgBQem5SKelpHpKEOmSPHSq0i1HIzkKGWJHEJwGkxQW2IQVz2GOhiEo8Rdt2h9DoRBStSU1Olsj/+2iTry/tDymVg56FYb9ITweK6snDTk4W7TW/SE8HiurLepCeCxXVlvUlPBIvrysJNTxbuNr1JTwSL68p6k54IFteV9SY9ESyuKws3PVm42/QmPREsrisLNz1ZuNuEm54s3G16k54IFteVhZueLNxtwk1PFu424aYnC3eb3qQngsV1ZeGmJwt3m3DTk4W7TbjpycLdpjfpiWBxXVm46cnC3Sbc9GQ9bdMdFB9Y4E+rlsOgVUIvTKNWQi5Eh0atOPKdRIhOK77rVFAK0SHhrwT2BLU4xKekISkjW4gVL6qKDws7JAmVxLRM6I3R0OoMSM4cKlV44xJSMXHuQpxz7Z04+5o7MP+y6zF07CQYomL8e+weaqmg1hOPxy3NTkXCgvC4nLCaWsVxexGXmCqNM3E5HGhtrBWH0nEeTM0N0lgTykdq9nBohVgabNCxa6LiEDd0nGTa6HgprDccfz12tp7ij7dQ0yueeuqpp9VqNZRC3dKbhe6MmsxIqahUKsmCpTneAhnpSx9ut1tSV3q9vl8fx0DxweUxOMuDoOMIFn+89cYHnSd6M9PffVB5kB+DwRA0/ngbzOeKy4PLoyfrj+eKqKys7Lalw+eVAW4ZEmI0/s5F1CpBXWpkQhzIqd+R+J9Wl5bBB/qsgJL2LdLY7W60NLWiqmwf4pK7b+kIYG5pRl15Mcry86TVySfNOxtjps+VxlVQ64FeiIriA7ulGahIhETFJUiDz+vKS5C3dY00+JzGoPTU0kFrfljbTSjYu13qkpUixAy1YpQXHsCONV+J8+zGuULQ0JgPmraXumNlDB8jdaU6tHMTCnN3COGSgDMuuV465rLD+6SpdtOHjcTISQO/pYOgaXG10XHQxST41+UIvWtVoKVj6NCh0Gg037s2yfry/hDXq0zaeagWIFhcMAsnbcACBIvrynqTnggWF8zCSRuwAMHiglk4aQMWIFhcMAsnbcACBIvrynqTnggWF8zCSRuwAMHiglk4aQMWIFhcMAsnbcACBIvryk5GeiJYXFcWbnqycLcJNz1ZuNv0Jj0RLK4rCzc9WbjbhJueLNxtwk1PFu42vUlPBIvrysJNTxbuNuGmJwt3m3DTk4W7TW/SE8HiurJw05OFu0246cm626YnaIG/hhYrtu6vl2zXoSbsLWjGPmF5+Y04mN+AQ4WNOFzciILiehQVCSuuQ3FRLaqrGuFwOMVeum9N6Qx1YUpIzZA+0zgP6kJlEBVbggaNp4v4O371N2nsx7K3/o0/3Xsl/vKTq/Gfp+6VujyFitZglKbpPe3iq4UgqcKbf3tC2teXr79wzIDzMy69Hpfc/iAKcrfhuUdvldIse/M/MAoRdPsv/4o0ITIGg8AIBnWlUqiEYBDW2ylyg12TnS2UNJ0t5PQWi8VHaoa+9ASpH7vdLikZemMaCoH+5H3pQxyD1N8xJiZGUlw9EanHMVB8cHkMjPKgPNGbiVAIHAe9OQmFweyjvb1depsbGxvabCNcHlweocDl0X/OlcPhwMaNG1EtS4RdGbyLkNPuQEtdA+oqCjsW33PY/TECv5bwdRYV4mPgG+WXTK7wSF2faBYq6q7UHXarBa0NtVLrBVX8EzOypS5TNMaDoP3RGhv1FSVSS0VnKB21fNDxNlSVQa0zSIsK0lgNm6UdDdXlcNosSPPng1pFaGreloYaqXWEoC5CJG46p7OYWlFdki/FB6DuXjQOhISR3WaV8kxdtEiMxCeni/2EVj6DFa27Hem+Rpx22mldXv99eX+w6Iig4xgoPrg8BkZ5UJ76y494MCLVB1dyuTx6gsuDRQdV8GlgdkNlGcziL30PB3obbhRigKakjUlIDjpLFDP4ONWio+caCMMwDMMwDHPSoDf/+qhYacA0tVYMnzgtPJswFRnDRyMqLklqFWCYSIBFB8MwDMMwTARBrdJqjUbqtkQDshNSMsIy6moUHZ8ErV7PXY6YiIFFB8MwDMMwDMMwfQqLDoZhGIZhGIZh+hQWHQzDMAzDMAzD9Ck8e9Ugm8mIy4PLoycCPihP/WU2mGBEqg+eLYnLoye4PAbH7FVNPgNc8tDywDAnApXXjgSZ9dRNmStucEl0hALtmCovVOEJpfJC0MODMt+XPqxWq3SSoqOjQ664ReJxDBQfXB5cHj0xmH2QCCQ/JAJDgcuDyyMUuDz6z7miCtratWuluFDzwDAnArqOyc4880xotVp/6LH05f0hM5lMoS9ZGaHQwdIS7HQCQ6lUMX0Ll0dkweURWdBbTnqg63Q8b34kwOURWQyG8iBh9e677+Kiiy7CiBEj/KEM0/cUFBTgq6++wo033giDweAPPXlILR3UTSPUN6D0xpSaT0JtYqTKDj1A+tJH4E1uVFRUSG8hIvU4BooPLo+BUR6Up1Df6gWOg950hEJvfNDbF9quv/ug8iA/1PIUCoP5XHF5cHn0RH88V9SF7LXXXsOll16KUaNG+UMZpu85fPgwvvzyS9xxxx0wGrtYmLIP7w8e0xFBxzFQfHB5DIzyoDyFKmwCx3Gq+kgHI1J98BgCLo+e4PIY2OVhNpuxaNEiFh3MSYdEx7Jly3DXXXd1KTr68v4ITbIzDMMwDMMwDMP0EhYdDMMwDMMwkYbPC6+rUVgdfB4zvVL2RzBM/4RFB8MwDMMwTITh87bDXvcqbFV/g7NtDbxep9SVhWH6Kyw6GIZhGIZhIgivLQ+OqiegdG6E0pcHX/P/YK/4IyzmWrjdLhYfTL+ERQfDMAzDMEyE4HVUwGPfC5myTlg75Eo15N5m+MwbYKlfCpulRZoxMCycTbBUrMPiV9cht7QZVn9wn3Oq/DIRCYsOhmEYhmGYCMHraoDPXQ2lxgCZWiXNbKig6pqrGfamNbC0txyZ1rQzu3dX4WBRE2z+78fgaoOtbjeWfrob+YUHsP/AYWwX6dtFVMdebGgsOoDD23ejSAS6T1RDSme/1W2w+4N/CA6bDWs/+QQfvvMO3nlnBb5em49yEbZKhK3cVoiiJmdHQp8baC/C7u2HsX7laqz5ktJ/395b8jFW5DWgoV2kZ/oUFh0MwzAMwzARgkxuEP/o4XGbRCXNA7mzGnA2wOX0wmxVwmq1S6LjeL799jC27K2UhES3tO/HphVf4d13N6LM5RcY7hoc+G4ZvnjrM2xrE+68HUkjEau5DR/8/f/hlz/9OR59/N94eckO5La24W+PPYk//fdzfJtbC0k/eBxA42q8+/oKvPz8Yrz94jN45g+/xzO/exwPSdv+Gk8/8wz+/PdnsWhdFSpbxclg+hQWHQzDMAzDMBGCQjcSMs0E2FvqRL3ZAp/dCqewZlssSk3nCBmi9ac8lp/9bD5uvmwiEv3fuyRxPIZHu5Bl34NtpGdIYDQeQJFJhXLtFMxKA9ShLUdySoiNM+LZxffiimt/jod/+wv84x/XYKZKC/W4i5BWtApVe9ZgXaM/sZ+Jl9+DX3+0Azu2rceOz5/CrdK2r2HFjh3YvHYl3vrxREzOCH5emRMHiw6GYRiGYZhIQSaqZgpR89eeBZnCCJfThkZTNJqcoxETPwxGY5S0QOzxC8ouWrQVH688hGb64rEBtV/ixYdvwzVnnokzz78Blz2wGJtaLTDLk5A9LArJGRas314Lp9MDNNTAGx8N9aRxyPDZoOi87ZmX4KIrnsQb+9tQYweWLTuA3z3+d7zxzJm46HyKPxP3/PF1fJrfg1/Kl+kA9n3+d9wr4s6W9v04/vj6JtCmbW02PPnkl/jf72/D43ffg588+Sl2i/Dj2x/ouDU6NRRKNVRqDTRaFRRQihrtMCxYMARmXxs+W0t7PAqNi9HoDDDoyTRQStvqoDfQdz20QmXJQ1igl/lhKJ544omnqV8gDUrqyWiFQjKC/gZLc7xROtp/X/oIrJ5IKyGGsk1vfFC6vj6OgeKDy4PLoycbzD5odXhKS+URLP54640PSjcQztXJ8MHlweXRk51oH7R68969ezF69GgkJCRI+z0en8cCr6MKSnkRXOZGNFjGol15PpLSxoptEqXVouXyY98bL1myB16dCuOnZkJpMmHFH5/BVms24sbOwOxJaRiapEBpXSbOPHsixsc3o76xAUuqs3DjjCQ0b3sT+80GKIcvwOw4t9j2S9TGJyNl8nhMyElBVqwFew5rMSQ7Dgc3rsLG1Rugmno2xuWMwVhjIyrb1Ch3JmPqcA1WC7/bgvodB2feJmz8YgNK0s/GabPGYIi3BBVC81Sr0zE1Gnjl6WfQnpKNlNGzMXXCaIwZkwoRfOwbcq+QIaY8fLPJBWN6JiaJ41VYXfjss0OYe9FEJKiqYK84AGvyHGQhD6u3HE0XFWTbKP9uBwNNTU3Iz8/HhAkTurzH+vL+kMoxsPNQrDfpiWBxXVm46cnC3aY36YlgcV1Zb9ITweK6st6kJ4LFdWXhpicLd5vepCeCxXVlvUlPBIvrynqTnggW15WFm54s3G16k54IFteVhZueLNxtwk1PFu42vUlPBIvrysJNTxbuNuGmJwt3m3DTk4W7TW/SE8HiurJw05OFu0246cnC3Sbc9GThbtOb9ESwuK4s3PRk4W4TbnqynrbpDnrprlAEqtoirSoNKuMYxMfHQ6vVfk9wHI/d7sWyb9sRP/1iXPfQI3jkp3fivuvmIkevljpnaZNEZT4qAZpdB1HnasWhQitkbgWGZRlgFxX4ZR/sQqnJB3VyMpKTDIjWNGPnpxuQX9mENo8DmhghJs5+BPf9VOz7rkswIV6F+vxi1Am/X3Tj90C+A4cb0rDwgUfw04cfwc/uHIc0Ry12rxD5oMUQ3e2IHXsxzrn+Rlx/+WQMEduE1dMrZQpmjkzAFHUpvvimCI12N8Kc52vQEOyaDFhP8cdbqOnl1ExFzXRqtbpHCzTnKZXKoPHBjJQU+wie5nhjH+yjJ4tkH/QjGCwumLEP9hGKsQ/20ZP1Vx+0v+6Q0X8iDaWS+dxQq2TQ63SS4KB89LS9R6lH9bCrMWFiJkam+AM7kzoUqXHpOCt3Mw61FeBA80RERY/BhGFiW5kL1dp8fPfRq3jpmWfwzN9fxvPv7oHN4YBd5oMzYTJSxpyFc8YBGpXYV1wCEoxRSBcfvcJvTTd+TWJbRadtY3NGI8smgzG3EPvFti6x7cyu8hwiqWPnYOiI6XCs/wL5LXaYeVKq70HXdLDrkqwv7w9JdIRjAYLFBbNw0gYsQLC4rqw36YlgccEsnLQBCxAsLpiFkzZgAYLFBbNw0gYsQLC4rqw36YlgccEsnLQBCxAsLpiFkzZgAYLFBbNw0gYsQLC4ruxkpCeCxXVl4aYnC3ebcNOThbtNb9ITweK6snDTk4W7TbjpycLdJtz0ZOFu05v0RLC4rizc9GThbhNuerJwtwk3PVm42/QmPREsrisLNz1ZuNuEm56sq23CxSeTwweFsO5bN8JjCBLTsjH7nAI07NuMzZpMuOOyMZaiVEZg3L349aLPsWrHDuyQbL2w3+OeM0ZIrQ8RTfQEjB47FvfPWYcVexyokga5MAGCXZPHW6jpAhZq+hN5BTMMwzAMwzA/EJkqGcroBXDarLB6kuBRJktviqniFgoKtwNZhzeivKQJlWbA3tKIih2bcMDp7BjQLap/8YkGjJkQizf/vAhmhQax2UOkSqHCbUVWwVvYu78Oxa0GGGiwtWQaqBTybiuOPfmNq98K994vsXS3iHMBTYdyUaj3wjRzHKaJeGo4+cHIFNBnZiPr7PPge/tdlJSUot4fxZxaWHQwDMMwDMNEEDK5BnJ1NtyGu+CMugeqmLlSxZ+6sISCXivDdZcrcWjVIvzll4/id8+9hg8KFVC7j1bsVfFxSJg6E0nF6Zg0JAEZWTopXK9X4ro7xsK+/QMs/s2jePRRYY8/iUefXYktJd2vKk5+r+3G75RZKZg2qh3r/vgonnxM2POH0agZhrMvHYdYER9KpdTSbsei51dg68al+OKDj/Haoo0oEOGde1EptEmIy16Iy87MQGyiGg5/OHNqYdHBMAzDMAwTacj1UMZcC13ytYhJmo7Y2Nhux3NMm5aJccMTQdJBY9DgjNvPxuhMDRTmBrR5tNCPPh/XnzMeo5KM0NAG+gToR52Fm669HRdOy0I21foFGqMBZ9x1K+aMi0WMqwENDcIaG9HQYoXN7UHOiETMnJoJg0grVSJ1mRgxbowUFi/8ntmN37GzZ2DBFQsxQdcAc3MDrFGTMG3KDFw4ORkajRILFoxAViB/XeD1ydHmTsO4iZnIStbCabJB/r1t9eIcjBbn4FZcfeU8zPSfF8iFaDOMwLRZY46cK+bkIbNYLL5Qm+xo5DlN9UaDRkJV24HpOvvShzgGaZq9mJgYafBLT0TqcQwUH1weA6M8KE80oCwUAsdB0ziGwmD20d7eLq0mTBWIUODy4PIIBS6P/nOuzGYzFi1ahEsvvRSjRo3yhzJM33P48GEsW7YMd911F4xGoz/0WPry/uCWDoZhGIZhGIZh+hQWHQzDMAzDMAzD9CksOhiGYRiGYRiG6VNYdDAMwzAMwzAM06fIaQAIGQ0aCcUCBIsLZoH997UPYiAcx0DxQQyE4xgoPohwfYSTPtxjIGMfweODGfsIHh/M2Efw+GDGPoLHB7MT6YPCGeZU0dN13N2125WFsl8ymclk6vdXP83M4/F4oNVqQ5oBiOlbuDwiCy6PyMLhcEgPX52OJ2uMBLg8IovBUB40Q9c777yDyy67jGevYk4qNHvVl19+iZtuukla9+VkIxMXv4+m3gx1uk6aSoumxAp12jiq7NADpC99WK1WaZuoqKiQpwSNxOMYKD64PAZGeVCeQklPBI6DpvINhd74oGk0abv+7oPKg/xER0f7Q7pnMJ8rLg8uj57oj+eKRMdrr73GU+YyJ52A6Ljjjju6nDK3L+8PXqcjgo5joPjg8hgY5UF5ClXYBI6jv68RcDJ88LoQXB49weXB63QwTF/A63QwDMMwDMMwDDOgYdHBMAzDMAzDMEyfwqKDYRiGYRiGYZg+hUUHwzAMwzAMwzB9CosOhmEYhmEYhmH6FBYdDMMwDMMwEQbNCkQzCVU3NqKhtRVO/6xCDNNfYdHBMAzDMAwTQUiCw+NBfVsb9paX40BlJeqF8HA4nSw8+g1u2FprUVNeioJ6C9zevlmLu6GhFcXl9Wh1AX3k4oTBooNhGIZhGCaCcAvB0SQEx7aiIqgyM1GnVGJDfj7qGhtZePQbGrDvs7/jmYdux4X/2oHGdqc//MTy8suf4bqfvICl1YA9wi8LFh0MwzAMwzARAomKqqYm7K2qQsLIkVDFxkIrhIctLQ0rS0pQUV8Pq832PeHx4q9+hfsf/xde2tjkDxE0bcCX732IZ1/aiFrx1dMRenLx2IDaL/Disx/i/eUH0JE7ykktNrz4LD58fzk6shwIexiP3f84Hjkuz18uXoxb5s/H/CN2Cx7/V2DbTlRuxMbFj3VKJ+zuZ3Dx/1uNXzzxJQ632WH3J4W9Gm2HP8QTv/gQa/bVwOwP7i4vdJ6vPrLvhcLuwd+/2IcDRzeWaNrwAb6uUKJuxv14547RiDd9jRcfvvXItgsvvBz3vL4f+2ooN5Uo3LgYfxDh5x3Z99W47ZGX8GWtE3bPTnzyq3vx4yNxR/1Omx6FW2bY8eJzX6LQ3OnYIhDFE0888TQ143mEqu7J6AIPXOT0N1ia443S0f770kdg9URaCTGUbXrjg9L19XEMFB9cHlwePdlg9kGrw1NaKo9g8cdbb3xQuoFwrk6GDy4PLo+e7ET7oNWb9+7di9GjRyMhIUHabwC7X3BUms3wxcdDHRcHh1IJm0oFi1qNBrE/au3Qy+UwiDCViJPJZNK2S97/GocPFECtVSBq7AQka0Qlz7QH6zdU4EC1FrPOHY1oke7kv20W587XiB2fbUKrTAvjmDHIUDmBlm345JNCtOkzMHrGSKQqA2FbsX1XFaDVImXWHAwRx6EUh7h+7WHkFpkw5/IzMWXsWIzLAKyVFtRU+pA2JwsxwlN73udY9vFaLNvrQtKZczBHpBsvLFGmQFNhNbZXu3HepeORpFdDTVlzNKC9aideXWLGyNnDkT0kDjopy13n5ZMPtsGujcHMc+diyujhGJtqRfleK5wKPZLGJIt8uMUOirDuRSFwbFnIueAyXD9OB0Xxl/i2OgWqjImYM30IhmXKUP5lCQw52YhLd8O8fz++e6kQcTddgGlTJmLy2PGYMHEcxo5JR5KmAGv+tRMNyhQMu/RMcVwiXMRPnj4Wk3P0iHZV4dC3y+Edfz6GxOoRIx3c92kS11Z+fj4mTJjQ5T3W3bUbzCg9GUF/g6UJmOLJJ598OnDBhgJlIpz0AfrSh9vtlrZRiRswVCLxOAL0dx9cHpHlY6CUB6Un+ruPk1EeJ+M4BooPLo/I8jEYyoOEVVeio7yuDhVCcNj0ehjT0mAX4sIiwk1iP2ZxTqwivKy+HkqrFVEiLlqng1IID+Kb9VXQ2cqRGGvFVsV4nD5EB629ALtzW1FrjcOcs4ZCWbwe6zduw6Ztu5GbewgH8xvgS06HQaNEeXEldm/bjur8jdi4LRf1Pj1M1cUo3b4K6/cWCHEwDFE6FXTkzt0OR9NhrF++Gtt27RY+ilBeb4MiJQ3RoujknQ9bJmSOxgDnvm9R5dOiLXE8psWLinnpCnxckIb4keNx5uQkaFxWWPYtwdLidMjsbRga3YzKtIWYlaqCRiHD7v3tsGqG4IHf3IZz58zBvMky1G0sxcGdZmTcMBOZwlXJ56/i690WtI24FD97/EZcTOmETYjXwdPUjM01Mlxx+UQkB0SHqwXWxnx8tgaYPH80hvlFh6+bvKzb1IoRs+fg9p9cjXNnT8GciVZse/UwzOpoZCwYhXSPHaj/FovfqoEvcyrOv2wGhqg9ohDr4Rh5MeYuPB9XnDMBE0foUfSfT2CbNBOJww1Qltdh30o1zvnfo7jy3AU4e840TB6XJcSjqKzLKrDtvTbEz1qIS351K66aMxtz5kxETnIUjEY9ZNYGKA98gg3GKzEpMxppUcGlZUB0TJ48uct7rC/vD8VTTz31tFqoZ7poSfV0Z3JxgZNSoYySBUtzvBGUmb70QQ8pUld6cTP25+MYKD64PAZneRB0HMHij7fe+KDzRA+1/u4jUKkyGAxB44+3wXyuuDy4PHqy/niuaF+7d+8OKjrySkpgEmk0KSlwCl/tIqxNWKvYn0lsZxPnx+NywVlbi2gRlhoTA61WK237zTcVyBriQ8YYDT7c2ICFU0Yh1lOM3Dy/6JifBuf6f+OF1z/FB59/hw1rtmDb5kI0jz8Do5INWP/5aiz+98soPfgpPlzyKXJdKag9sA15n72It5atxeG4izB2SAzSohVwNpajdM0HeOHZ1/HFd2uweu0uHKy0wTtiOsamqCWRcLQKSp8M0LWtx45mJYrcw3D+cCWsOz/AOvVMDBk9DrPT1XBbW1D8+SvYFXcuspLMSPIWY2XrTFw8OQ4GtQJ7dleitsmKeUdabKpxaGsd6lt0GH/NdGSIsHWvr4F7+GTMv+tKzDUcbdWRBJxMj70rt2LE5Hh4zK1obWhAQ20pKksOYMUOHaYvGIPhkujwdpuXzWsLYUwyYtLUTERJrRoV2PJFA9RZWRh1xgikOC1wb30XL5UPQcLU6bh0VhoMClHBT5qAnJQYpBrFJl4nnO0tyNuwF7q5p2Nojg6yskLs+KwAmoVDobK2wWHzwCPXCkFIIoBEx360qJRQDzVA1tQirg0hKlUKqBQaKJ0mKCyH8GHrVJw2Mh7Z8cGbOgKiY8aMGdAJwXr8tUnWl/eHnHYcjgUIFhfMwkkbsADB4rqy3qQngsUFs3DSBixAsLhgFk7agAUIFhfMwkkbsADB4rqy3qQngsUFs3DSBixAsLhgFk7agAUIFhfMwkkbsADB4rqyk5GeCBbXlYWbnizcbcJNTxbuNr1JTwSL68rCTU8W7jbhpicLd5tw05OFu01v0hPB4rqycNOThbtNuOnJwt0m3PRk4W7Tm/REsLiuLNz0ZOFuE256sq626Y5Jw4bBICpwJQUFksg4Iji8Xljsdtjq6uATgiVHCI9EpVJqNTmGIfMxccwY/ML5W7yxw4SCFn+4QKGLRcYV/8RLH6zC9u3bsX3lS/jwiXR8/M1uFFeKhHUt0GtGYtrvV2Plc7dAufE7HHKMwvw/votPn1iA7cu+Ql5FFUxiXwXbrXj1VzZc+u6X+Ij29e1f8KurkrD6/5aipItxBYnJabD55CitaxD5tmPH5q+gkXsQJ4QTYIPTUY1t6zzITk7CgvmzkZ4yCnnrtqHc4Qw+TuHgPhxytmHv0BRJcNDrrz2laWiyxyE5UUpxLKYiNK/7I+46Zz7mz5yJmWTzr8C5P34Z61ssncZzdJ8Xmz+VBJ3/HZuxJUaJmpRYJIkgj8eNqspSpI4eilE5WQiWFdia4ajei3WeuUhOSkQWnQLUoq3hLfzmwgU4T+Ttkp/9Ay+sb5SSd7AZX738CG4RcfPOOg+3vZqLvVUdZ0anMyApNRP51bUwWY/J4fcIdk0eb6GmC1io6XkgOcMwDMMwTASg02oxPCEBmQoFCoW4aBRCgwSH1WqFo7ISitxcTNFokCEq6lFGIzTi8zHIFEjIGoGZ51+N8s++Q3lFjSQSJKjbT+NKLP7Vvbj1ggtwwfU/wY1/WoG6PQVoaLfBlDQU8WOmYNawKMQMz0H2iJmYMnw4xuXEIyp7KEb6AIMQQPTevd1Ti11V7+IPN1yF62hf1zyER3//IfbtK0W5y31sxdyPbMwEjG4HRmzZiW3uFhQVL8DwrGRkDxGR9hY4anOx1jULSYmJyJ6Yg7SMVJy5bx32VTjRTHXr+q3Y+e6vcO38+TiLBlP/Ph9tmfPw5E/OQJqIJtHhyUpFdFIcEoNpu6ihiJ3zCP65ZCmWrliBFWRLX8OSf96CObF6UAOERA95acn/Ah/99T5cSXm44GrM/48Gcy8TIuCS8UcFhs8LmVxUtMn8QUepROHODVj8+HZMvPUCjBmZjhhkYsRpd+DXa7/Dl19/ja9XPI+fDJPB/v4H+LJWBbtnOn70l//ipe++wcoV7+H9l+/D2A8XYcf2go4B7Do91CmZGFVeC4fF1klARRYsOhiGYRiGYSIAGhieKATFiPh45Ajh0VpYCHN9PRwVFdCXlWGMqPQPE3FpSUmIpVmt/F2rOqOKHoKUCZfjoqTNqKitR0FDR3i72YFX/7oKJcoRGHfBVbjqyotw6XnTMEqIGqXXA7dGD5UxGnE6UVHW6aCLikOsQY8onQIyrQ5GmQwdo0dE5V4fB4w6DRdcegWuvErs67rbcfu9d+GXj52DsVEa6P3pjsE4HsPTNBhh2ItDRYexVT8XabFJyBKH4GxtRN3u1dhdtA7vvfRXPPPbZ/HC28tR0LwLa/fWoqnNKSrWKUgePQ8XXHEJrlyQDlW1G3KHGqnD4kFngSr38aYquJqaUHdEaXVCKY4vYQQmz52HeWecgTPI5s3EnMnZiFcpjhxbT3lp9GZgxLQFuOiSM3H+1Di07LIgKiYaiSlRHeNEuqUC+1eswdrPS+A57xpcePowZMVphW8dDAlZGC3ydJqUtzMxOUuIP081au1yeHwxSBs/BVOluPmYN2smRqoqYXdaYHaJ3Xrc8FotaDbqIacuVx3OIg4WHQzDMAzDMBEAdUHRaTRIj4vDtJQUDLFaoauuRmxtLYY5HBgjxEaaCKexIFFRUVIf+u+hihH184m4+AIDLAVFKDxQLXXTstt9+OJbBxJnXYrrf/YwfnrX9bhh/hBEaYSo6NgyZFRyBRKMyZh66T247b6H8fDDZHfivrtPxxiDpmMGqO+RjOxRMUhOqsSaj1eiOmcKYqPjEQsHzE1VyN+2C+rsZMh8bliaPJBpojBypga7dxSgqskMR9RQDJl+Ge58+Gd46MH7cPcZ8dBUFWD16sNHprOdkFCF9qK9+Pa7o2GEqbISNYcPS9P1dsyz1BU956Xam41x516Pu3/2IB665ybcOdmJiu37sDW3Utq/XCaHwRgDS7MJLW3mjlYfsR+0F2LnN6uwbl05mgyjMfeuSzEtTYsYKkJTJVqqDmOXyLSLMm1zwOFWwK02CNHnhLxuJw5XtaCSmjDcHvgsdrTLo6HWK0GNXW5xnbTXVcKdmQKDXieJsEiERQfDMAzDMEyEQANzqZtVRmIizh8yBBPsdowXYmRSWhpShOBIEsKDBAcN9CWREgy5RoekBVchtb4GzrIC1FCYSoH4MZmIQQPayg4gLzcPe3fvR4XLFfbaDrG+Royxr8K33+Zh244DOHBA2OEi5Fe0wurxdlmxT8lOhE6nxtrFazFkYg6MCdFCGbSgqaECewuVOO+h5/D3l97Em28Ke/EveO6nC+DN3YPy2ma0BBSEXNSykxbg+jtGI9l5CJ/9+xOszK9AndWD6ZekwOguxLq3P8RXIk/7KF/CNq5ci/XfbZKESLeiI4S81NQ1w0R50SQjKmchHvlFFpo2rMbn736HTWX1MHmVSBg6Eo6iMlQVlqFW6A2f2wZX2Rd4/Q/vY1WFF4aFE5HccABFh4TVtKC1YjdKdy7D4q8OYPc+kedta7GvxIY6xUgMjbVBUfIpvlq9BV9tFHF7d2L/to3Y0z4GhuhYxBs8sFhaUVVWhhHpqYgSoiNSYdHBMAzDMAwTQZDw0AhRkSaEx1njxmH26NHIzMwMSXB0QB19ZuDaey7CGReOkUL0CgtuzH4Jbz51Oc6eMQMX3/cbPF+WjSFupTQbVDiMnDUcD/zzR2j6x49wz7kzpNmQZiy8Duc+uhS5rd0sUDdkGNLGnIvL1Rdi4QwtEuJEWFs5Ghqd2KG+D5fNMCKTwoj4RGinTMOFhVvQVNyAcmqu6czYa3H9deNxWdwK/PzcR/FGbiucs36Ge+49XYR9gPtEnuZRvoRd+co3eB8TME5sFuhGFZQQ8mIUebEHum+pjeI0P4Sn7jIgOvc1/O4n/8LSRjXs0+ZirtiXvqAYBxqFlnE6ULVtHQ627MDS9/+ARy/wnzNhV//xU3xeoYC19jB23DcD584T4Rc8io/NSoy7+1rMUCihzshGzZtP4S9XirgzLsclj74D489/jOkTRmII2tDcUIydG/ORLq4PvS5yRYfMYrH4er54O6BptGhRG2rOo6k3QyGwMFlf+hDHIM3gEBMTI92oPRGpxzFQfHB5DIzyoDzRFHehEDiO7w1q7ILB7KO9vV2aFpT6Y4cClweXRyhwefSfc2U2m7Fo0SJceumlGDVqlD80OOSbpiOlfRH0DKc8BPu9KC1thkqnQlLnsQXtNSgXlWgTojA80whH5R6UNThhdojKt8ibPjYesGuRkZ0Au80Fh7CM7BionY0oq/RAZYwSQkcFmbUZBeVASmY8YqK1UHrtcFkaUHCgEiaXR5o4VhozEZOBcSMTYVAqunirbZO6HdUV2hAzJRPRaiVUbjNMrWZUNiiQJbbVH9nWBbezDZV76qDIHgKHWwa5OK8ZQ+Ol46Mz4DbXobGuDiVNKmSOG4kkgxJKC4VVobDWKu1FwpgMpS4e0V7PsT7oODofm94Faw95afAakDAkAZkZR8+zs7kUlTUmtPqikTEyC4lqMw6+8jssKomHZfJ1+N81OXA2FiC/yoQ2q3S2jqBPHYmMBDV0jiaUFNZK0yTTYH1jchZS0rOQZvAIB40oza9CQ5sVouggV6qROHwKMmLVMNStxXdff4NfLJXjd889htOyopHQxaCOw4cPY9myZbjrrrtgNB4ZOn8MfXl/sOgYZBVQLg8uj54I+KA89Zcf8WBEqg+u5HJ59ASXB4sOpv9jKV6GD5euwjeFGoy88A48eu4wRGtD+90OhxXvv4ulq3bDedpt+N01o5GuV3U5kPxUi46eayAMwzAMwzAMw4SMIec0nD59ChbmaNBsdcPbsdD3CceqzkB8zgzcetEEpGq7FhyRgKy9vV1q6QgFUjP0xpTesobyxpSgNxakmPrSB81fTcosOjo65LfFkXgcA8UHlweXR08MZh/U8kR+qOUpFLg8uDxCgcuj/5wras1ZvHgxt3QwJx1q6fjyyy9x5513dtnS0Zf3h8xkMvWR9jp50MFSn0earzqUShXTt3B5RBZcHpGFw+GQHui6CB7sN5jg8ogsBkN5kOh45513cNlll7HoYE4qAdFx0003wWAw+ENPHlJLB/UND/UNKL0xpT5bofZrDAyA6ksfgTe5NKNDKG8hIvU4BooPLo+BUR6Up1Df6gWOg950hEJvfNDbF9quv/ug8iA/1PIUCoP5XHF5cHn0RH88VyQ6XnvtNW7pYE46AdFxxx13dNvS0Vf3Bw8kj6DjGCg+uDwGRnlQnkIVNoHj6O+DWE+GD6pw0EOdBy73DJcHl0dP9MdzRcKKKn5ZWVkhHyfDnAhaWlpQWVmJSy65pMvWxL68P1h0DLIKKJcHl0dPBHxQnvrLj3gwItUHV3K5PHqCy2Nglwd1Idu4caMUH8ozmWFOFIFr7rTTTuvy+u/L+4NFxyCrgHJ5cHn0RMAH5am//IgHI1J9cCWXy6MnuDwGh+ig/dGznGFOFnRdUn3gVIkOltgMwzAMwzAMw/QpLDoYhmEYhmEYhulTWHQwDMMwDMMwDNOnsOhgGIZhGIZhGKZPYdHBMAzDMAwzQJErVFBp9NDrdFArZZD3PGcJEyHQgG6aeCCwaGZ/h0UHwzAMwzDMAEUdnYKUnEmYMH4ssmKV0IY28SETAdCaLsXFxSgqKpJmdqOZovozLDoYhmEYhmEiBE10MpKHTsCECZ1sdDayU6P8KcKDpmOXyeTSlOmhTM3ORA7UukHCo6CgANu2bcOBAwekBf76K7LGxkZfqPNOEzR/NqUP9cKlE0bKrC99BOYUpjmCQ90mEo9joPjg8uDyCIXBXh6hzoFOcHlwefQEl0f/OVe0TsKePXukYwy2TodSGwVtVDxiY2OQkWCAwtEmKppNqG0Wf012f6rQ0cUPQWLqEGQYnWgqyUVVqxNWlz+SiWja2tqQn58viQ66nqKiohAfH4+kpCSkpqbCYDCEvGYXQfcXddWaMmWKVCcIRl/eH7L6+npfOOqXdkzpQ1lkjAhkvi99UHryQzdvfz6OgeKDy2NglMeJ+oHtisHqI1AeXT3wg8HlweXRE1we/edckejIzc3tUnRIqAxQx6Zj0rAEqNurUFHTgIo28exX6xFnVEMu9u8VeREVOCjgExm0wtzugMPlgUyphlofA5FM5BdQGxIQFStEjLqT6PBqoNZqEaPvdJ69TrgcNpgt4lgNcTBoxO+M2waHzYp2IVIUmihE6VRQyV1wisqr2ansyEvgnPhE2blsMJkdcHvF75rGAK1Wj2Nd+Pfn7P/jE04GnUUHCQaCRIbRaERmZqYkPuLi4qDX60O6ngOiY9KkSadGdJjN5rBWJKfM0k0SamYoIx6PRzq4vvJBTU90IkkBhlIRi9TjGCg+uDwGZ3mEU1HojQ86Btquv/ugFeLpfNEK8aEwmM8VlweXR0/0x3NF+9q8ebMUR/sMSjDR0a44GiYq91bxzHUp1NAplFC5GlBWWoNGsxMyITISM4Yj0+iCW/y++GRKKJQi7z6/6GjzwKlJQEJiIoYmaOF0i0qmXOzDZ4W9rRFlVa1A4kikJxqhczWhrbEGFc1uaFJHYFiSFjqvGS1mG2odBoxK1pHkEQKIxI+oeDqaUFhUC7NbDm18hqgUpyBJ5+zwIdI5TQ1obapHdRs3tYRCMNERgOoM1OqRlZUlCRBaxb+n33jaB4neuXPndtma2Jf3h+LXv/7106SaKKN0AD0ZVZBop2TB4o83qogQfemDThBto9Pp+vVxDBQfXB4DozwoT+EeBz10gsUHs3B90INtIPgIPNCpPILFB7PBeq64PLg8QrH+dq7oeVlRUSHtiywoQkwotFFIidND4TTD1G6FySkq9oEwbxsaa6pRXWuGVZ2EmCgDZPZWOGUaqKKSMTxJBXlrGYpKK1HbLiqG6mhEqT2wtdbB7I1CTFIykmPksFcX4LAQKzUmn9SSEWfUCkHTgvqGethkRmiiomDUKuGz+hAzNAVGXyuaG9rR5tQic0gMvPVFKC2vREWTHQ7okJQQB627DU5dKuJEhThRbYU54KO2Dg0tZrQ7PP6DZHqCKvNNTU1obm4+8jvbGbvdLsXbbDYkChFJQoGusa6gfdC1nJ2d3eX135f3R2j9MxiGYRiGYZjIwOmCRwg0l6ggdtQRqVIHaKg7kyFaqji2ms1wOJ3SZ389UkKlM0Cn0cKgNSAqbSTGjB2H8cPTkByrg0KugE5Lb7i9sDZWiQqtEDWqeKTlZCJRZUZLTSNaLF7IhR+DQgV98lAMGzkW40dmISs5SuRCDr3YXhJTIkPKTj5GpMUiVis/Ji9M76FKPHWtGjNmDMaNGyd1saKwSIZFB8MwDMMwTH/C19Hv/vh339SaLZdaT3xwuT3wBqnhyxTUsq6AzO2C09KC5qZGNNZVo6qiDKWVNahqccAjduwhYeP1QqZRQWvQQiVzw+VwwuXx70PkwWM1oa2lCY31taitKkdJWRnKm6xob2uU3sDXm1xQ6owwRkUhNikNaSmJSIkOfZIA5vtQiwJ1Pxw1apQkNoYNGyZ1s+qy1SyCYNHBMAzDMAwzAKDuM15PR/clpUIIkCBvvr1ej9AsJFeEKHGZ0Vxfh7qaGtSQ1Tei3uyUxIpSFw2dXgWl1wpTkxk2rxpaow5ajag6in2QsPF5LTA1N6A+sH1tHWpabbC2t8LUUo/auno0NDSiodkMp8qA6OhoxIl9MuFDYoPOX0ZGBkaMGCG1cFA3KRrL0R8EB8Gig2EYhmEYJkKQVhBXa6FTK6UuU5C+q6FR91xl87gccDqscPnkUOuMQjQYhEgQ23eqk7qdNtjtNjhFFVCTmIg4gwFGvV7qnqPTaqEVlVulVofopCRE6+TwtdSisrgGDTYdohISEBetgcLrgN3lgTI+HjFR0Yj2b0+rnmtVcihoBi2ZFz5bC6qqq1FV04p2mx0Otxsu9/fHJjDBkcZByOXQinKh1oycnBxMnDhRWruFxAYJkf4Eiw6GYRiGYZgIQVpBPGskxmbFCrEgqmlG8T0jHUPTov0pusZtbYOZWh4cSmhTRmDEmAkYM1Rsb/QnIGxNqKuuQlGVGQ5VEoaMHY9xkyZJ06iOHzUCOcmxSM4ZjyEpUdDYTWipr4PJa0ZjrQUOWQwS44QgUZiwv7AeJnc0EoaNxGj/9hMnjMPIZANiEzOQPmysFDZp4gRMGpuJJKUFbU2NqGyy+TPC9AQJDhJz1JWKZpwiwUHio78is1gsYU2ZSyPlaUR7qOqKZqKg5r6+9EFT7NEUYNTHjQqoJyL1OAaKDy6PgVEelKdQm2wDxxHqgl6D2Ud7e7s0JSi9pQoFLg8uj1Dg8ug/54pmJNq4caO0P3qWH49cqZFaNtSdXXndcHu8sHvkMGiUkHmccAgfLq8cSo0OIggep0349cArU0Kl0UqtG51/Veg43A7xe+CmsSAKaRpdjVYlPh3F56UuVy64KQ9yGXxuB9wuJ5xemciXFlqRKQU80lS8dpcMWp3YXvx2HfEjfHhcNjh9Hb9RKkWnHHhpulZa48MjTZ/L9AzNCkW/31R2dC2Fev11BV2XtL/TTjuty+u/L+8PbulgGIZhGIaJELyiou+wmmE2dzKLDTa7Az5RoW9vF99tjo61L4QYcdnMaBdpbA4hTLxCUHhc0vYU1nkfJOjsLhFPNX6fR4gDO6zHp7FYYSVhYG2HRfix2oXgkIZviO1obRBLuz8voiLsccAm9nmMH/Hd6hCixGmHXeyj877NFru0eCELjtChSjxNHx3q4n+Rzg9q6SAFRnMDNzQ0iFiZUM1KadBS511RGtqOTlaoPugtB6UP5a0sQW8NaJtQpwvrjY+TcRwDxUeklQc94LziKWt32MkZYmNipLdodN13R0Dt9/b+CIWT4YNbOiLLB79Z5/LoCS6Pwd3SwTB9BV2Xp7KlQyZucB9d9KFWeCizVNmhhwI9HGjBkt17c6XVLNUanRQnk9O+et4fw5wM6Lr1erxwuhxw2SzIykzHiOHDYaDBc0Zjl9c+XeN04/Xm/gj1h+lk+OjNiuTkg/IUqggMHAc9dEJhMPsgEUh+SASGApcHl0cocHn0n3NFoqPHFckZpg8IiI7uViTvy/tDZjKZetXSdeDAQRQWFsIYHQOXQge7wgCXUg+PXAWvVHli0cFEBjJ4pfnElW4HNO52qL02eO3tUj/Vs88+W5oVYiBDDwNqGaLjDEXYMH0LVTjogU5N5syph8sjshgM5UHP5J07d0qVPhYdzMmERAfdY9OnTw9ZVJxIetXSsXv3HtQ3NgqxoYVDlwS3QgOfTCFMDp+o4pExTCQhXZVCeJApfUKRO83Q2JqgVMgwc8YMJCcn+1MeJaD2w70/uKWjZwazD36zzuXRE1we3NLBMH3BKW/pEDd4yGM6aKd79uxBTV09bHId3PpEOBV6eIXgYJj+AgkQpccBtcsMRXstUhPjpe5W6enp/hQd0M0ZuPFCFQTUr5FuPBIFoXAyfNCPON279CMeyg9mwAflKVRhEziOvugDGmCg+OAxBFwePcHlwWM6GKYvoOuS6gOnbExHqKKDumeYTCasXrMGbpURLn0S7Moo+EKoKDFM5OGDwuuG0dkkfuUaMSonG2PHjpVumgCBGy+U+4MI3HgsOnpmMPvgSi6XR09weQwO0UHP/FD3xzAngsAkPBEvOqjiUl5ejpLySrQoE+BQRX2vhcNuAWyW3k2GJpfLoFSLg9R5pExL+QmhEsYwvUVq8fC6YLTXISNWh6HZWUhNTfXHHr3xQrk/iMCNx6KjZwazD67kcnn0BJfHwC4Pu71DdNikNTVC2x/D/FAC3cz1akXki46KigqsXrsWhsRMtGuTpfEcx7NnrVcYTegcPjqjAuk5Toyb0whDVCzUWh3kId7cDPNDiHI2wtdWi+RYIxYuXOgPPXrjhXJ/EIEbj0VHzwxmH1zJ5fLoCS6PgS467Fi3fgMaFB0vcHkcLHMyoAl11G4zkrwtmH/G6dB2cf335f3Rcw3EDwkAlcYAh9LQpTKPilMjY5gRmTlGDBkeddRy/Bb43Ck8Q6RNF9ukZhmg1jhQdjgPptYmeNwu/14Zpm+h2dcgrm2lOrQbjGEYhmF6C/UHodXE4XFC5vNIooONra+NrjVayZ5EhVAKHRfjSSZk0aGQK6DRauBWaKWZqoIxZLgW518Wj7tvTRAWjx/fEo+7bo7HncLuEHbbjfG4VdjNN8TjxuvicYOw66+Nx7XXxGP+OdFIzHSjobocNosZHm/vWkwYJlzccjVkSi3UqtBaDhiGYRim14gKn8Nuh8Jplbr4MszJQCGuNbnTArvNKrVOnApCFh3U9UOpUMIrV3Y5eDwhWYWJU3RYMFePWdPUmDFVJUyNmdM1mDNTi6lTlJg8SYlpU9SYJuLHTVRi7Hglpk/TYvRYNaJjfbBb2uERKswnrdPfe+xWCyqLDmHbt5+jMHcHrOY2fwwzEPAJUeqyW2Bra+zRHO2t8LidtFXHxsfhgRDR4toOtdmcYRiGYXoLdXNNTkyAQemFwuOQ+tkzTF8iLRfgdYhrzoekxMSQulr3BWGIDrpRZEfW4giOT+oHZnG4Ud1oR3m9DRWNVtS12NFidqJShJXWW1Hb4kBjmxPldVaU1VpgsjjhpgFVYbRu+MQJtJpNqK8qQ3VJwTFGgsPU0og967/B2//4DdZ/+QFaGmrhctjR2liPmtLCju9Oh39vJwaLqVVqqWmoroDDfuqU5GDA63bB3taE5pIDaCre16U1l+TBVFMCj8PWZXmQiCZRLe9CTDMMwzDMiYLG5E2aNAkxeg2ULgtUojLY1Usxhvnh+KAS4lbhtCDWoMPkyZOla/BU0Aup03XFjOp0XvGPx+uDw+OF3emB3eGFw+WF0y3CnBTW8Z3MJsW7YHU4RbgTHnfoosPlcGDPhm/wytM/w5/uvfIYK9y3w5/qWKpK8vHVW//F3x+6AZ8vfh4NQrCcSHas/gqv/fFxvPGXX6L0UB6PS+lDFCo1fB4PmssOoiF/DxoO7w5qTUV5sDTVQKExCGHR1eVO1zQLDoZhGKbvobfMNLEH1RHkliYYnC2Q+7hLOdM30LVlcIlrzNosXXPR0dGR39IRCvQm2SsEh9dLcwF74fL4hNFfYSLcJYSHS4gNl5ss8Nkt/rql2SpCbeloqCrHyvdewTdLFkMfFYXL73oYjz77Fn7yh/9i6OhJOLBtPYr27fKnPkpa9nCcc92dePCvr+LCm+5FYtoQf8yJgbr8UIG6hVFLDNOHCAGhNsYgLmuM+KiQzncw08UlIzoth2dCYxiGYSIGal2fNm0aMjLS4GyrR4y9FmqPnbtaMScMupZU4pqia8vRWidda1OnTpWuvVOFzGw2+0Lpy97Y2IhdufvRoM+GRxZ8wK1eG40h8dEYnSRHRb0VVgfdPD5oVArotGrUt9ql1g+dViX1n28Q391uB5JjtWizebE7dx92r/8YE+eehbShI6EzGDt23In2thbs37YOy9/+LxqrKnDJHQ9h1tmXICE1U+oudWjHJhQf2ANjTJw0IH3lB69i6hnn4bzrf4yYhGSUHt6Hwzs3I3P4aIyZNg86IVoqCg9ix6rlfg9AfHIaho2djOETpsHabsK2776Q/OqN0fB6PFIXLRJIJGKGT5yOlMxhKC/Iw6qP38Th3VtojgDkjJ+GmMQknHn5jUgXx8KceLwuJ6yt9ajc8R3s5hZRNm5/TAdKjQ6JwychceQUqPVR/tDgRDubMCwaUrNjAOoqSEI6nLEeJJ4pfag39cnwQVPZ0TYGA7X2hLZNJB7HQPFhs9mkBZqMxu8/37qCy4PLoye4PPrnuWpoaEBpaSkqqmuhjEqEW6WXliTwyNTCFP4xtKH5ZAY7PiE0xDXnc0PpdUJJXapcVnjbG5GRLuq1w4ZK4zl6oi/vD8WTTz75NCXqKaHVakVNXQOsqlhpXEcwlAo1orQaJOjlaLO44HT5QOPB5Qo55EoF2m1uqYVDOhCxD/pODxe9Rgmb0yv2X4e6ioNIGTIMUbEJUKmPrg4doLG2Egd3bETeljVISE7HgitvxpAR46Q4hUIpbSvOFpQqFcytzSjav6tDHAgBQUJh/9Z1WPXJGyJejZSsHDTVVGLn6q+Qv3sLtHoDGmsqUF1aKImNxLRMqeVi5fuvInfTKliE8NAJ4WFpb5P80/gRjU4vBMokNNVVozhvl7Q/n/iPRI9c5CdHiJfo+CQpf8yJRSauI+pm5bJb4bS0weM6doyOMTkTsUNGwRCfIhJ3f31rPDbEaXDM4oB00xGh3B8B6GYNJ/3J8EEPA9qG+nCG44OaX0NNHziOcJpsB6sPKg/yQ3OahwqXB5dHT3B59M9zRS+DyOilqVGjEL9lJnidNiip4uhzQUUmKpA07oONrUcTdRmFsx1yeysMPjvSYvXQ67QYNWokEhIS/Fdd9/Tl/RHy4oD19fXYtmtvty0dOpUB6TFRGJWiRkWDFVY7zT/tg0ZN0+2q0dDs6Gjp0KmgEJlraHWIB4wDyXFamIRIyd2Xi9wtn3Xb0lEkKvYbli3BzjVfHWnByMgZ7Y89Cg0w3/bN58e0dKg02mPCJs9biAM7NuDw7q2Yc/6VOPvq21C4byfWfvYuGqvLMf+yGzB66hx88MIzUvi4Gafh5p//AVHxiXjl/z0sCZHxM8/A/X96SfK55tO3sXnFJ1Jl+Iq7f44RQuiQuGH6Dp+40G2mRlTvWYf2+gqpJUpczFAolUibdAbihOhQ6Xp+Y0YtHcNj5Zg+fbo/5OgCOaHcHwTdqNSqwIsD9sxg9sGL0XF59ASXx+ArD3oBS60ehw4dEs9sK9SivqJSKaFUdP3MpnwRoQohgvJE6UPdhtKTn1CPmwjXRzjH4XA40NbWJm1D10g4ZUiEmieiL48jwIkuDzcNZxD3D03JHBMdhYkTJ0r1Ba1WGxH3xwkVHVqlDqniIEemaP2ig95YiIyrleKANahrccDhdEndq6j1o0kSHU4kCdFhtjixT4iOvG1fdCs69m1ejTVL30FB7vYfLDo0Wj3K8/PoCsEVPxYiYeJ0VJbkY9VHr6No3w5MO/MCzD7vcnz4nz+jvrIMMxZejKvufVw6Vx+/+FfsWL0cQ0aMZdFxqhEXfO3+LdKgcrupWWpholaO9ImnQ59wtOWiO1h0HCWcB0iASPwRj1QfXMnl8ugJLo/BWR7UtYye7ZF0HPT7QeVBvx+h0NfnqqCgAEuWLJHydMMNN2DUqFH+mO6J1DLvq/KgfQfqFCTUIuU4Qm87CQEaRO7x+OCm2atcHjhFxinzVOFxCKPPge9OIT5owDXNWOUW29B29Na6J6h7U1RcvP/bD6NjsLEPNWVF+ODff8A/HrkZb/39Can1w2G3oam2quPNuYDKjgowUIgdn6WPzKlGFERM5ggYEtMhE5Vq6nKVkDNRGmjOMAzDMP0BqlfQi6FIskC9J1jcqTDKC1WIySLxfPW1hVoeVPmnv5Q2kjihooMW9KMmQo90MXjFzj2QCaOxFLTgH3xuyGUekc4tjZWgNDK5EBs+SNuEIjr0xihpvAftr/RQbtBF/6gVhMZbhIoxOhZjps7DjLMuwukXX4uLb30AV/z4UamVQ63R+VMxkYzGGCuJDmPSEBiShcWnCvERmkpnGIZhGIZh+pYT3NIh1KdHiA2hrAxaBQw6JfRapTR7FS0sqBNheq0KavFdpZRBT/F6Tcd0ptQVjkad9wAJjrShIxCfki4txFd6aJ+00B/hdjpxaNdmHNq5SRrQ3RPxKRmIikuQul2lDBkqCY6zrrwFZ1xyHSbMWSANACelGCpqnR5KtUaaRclxCpeZH4zIlSoYElIRP2ysNI5DqTNIrR4MwzAMwzDMqeeE1spobQ4as2FzuqWB4ipREVQoVMKLAh6fDEqFUggOpTSeg2avUitJkCiFWKE+ZF6ptaMnSCQMHz8d0+afj4TUDGn63NyN30ktGzQd7vK3/ov21hZpJqqeyBlH0+JOlSaj273ua1QWHpT2U3Y4Dwe2b8DO1cvhdNg7EodAghBCcUkpkvipLDiA6uJ8aXV05uSgjU5AbOZIRKcP6xCyDMMwDMP0W+hlNi3ZQOOKyZqamqTZVMmam5uPhFMaSstENidUdNgdblTUtmPTvnps29+A3YebkFvQjLz8JuzPb8TBggYcKmxEflEjCosaUCSsuLhe/K1BQ0Mr3K5j11noiuTMbFxw870499q7YGppxJL//FFaify5n9+Kgr3bMH7WGRgxaYY/ddcYYuJw+iXXY8FVtyB/73Y8+/PbpP08++it+OrtF/2pQmfUlFkYM32edOEve+s/0srnXa2Ozpx4aJFA6lKlUNLgfR5wwzAMwzD9GRIX77zzDl555RXJPvzwQ+zatQu7d++WBpQHwikNpWUimxM6e5XV3I6mmmrUVhTB3CxUp+dY1UnT50rdqPx07nzU0RXJB41eg5ETZyAxfYi0BkZXUMW+va0ZpqaG77VGpGblSF2mKJ4W8jNExSA2MUXqbnN8GM0u1W5qQWN1hX/rDijcEB0DY2wCmmsr4XI6xfdYqXWFoEHmFlMr1Fqd5C+AuaVJ2r/L2ZEnitMLX0xkw7NXHSXgI1JmuwgwUHzwbElcHj3B5cHlEQqDoTzMZrMkKigfBLV05OXlSeOHJ02ahET/YndRUVG4++67u1xUkssjMo7jhIoOp92GNiECmmoqxIkxhTQwvDO0oF9UdBwSM7KkxfV4ulnmZMGi4yiR9pAKMFB8cKWKy6MnuDy4PEJhMJQHxZHIoL9EeXk5vvnmGylPF1xwAbKzs6Vw+k2cMGGC9DcYXB6RcRwntHsViYTo+ESk54xGzrgp0niJcIxW9k7NHg5DVKzIeGgVKoZhGIZhGGbgQSJi6tSpmDVrlmTUupGeni4ZfQ6EU5quBAcTOciEavJRQfX0lpVWyty+O7fblg6G6a9QS0dOjAzTpk3zh0B6m0BqP5T7gyC1Ty0K1AIR6huFk+GD+rnSmwtqfg61pYN8UJ5Cnb0tcBz0piMUBrOPUBd3CsDlweURClweXB490R/Lg8JbWlqkv0RRURGWLl0qbXP11Vdj+PDhUjj5iouL69Inl0dkHIfMZDJ1HlrRJdSPbu/+Qyw6mAEJiY6hUT6peXagQQ8D6v+q1WpDEjZM30Krw9IDXafjNYAiAS6PyILLI7I41eVB3YnefPNN6S9BddH9+/dLFV36vU5ISJDCaSzHrbfe2uWYjoFCf78/uKWDYQTc0nGUSHszEmCg+OA3uVwePcHlweURCoOhPGgg+auvvnqM6KAxHpSeulcFRAf9vv34xz/uUnRweUTGcZzQgeQM01/hgeRHCfigPIUqbPpy4FmAgeKDfjzpoc4DZXuGy4PLoye4PAZ2eVAcDyQ/Sn+/P8ISHdt37YZZnQivLDS1xDD9BZ27HVnxehYdgkh7SAUYKD64UsXl0RNcHlweoTAYyyM/Px/vvfeelKebb74Zo0eP9sd0D5dHZBxHyKKjpqYGW7duRXx8fMhNNAzTX6CKeXR0NObOnesPOXrjhXJ/EIEbj0VHzwxmH1yp4vLoCS4PLo9QGIzlwaJjkIiOgoICfPXVV7jrrrsG/EAdZvCxbt06SVhfe+21/pCjN14o9wcRuPFYdPTMYPbBlSouj57g8uDyCIXBWB4sOvr3/RFWkwXtmCotbGwDzajCT9c3wzAMwzAMc+LhflIMwzAMwzAMw/QpLDoYhmEYhmEYhulTTrjo8Hkd8DprhVXB57FSSEcEwzAMwzAMwzCDkhMuOryOYthqnoWt6i9wWw/A63VzX3mGYRiGYRiGGcScUNHhblsOV/1fofLshVJ2CJ6a38JevQg2SxM8Ho8/FcMwDMMwDMMwgwmZ2Wz2hTKNVlFREVauXIl77rkn6JS5HutBeK1fwedYB5nHJORMLGAugc07Ak7Dj6BLuhQ6nU6aKShUrFYrDh8+jO3bt+Omm26CwWDwx3yf4uJifPvttz2mY5hgrF27FhUVFfjRj37kD4E0ZRy10oU6zRxBU9lR+lCmvyVOhg+ayo62ofsi1G0i8TgGig+bzSa9hAln6nEuDy6PnuDy4PIIhf5eHrR8w5IlS6Rtrr/+eowcOdIf0z1cHpFxHJICoJ3/UDzOSvGvCQqNDjKVcCz2KffJhRgpg7V1t7RWQOBAAlBliIQCrXYeDIonsbNs2TLpM2EymbB792689tprR+yLL77AqlWrjklHF+aOHTukz72F8ipEGTZv3iztLxhUUe2clz179khh77zzDvbu3SvNqUxQgTQ2NkrL99Px0v4++eSTY7YN2PHbMqeWcO+P3txPkeiDYRiGYRjmRBHW4oDLly/vsqXDbd4Gr+NryDzbofC2Ae1t8NksqDcnoEW2EMbM+5Camiotahbw1drait/+9re48847MWXKFCmsM83NzZKYeOutt7B48WJpW6rUk7ighQoDDBkyRFr4jIQNpUtISMCnn36K0tJSPPLII/5U4UNCobKyEn//+98xffp0KZ/Hs3r1atx9992SkEhOTsbPf/5zZGdn44477sBtt92G22+/XVq8hsTQwYMH8bvf/Q5PPfUU6urq8MYbb0iiihZiaWhogF6vR1xcnHR+adtLLrkEGRkZfk9MX0ItHVVVVbjuuuv8IUcXyAnl/iCoUk/lzIsD9sxg9jFQFj9zOBzSNuRHLu94w9XdJUw+6DqkazfUFm86T7R/ylco9MYHtajTm8OoqCh/SPdE6nFEug8Z+RDfKYz2QT0faD/H+x4o9wc/r/rmOHhxwP59f5ww0SG8wtG4CK6WRdCqPZCZWkQmLChomY8m+XUYNWYGUlJSOh4+fl+UUTp5VHkK5v940UEtDv/73/+kh9SHH37oTwVJgHzwwQfHiA46YbT/UE9yMChvPYkOugD27duH3//+9/jVr36F008/XcrnL37xC8k3iZ6zzjpLKozOomPOnDnSDx0VLvl49tlnMXXqVEmkELQtHWcoFVHmh8Oi4yjhPEACnIyH7UDxMVAqVfTSiF6a7N9/ADqDUfKlUornVjeXMfkJ55lG6Ylwt2EfoXEyfXi9PrjEb56dxKp4Jk2fPg3Dhg2TXrZ1hkVHZPlg0cHl0RPh+DhxokPgaF0Hd9vH0GAbXHWlqGzNQBMuhirhYvFwGSFVejpniH60/vSnP+GWW27BxIkTpUyTH6q8t7S0SCeWDiY9PV0SE//973+lytMFF1yA0047zb8XSGlJnLz55ptHRMeXX36JsrIy3HfffVIrxB//+Efs2rVLSk+tCX/5y1+kvoDUveu7776TCpAqnpSH888/X6p8UssMiQQSNVQAJBQo/Nxzz4VWq5X2RRW6zmJi3rx52LhxI55++mlceumlUv872m7GjBnfS0fQMfYkbJi+h0XHUSLtIRVgoPgYCJWqnTt3Si+FPJDD5BTPMZURXqUGXjldk6FXSJnBA3W5lvnckLvtULraEa1RQCGuoIT4eEybNs2famDcHwQ/r/rmOFh09O/7I7Q21RCRKYyQK+PEXuVwe7xo806D3DANiYkp0tuM4ys8dOIOHTokjZsgqFJOle+srCxcdtlluPrqqzFr1iwpjiBBQpV9ahHoDIkIEgidIaFBooPGgJCwofgbb7xR2ufMmTPx0Ucfoby8XBqoTj+giYmJuOqqq6SWChp7sX79eqliR0Jg6NChknC46KKLMHz48JAKjgrrzDPPlI6ZBrnTOA+GYZj+DIlXel7W1NWjxSVHizwGDn0KHJoYOJVGOBV6YTo2tu+bkkxcI5pYOPWpaJEZ0eIAamrrsWv3bqmiwzDMwOaEig65TO4XFtQEK0ydA130MERHR0sKqKc3uTSugQZ/04wEDzzwAH784x9LXZMCBJTX8c2x3UEtDR9//LEkJGj2HtqWVNnSpUulN9v0OT4+HmeffbbUKkJjMailhAQO+Zo/f77UIrJw4UJJtIwbN04SIz1BwiQzMxNjxoyRWmK2bt3qj2EYhul/UItZUXExiktLYfWp4dIlwKYSokOph0euhlc8/xmmK3yQSdeIW1wrdnHN0LVD15DFp0JxcYnUVY/G1zAMM3A5sb8SQlNIwkLoDZnPBa1GCZ1OK1XeQ+nWQaKAKvgTJkwIOqiPxAGJBmohCRXKDw1Yo+5Wzz33HF588UVJcBAkDGifo0aNksQBdVehJqtwpiLrCWohodaZwGxUJJwYhmH6E/TcampqkibyUOiodSNZVByjRCUytOZ6hjker0wpXUMOfZK4pqKxR/xG0jXGv5EMM3Dpm1dTpDtkcqE96AfpxLkoKSmR+vNRq0WoUKsEtU7QWA9qRelsZ5xxhj9V30Hdtqg7GHUZo9YO6p7AMAzTn6A30FarDfqoWFj0KVJ3GXpzzTA/BKonuMS1ZBEiVmeMkXomkDEMMzA5oaJDoRsFuW4y7BYzLBgGuTpWaj0IZYAsQeMv9u/fL421oEEpNA6CxnkEoHEeFEeDwDtDA7epC1UwqJ8ojdugQeQ0TS2JkICFmi+aepe27Q3kgwbJ09S3r7zyitRFgWEYpj8hPYvzC+BWGaTuMb4gz85tX3vwxSvuXtl37wOHd7bD3NIEt9MhaqMdsyQxAx/qcuWSa8S1pceBw/nSxCoMwwxMTqjokMn1gGYK3MaH4Iy+F7qYcVJ3qFBHzNMYCJoZiqaPffjhh6XZqDoPwD7nnHOkMR7U0vHggw8eMVpMr7a21p/qWKir1L333isNfnzyySel9LRvGrBOA7y7g7qEUfcrmh2BRAsNSKfpcDu3VlDLy9/+9jdJLP3zn/88Zv2QAJQH6r5FeQ/MesUwDNNfcLk9sLl9cCoN8Eot2EFe2PjUIlQrmRy6kEzmE89DYfS3rakFtRXFsFnM0lg7ZrAgk64pl7i2bC4vXK7Qu08zDNO/UDz11FNPkyjo6a0/TY9Ig6tpNicaFN4VPpkRUI8T4mMEdIZESXRQq0KwMR3Ud7OtrU1aGJAq9zT2gloEqCJPLR004xSN8aCuSTTjFK3zkZSUJImYwsJCqRWDjMTK+PHjj6Sj/NH4CZoidPLkyZJoqK6ulo6B0tP6GJQvGjtCaSkdbR/IE4kK6hZF8TQehVpraCEsMprJivIYmK6UWkBohXSab5zSUn4pDfkI5IWgY6Nw+kvTA9LxBqC0tO+cnBxpYUHm5EMzndEsalTmAehaoMpPKPdHABpvROlDGcNEnAwfgWueBG9fH0eo0/gSg9UHPV/ITzgvIE71cTSJZ2ejyQaHJq7LaXE1aiOGDzVi8ngdxozSYhTZSK14Jh79O2KEMPF3uPibM1yLYcKG5mgRm6qCxZoPU0sRouOToDdGdywmxwwK6LFErWdqrx0JMQbp97E/3R/B4OdV3xwHjfvJy8uTtpk0aZJUVwsFLo/IOA6ZqJz7QulqRIJjxYoV3a7TwTD9lcA6Hddcc40/pOMmopsv1K54dJPSA4FuVLr5QuFk+KD++CQ8aHKGUB46AR9dvSwIRuA4unsh0ZnB7IO6WJIfetkRCpFwHPT8zyutQZsuo8vB4/ExKZiYYcSIBOHf44PXR/sV17S4rjsWhvNC/C99d4u/TrcPHuFXLvaXW2XH6m++QGXRHoybdQZSModBEcYPHnNq8IlrzOtxib8ef0jXyIVYlSmEdXENy30exNiqkJMcI72g60/3RzAGio9Ie17RS2laDJq2uemmm6SJgEKByyMyjkNmMplCasemrki0iB6LDmYgQqKDxgtdccUV/pCBAz0Mwm3pYPoOatWkBzq1evYXaFzb4apGNGkzxLfg1xCJjjEpeqToPWhoc0jCQy6XQavuEA/NFqf4MfMhSq+Gw+WFyeqmiQ6RmWjEwVoH1n73JapK9rLo6Ec4rWZYW+rgMLf4Q7pGGxUHXVwK1Prvz0zZgQ8J9ioMS4rGkCFD+tX9MZCJtOcVvQChddYIekk4YsQI6fNgoT/+fnSGWzoYRsAtHUeJtDcjAQaKj/74poq6s+4vq/OLjuDERSdjtBAdyVoPaprtcLm9kCvk0GuEeBCXdqPZKcJ8iDGoYReio9VCb8i9yEzSo7DOiQ1rv0JNWV5IoqO1sR77t63D9u++gMN+dLYjY0wcbvvlX6S/TN/jdbvQWLwPTUX74HE5/KHfR6FSI2H4JCTkTBDl2vU12SE6oqRuxtzS0TOD8XnFLR39u6VDThUdShSKMcxAp/P1TvdGOPcHGRHONifLBxEsrisjIvE42Efw+OPtRPug8J7w+bzih8oHt/gBcnnEj5CHBgV7JPFBYsPpIvOKcPFX+t4xaNjudIt4tyRAQqGqOB9bvv4Um1d8DLf4oRszdQ5mn3s5ho+fhpb6Guxet1KIkt7NNsiEh1yhhMYQDZXOCKfF1KWpdNEiXYxI3/PCusSJvHaDGaVlH8Hjj7dI9BGgL32QsY/g8cEsZB9SSoZhGIb5AfiE4CDRQdrBI4SF2wNJfLhoPIcIo0mJAgJEaJGOzx4hSmish0hM2/ZEe1srDu/eIrVwVJcUYNqCCzH/8hux4IqbMP+yGzB1/vmoLDyIloZalBzcg01CmHS2gzs3SsKE3uK1NTUgd/Nq5G5ahYqCA2iorsA2sd+Whhq/N6ZHRCVDF5uM6LRsKNVa6fsxiO9KlUaK18Uli689i1eGYQYuLDoYhmGYH0yH4BACwkcDxIXwCBiJEMlEuPhLg8iPhvlN/ENN9D1RX1WK4v27UFtRgpjEFMxYeBHiklKluOTMbJx99e1IEn9prY89677B54uew3cfvi7Zkhf+iGVv/FsSHk67FTVlhVj+5n/w+eLnsPnrT7BzzXK89+zTQrQckvbHhAaN0TAkZkAXn/K9QeL0ZlMfnwpjYno3YzkYhhkssOhgGIZhfjA0g1GgpYMaLaS/JDSEmHD7BcdRO/Y7iZVQule1tzbDZmlHTEISJsyeD5Va44/pQKs3YOGPbkVyRjZSs4fj/BvuxpP/+1SyEZNmoChvF7Z/96XUykE+CavZhEM7N0vig9YIYcJEJoPGGCuN2VAc131KrlQjfsQkqEU8wzAMiw6GYRjmB0NjOjyiIk8tGR0mPgtFQbNY0XfqZiWF+cM7hIdfkIjvobR0mJobhUhokz531VVHLlfAEBuPCXMWYPpZF0kD0smGj5sqDVCngectDXVHRIfIOXLGT8Xj/3oPv/zPEgyfON0fzoSKQqWBMSENxuRMKDUd6wcoNTrpuzEhFYrjxCHDMIMTFh0MwzDMD8ZLQoLGcHhoDQ4P3C43nOKLkwaKC6MZUchcTlrU1Q2P+Exig0QJTekcSkuHRqf7XutGMJRKlSRQdq39Gu8///8kO7BjPdrNrZLYcLucpJKktBqdAUnpWRg2bopktDAhEx7UrUqp1SN+6FioDTGSIFQbohGXNUaEG8R3rmowDMOig2EYhjkBSIPH3R2tHdTVyuelGamE0PDQ7FQdC8iRkeBw04JyEOrEP+bDK7YNpaXDGJsAnTEKDpsVjdUVYrtjF6VzCz+lh/ZJ3aj2bPgGO1Ytk8Zo2K3tkuAJJmzUGi00er3/G9NbqIXJmJIFfXwKtLGJ0liOKPGdwhmGYQgWHQzDMMwPhloQyOQyH7RqQKOWQ60CFDIK80IjPmtUMileIX551CoFVBqF0B2yDsERguiITUhGbGIqPEJcFO7biebaKricHetDOO021JYWCaHxpTSl7t6N30pjNE6/9Drc+MjvMWPBhUcGnTN9AM1UpdYJoZGNuOyxiErNlrpYUTjDMAzBooNhGIb5wXS0Ovig0yiRGKuXLC7GAINeB71Oi/hYg2QGgxZRRr30OTba2LFYnKQ5ehYdNDh83MzTkDNuCuw2C1Z9/CYaKsukuIrCg/jwv3+Crf3oYHCVRitESgrkCgXaOo0HYfqO6LRhSMyZiOjUof4QhmGYDlh0MAzDMD8Yi9WFgoo2bM6rx85DTdiT34x9Bc3IK2zCgcJGHBKWX9yIwuIGFAkrLmlASUkdiour0dZqgYdGm/cAjRUYOWkmzrvhHsw593Iczt2GRX/6Of76wLV4+x+/kVo+zrjsepx+8TXIzBmNmtICfPCv3+P/fnYTCvftCKUxhfmByJUqaeA4/WUYhumMzGw2+xSKnvtcFhUVYeXKlbjnnntgNBr9oQwzMFi7di0qKirwox/9yB/in8ZT1FJCuT8CUL9xSh/qIlgnw4fdbpe2MRhoQGdo20TicQwUHzabTRo4Hc5z9FQfR3FxMQ5WNKBJm+EP+T7mZjNa6+tgaq6Dtd0s+ZcI/BHfpY/S34CPjkgSHA6HCTqjFiMmzkBiWqbUOtEVdku7tFYHLQRI4zgCaLQ6TF9wofS5LH8/qooPS58JQ1SMlFaj1WPomIlSWOmhXClfqVnDkZEzSgpjTh0J9ioMS4pCVlZWv7o/gsHPq745joKCAixZskTa5vrrr8fIkSP9Md3D5REZxyGJDlrAp6eEoYoOyqzd5UJtUxPioqJg1OmgDONgGeZU0J3oCOX+CEA3XmC5/1A4GT4CokOv14e8TSQ9pAIMFB8DVXRYTK1oqC6XVvamz+Gi1RsRn5wmBMAwacB4qNcqM3Bg0RF5Plh0cHmEQqg+ZBaLxadWq3tMSAW9fPnybkUHZdIqKjjVzc3YKypwWQkJksUaDNCE4IMZSHjhddvQWlmKBnkiYmPjkBKt9seFR11dM1rbHUgakoZYFSDvg8uIREdVVRWuu+46fwjgEuKZbr5Q7g+Crn+q4KtUKiiVSn9o95wMH+Ieh9PpRExMTEgVuYAPylOoD53AcWg0oc3HP5h9tLd3zKQUGxvagmmRcBz0/M8rre1WdNA0tHarRZpZykVT0oYJXc9qrQ46QxSUKv69GIwERMfQoUP71f0RDH5e9c1x5Ofn47333pPydPPNN2P06NH+mO7h8oiM4zihr5LsomJT0diIXaLyljRpEvJaW7GzuBhN4i+dJMoYM1iwwdaai6WPnItrn3wZL68v94eHz8svf4brfvI8ltaIvfbc7ZthmFMACQVjTBwSUjOQmjk0bEtMG4LouERpHQ4WHAzDMAOPEyY6qIWjqLYW5RYL0seOhU8opFihQKv1eqwvK0NdUxMcQpQcIzw8NqDmM/z7pzfiirlzMVfY/HMuwp2L9yG32u5PNAAw7Ufuqg/w8198jkNtdnQcmQnVuavwwc9/gQ8OtaHjcCnsMyy+5xycc89ifJZbLUI6aBVi7vFLLsF5/vM0d+75OOeiX2DxvsC2fpztwM5/47G7rvCnE3bW+Zj79Ne44eHP8c4X+9HoTyrRuB5fvPMB/u/f6yHq9DRzvp/gecndsAF3iH2ecSQfV+Cmn/4bn4uN7Z2mzLdX56Ng2av4b8LDuPfmK3DHaZn+mA4OffQYnv7lI/ip5Ncp/O7ER4/dJe27Y7/zhd2Jv3yWi1mzY3HPPDde/MfnKDQHzh/DMBELiYZwjWEYhhnQ/GDRQSKCBEehEByNHg9UycmQG41wyOXw0N/UVJSJv99WVKCmuRk2h+OI8LCZHFj6p1Wo14/H1Ktuxs03X44rLxsHR3E9XCYhSAYKGj3kbjtkB7/D3jo7WqnngbUa9ZXFWJOvhkEjg5p6ykhhhfhuvxuu/atQVFWPaqu0B7i9ChxuSseoeRfiqpvFubp2IS6Z5sGmfyzFzkPVaBBpnI1FKP76P/jV3w/CNmQ2zqd0wq6//FLMatiDQ4cKcaChHUeHXQpcLWioqUVJeQtotvsjkrCLvJidOpRZh+P0K6/FtbT/q6ZinK4eX/95KXLNNgjJI2hAXckhrH2vDmNOPx+zJ49AZqxWinHb2pC/9Eks33UAW/OtaJH80sDSNtQe9kIbPwVnSvm+UdhFmDMyGVMmjxb7SMbootew5qAFdR1OGIZhGIZhmH7CDxYdbiE0iqqrUSvEhDs6Gqq4OFhEONULTTIZnDExMCclYZ/bjb2VlWhsbZX6ixEOmxebPm5B3OTzcPn9D+CBB+7HvT++DVeICmaKUYmCggZs3lEBmnVdqgxby1GQd0AKa7S78c23+dix5lOs/PxzfPHNQZSIsJVHwhZj8eLFePOd97G2yIpmu/DXUIDDGz+RwjvsE6zcUoAKUZm225349tvtWLNsCT5fshhLvvgKm0vqkLfyXXz6zmJ8vnY3DnZuIqC8bFmJT6T9vC7sC2w8XI+GjnWqjkWTjISkRMxIK8HOglY0md1AWx0sVjMqh87DyDg1ooTocNSXoqGhGbXZF2JBQh7qqqtQWu/foVwNJM3Cgh/dgrseEOfq/htx67Wj4VyxA5WVTaLKLs53XS32rfwWOzER8y69BfdTOmH333Mn7luQg6x47VFR0QNd5kUTD93QBfjRXffgHikfl+PcyXFo/HgzKmxOSBrJVIaqshKsrByG82dmIyNeJ+3Tba5Dw/6VWLGnEo644UhNGYJjeyVmYdSsi3GNlO/7hF2NBeNSkZKSjfShw3BhWiF25YvzZxLnj2EYhmEYhuk3/HDR4fWitLYWbp2oWBoMaPf5JJFAc5e0iM8mIUpccjl8Ii6/pgaNLS1HRIdcLkNUnAbe9jJUVpejpFEFvX4irrlmIjIzo7B+fTHeXrIbTSKt1HOnbQ/Wr/hGCis1W/HcX5bg3Tf+i7feeB9LvszFQRH2zyNh/8K//vk3/Otvv8ezX5Uhv9EJS+1+5H33Fv71LxFH9pdn8fLHa/BduQ3tYtt//eVtvP7Sv7H438/g+X89hxc+24yv3nkJi//xWzz3+mf4dK8J1EhBFffG/duwZslbeJn28/wL+Nf//Qdvf52L3GrrsS0JEgbExsdj7BQltu+vQVOrDc6mOiG6WqGbNQVJahU0YqvmsnI01pmReNa5mDvBLiru5Sgqaw6yP4FCAZleC41BC61SDhq609woR+7+OFz55LU4fVwmkjtSQqXXY+w112BUoh7eigIc2LsXewN2oBQVjWapleMoYeRFpYRc5EOr10AjRCZdUJ5qIS4bG3Fw6ukYn6ZBjEaEWZvRULwDOzd/iwPDf4ULzzodZ4yI6tjHEUxorS1BgchXbt5+FNRZYHHSIA46f5mYMG0kyuvq0W4bQK1gDNNPkPm8UHkdbGx9ZnSNMQwzcPnBokOjVOK08eNhFcKjorISbUJokOBoJvEhBIfVYoGjvByq3FyMF8KE3nnToHJCrbVh3oVf4aO/Xo8rb/4NHllyUAoPCVc7cPAl1A19ENf86S28/s9rMVOEqY+E7cCOle/h0ycWYPuyFcgrrwYmXI4rn/oIO3aIOLK3rsWE9HZ8ukr4dYk8HSxFyiV/xC/++ix+MS8eX/3tDdjv/hDP/uMXmJ/qxupv1knjHuixuOSZOrRHX4Pf0362rsKOz38EY/4B7FmTJ4mk49HpDEhMzUR+dR3MVjvKSw+hrHAPhmak+Uf7N6K8yIT6ci3OOX0YTl9wCdrKm1FQVB50f0JhwLZ7G74angJ3lB4xIqjBbMDG/KFITFQIfx3JjqHkE7z/h9tx/owZmBGw8x/FH97fhFJ/kg66zssx40GI8lLUVhZh5dghiFcJvyLI1NYMp8+JCfNnIUuj6gjL+wyb1q7AIt0v8PsrRmJyerAMCpH38iO4WeRr7pnn4ZZX92Gvf8DK8eePYZiTi8ZjRbK1jI2tz4yuMYZhBi4/eMpcGp9BLReldXXY09iIEpoya/RoqXuV1WSCs6gIMUKMjBfiJDslBelpaUhISJDWDPB6nGivykNFswvttYeQt3MDXvmmHFjwKP5x8ywcXpePnYfq8PjfLgMNQ1bWfI7F75RgZ/0w3PH4Avzu+n/iiseuxflnjUOWVlSVG0y4U4RdGghzFaJh78e4/k8a3PPry3HuBCsqVn2OZ//yGQrF/tyWOlTpZmPM+bfjnw+dhieu/x+ueeIynDuuHgXfrsVv39AIuxczXF/jvQ/KsL15JH7jz8vTl96MlXt2wJYRCwO9nXGKinr1LFzy8O148IkL0LH0VCdcVWgu+RaPXVWAhc9eAGPNQTQdaED8k0/iAnE6dc3f4b2392FHZTJu/cOVGOdcgb/dtgLtYxfg3J/fgEmuOtw5/1JUqV2QRWmg1KXCmLMQt957KRaMS0e6UYOtawvxpz+swJPv345JiUYc347w+IOvwhcjx1mXjkeiP0waSL7aihr5lCPHpmzsOi+6cclY8dDdsA1PhEophzxmDIbPOhc33nIuTs9JRJQIa926GKu27MRbhsex+IZMJBiU2Pven/HWS89jUUUahieqoXS3oqHJAYt2LCZedi/e+/VceGob0dDaDgtaYGnZhyVPHML4Jx7EwgumYLxMlGXuJ7j+H1F44BcX4Zw52YjuOIITAk+Ze5SAj0iZYi/AQPHRH6c83Lx5M6qrq3Heeef5QxjmxENrgdFzil6I8ZS5PTMYn1c8Ze4gnzKXKkpU+UmLi8NocRJSReWm/vBhtDc1wVVYiAQhRkaJClJWUhKShUVHR0sZI+QKNaKzpmH8lNmYPXcBzj5vIa65eAyil+1ARVUT6qVUXSATB2bIRFyMDsaOMcrfD5MrINNqYRB5pNOw+dsCfP5VHeIuvhXX3nwrbr3xfCwYk4FkhxMOGXUBEwJCr4JWKyp0eqMQV7GI0cmh1KqhFscYcEM4UidgzILLcOOtYj+33Y5b734Mv/7dzbj2nLFI9ac5BlU8NPHTMH9EKZxNu7HHrEVd7BTMEjVntSiFtsJcFOxfhZWr3sE/HnsEP3vydXy9Zy12lBZgb2EbIM4VEqdg7oVX4fqr5+O0YbFo3dmOxGxR0ReCg6qfWmc7EuoLUF7vhiXYNPnaZKTmjMe02eJ8B2zaKOSkxhxzbN3lJbdCBm3WPFx43Y248fIpGKnWwFHmRsqoZOhIhPj3cTypU87BJff9Fn987G7cefttuPWaszBv+kyMHjUNF541GlpNAlJGj8cEKV9zMXPadIzUVsPhsqKdGsbc4iawmtEUbYBCXE+h3QoMw5wI6EeIFqSiHzo2tr4yusboWmMYZmDyg0UHQW9P9TodhiYmYoJ4cGS0tUFdWYmkxkaMEHHDRXhycvKRFo6AErI7Pfh2ew3qaZR3TDaGTj0Td145A8NsNridLtgtdrjbLEcGklsb6tDc1ioNmu4NB4u9KGgZgnN/cj/uuf9+3H7xdEzOjkZvJms0CoEzdMxsLLj2ftwv9tVhl+CcmdlI8qc5Fh3U2gzMXihH6e712Fcj1Orw8cgQR6YQR1i2bx9MNiuihqRCZXfBYU/EyMnx8ClMyNtXDrNcDR8NJL/qZtz5k/tw33ULccXQBnz38Vbsq2iWprNN0FkwJT4fXy/Zgn3lHWGERwjBmu3bUdfSLA3y7xo6y93nZV++GZ6hC3DlnXfj7vvvxT2XjMMERTk+e387SqxOaTpbjUYLhUyJhopqtHm8IM2QMnYmFtzQ6VzdfhHOmnc6JoydjavOHw5ty24crGxGBWWaBIbZIspZCFSDEBhCYbhFfsy1lXBnpoprSMuig2EYhmEYph8hp2YRakYJxbqDhESUwYBRSUk4Pz0dI1taMFV8H51Ksw+lIFEID4P4Tq0igW4kVqsdb7z9NVav3dwxqHnHPuTtLkfbrJGIT4hGlqsFyoZ8bBVxe4Tt2pGLw1V1aJG2Dh9DcjTiUlWQVe3FgX0/bH+jFXkwF2zFym87Dco+XImq5mADyTtQqZUYO2ckCjcUwFRjRtb4bFHPF1VyZyn2H2qGYcRFuP/Pi7Bokd/+fDfOy9Kibm8eSp2i4u3fDww5GDlzDu65Kxrb//sevlyxFburmqHLNGDhdckoeP89fLN6Ldb587Vrxy4se/dLUamvkwRcl4SQl6a9+1Er8uIhfRIzFWdcOBVnTrHgqz++gc+3HkB+kwWymCToVXo0bdyCYrMTlp7GBrptQNHnWLFqE5ato+tgG3K3bMQ+23gYo2MRb/DA0t6KytIyjExPRZQ+2HiQE0Pn653ujXDuDzIinG1Olg8iWFxXRkTicbCP4PHH24n2QeEMc7I4kdduMKO07CN4/PEWiT4C9KUPMvYRPD6YhepDTv84HA6pP1Z3FkqTJ7V4GPR6ZAuhccmUKZg4fDgyMjKOCA4SJp37rWvcbZhf+hv88Z7zOgY1n3ELrvjZdoy78yKMGZWOy+Y1Y1LCEtwn4uYJ+8nHhTjYGo+h/u3DZVrcJsQVPIpLxb5m/8D9XffrqzAhJg9Lbu40KPvqP+L/Pgs+kFyCupXNnIe5cZfgwiFjMWGsCPOIGnz1Nuy2L4BxyDycRWEBxk7EWI0How/twbYaoQc6Lb6HeCHMznoArz3UiJ0v/Al//7/PsE0zGeNv/hvefLRVhN2DK/35mnfh5bivcRQsSECKf/OghJCX6SIvrSIvvkBess7AzEsuwbNX78E/f/QQXly6F3kxtMJwKs7OW4fcCoc0XXG3KJRARhZq3nwSf72SroPLcMkjb8P487swY/wIZMGE5oZi7NqYjzRxLVGrWl9ATfudr3nqNxnq/UFG6eimo3slWHwwi2QfNA4kWHwwC/gIFhfM2Ef/8kH7Y5iTBd+DwdMcb4PRB+2f0hN8rnq2SPMha29v99Gg1J4GsdJA8hUrVnxvIHkwyDllmv7SfkmMkB3vw+t2orE4D7VmF2zSNaSEQhWFtJE5SDSIz9YGUdmsQUl9xxSpupgYKBVG6LUGJKXFoLK4EUnpMYj2j2lwu70oFmGJgTCvuDhtLSiuBBIz4qB2N6K1thJV/v5ZXe5PK/Jjakd1oxyZOYnQedvQRIOe3RqkDRH7EdvKnLSoXj1qaltxZAJXXTJS05KQlmSU0nwfUoPtqDtsgk+cw6jOg9BrvFAZjEg4ZlsLWquaYTKJM5OVAVNlI5Izjh6vz+sWmxajuNYNeUwSkoXvWGUgzAxTx0kValCkjs+GTpyfpHj9sT7oOALHlhkDtchLRTd5qa22w6qNwcgxQkiqOsZweB1mWBorUCDESFxWlvChhPPwOmxY/Cx+a3wY/7xpFhaOiuvYTYBgfotr0WyySdP3ypVqkeUJSItRQV+3Bt99/S0eW6rE759/FKcNiUa8qmM3J4rAQPJrrrnGH0LXU8eNF8r9QQRuOmrNC3XA1snwYbVaJZESFRUV8kBy8kF5CiU9ETiOwHitnhjMPmhgP/mhAbOhEAnHsX79etTV1eGGG27whwTHZd4Kt3mzuJaVUCXeALkiFjJ5aNcpw9AAYXpOzZkzp1/dH8Hg51XfHAcNJP/ggw+kbW666SaMGjXKH9M9XB6RcRw/ePYqhgmGy1SG6tyl+MN/1wPTrsdV55+JiyYGH+3SE8vffQ+ffLcLsgV34jc/Gol0vVISXScSnr3qKAEflKdQhU3gOPr7zCAnw0d/nH1k3bp1qK2t7VZ0uNs+g8e8RjgvhU9cyzLZUHijroXCMAEqtSGk65sZ3AREx9y5c/vV/REMfl71zXHw7FWDfPYqhgmGKjoVqVMuxm1zhyA9Wg23t/d9wt1GsY+xs3DrhWORoj3xgoNhmB+Azw2PvQge22bIPPuFsG2DXGYF2j6HrXEZbKZ86UcsbKzlyN+3H5u3lx+ZTIRhGIbpv7DoYPoIDTTGETjjwWfx+3suw2WTA+ujh89ll52O3z92Dc5IFHvlK5ZhIgqfzwm3aSsUKg/k+mjIVDohPGKgkmvgbl0LS/MO2Gw26W1YZywWJ0pKm2F1e6WOp9+jbQ/Wr/gWb3+4RxonJw0jszWitjz/6OQdZMV1qDMFmyM8dCwmEwrEvnKlfRajvM6ERhFWmLcfhXUWWJz+HHrFsVobUVrSiFaRf1NzLSoPd8pLJ8sV2xZ03pZhGGaQw1U4hmEY5gcgg4ym9PY5xCcH5D4z5PbDgNsBl8MGm9UiiQ5qru/M3r1V+NmjS3GwzSZNtR0SB5bg5V/fcnTyDrIHX8bL68v9CXrH3vXrcYvY11xpnw/iNy+vx3si7M4zz8Odr+7D3mp/Dm1VaD34Hh752XtYtbcam5a+jGeu7pSXTjZXbHtL520ZhmEGOSw6GIZhmF4jk2mgjFkoBIYKLksrvE4rvDYhNMTfyvZpaHGMDDqeY+LEdPz9L5dgTIzumMVJg+GxtaLms8fwwP/bg/KMO/Dqhg3Y4LdX50ZhrK8Mh/xpe8PEaUPxj1cexIxZD+IP/30MD995GkYbkyHLno0hG/+DnQfzsT+w8JHPC4+HWmd8GHfpnfjlOyIfa7/Bhg8fx/WXP4if/Op/WCrytfrrL7Do9vGYlNbT0TEMwwwOWHQwDMMwvUcmh1wVD598DHyyNPg8HjgsVlS1pcGpGAO1PkMaYHi88KivN2PV6kI0OdwdaxBZSlC08V387YEH8JCwB574H95ZcwB1Isol0uxdlQ/V2OmYc8GFuGj2bMz220VXnIPxxnocevcPeIC2k+wP+M9Hm7GvjQZeOvDSSxux9LVn8J+//BV/f2ktDot9dp4EOCpaj9ETshETm40R44cim2YWVMZAEzsO5013Y3t+CbblN/hTH8WYlIlhk0Q+Zs3E7Ck5SE3JRtaw8Zgm8jVrxjSMz4iCkfuEMgzDSPDTkGEYhvnByFVZkClT4PPJ4HDJUe+YC130aMTFJUKr1X5PdNTWmvHl8gOot7ukBVXLd+3Ehk+XY0OJA+1WBxxOES61KEB8lmPz9ljkzJ2GGTOy0XkevKQJE5CVlYl4t9jG4beqPdi6OxcrDjTCbrVi+Ztv49ttRShqcsLp8oQ4KF0FlTYF488/H0nWvajJ34WDXS7CxDAMw/QEiw6GYRjmB0NTJdKUzEJzwCPTwKk+HVFxOdJUzTT1Yk9T5u5cV4bNe1Q4/f+9iuf/9ype/cdPcfvZE5Am4lweBfbUZwsRoEeMoSN9ZwxZ0zD94nvxi5/+FA8K++l1o6D31WHtlkI4adHT+q3wjLwJlz70Gzz14EKMEduENAueSgeMvQY3DCmFsW47lu9pww8bss4wDDN4YdHBMAzD/HCEqCBZIfN5RYXeiSijFkaDQRIcoawP05wyD8qpV+CaGYDu+DWpVEIijM1GUpQQHf6gYzDlYc8nzxwdDH7z3/Dyu1tgq61HtcoIz9j7cPbsHEwe4k8fJmMXXgmDOwolK9ehWnyXZtJiGIZhwoJFB8MwDHPiEMrDJ1PAB7LuWzeOQYiWjkUF/d87oXA5kH1oHcpKGlERGNDdic8/KML73xhwxUcbsWLdRmz8/K944uo5GBroRyUTP3U9tLR0S+J8nDlFh9OH7MbH2wEbN3cwDMOEjayhocFHzeI9NX2XlJRg9erVvCI5MyChFcnLyspw2WWX+UMgTfFJFsr9QdA6BLRSaKCbSSicDB+B1UWDDeYNRsAHrXgeSnqC9k/bUb5CoTc+PJ6O98v93UdvVns91cexZcsWtLS0dLsiuddRCXfra3A0fQhzaxRqlU8jbcgEJCQkSNfe8WzcWII//e07/L/FN2BsggHL/u9TbNpRigv+8wgWxAGObc/iuY/rsE82D394Yh7yf3knPm6fgwnXXIrrr5yILP9+ysW9+++3tiDPE4sn/3UvZoqfJ/vWo9v+6hdn43d3voc7fnU2Fs4bhnj/dsdgKUHjwc9x5++AW5+6TEp38Lj8KerWYfe3H+Ollw5infds/L+/X4tLAvtzW4DK9/D43y1ImT4HN905W+oWxoRHYEXymTNn9qv7Ixj8vOqb4ygoKMDHH38s5enaa6/FiBEj/DHdw+URGcdxpNZCG/VkDDPQ6eqaPz48mHUmWHxXFiBY3PHWmWDxwSyctGQBgsWdKAsQLK4r6016IlhcV9ab9ESwuO4snG0CBIvrynqTnggWRxYKck0mfJrZcKouhEN/MQxRiSELXWJ0ihWZ8v14/9VFWLxoET5eux+H62zSQHK1Xos5t5yLEeoS5H/7Hl4V8Yv89uryHai2VCNWkYeNSxbhzcXHbhsKdTUt+PqzLaiq3IJVX2zClt0VaPTHBdCmjMaQ4VMxXdeEVpkXDn840zcEuw6DWYBgcV1Zb9ITweK6st6kJ4LFdWW9SU8Ei+vOwtkmQLC4riyc9J0JFt+V9SY9ESyuK+tNeiJYXHcWzjYBgsV1Zb1JTwSLO95kFovFF8oPA6nL5cuXc0sHMyChlo6qqipcd911/pDetRDY7XaoVCpJ8YfCyfAh7nE4nU5pQG8orSMBH5SnUN909Obty2D10d7eLr0Vio2N9Yd0TyQcx7p161BbW9ttSwdB1xldb1arVdoX/VZQHoJdd3v2VGHR69vwk6cvwLBYHXTl67Bu+Qf42f82SfHD5s1DtGYcRmdNwG0Pn4kUEday9jksWrIC72+iiXT9zLsPF6eVIbPmK/g3PWbby2+fhRefXoHL75iFWZMzEN2R5Bj2iOP7+89+hgLx2YV5uPi+6zB+9nBs6pw/SthcgIadH+HGTzPxk3sX4pzA/jw2oVxW4Lk3bIgfNxEXXT4RiRTOhEWgpWPu3Ln96v4IBj+v+uY48vPzpeuE8nTzzTdj9OjR/pju4fKIjONg0cEwAhYdR4m0h1SAgeJjIIuOcBAuJb9yuf+6F5/pu5ciBB33Q8cYjyP3hhRPXfk6vkqIuI5Y2l768L1tvV6f9FcKDgL59Ynz5fcMmcgT/XdM/iSkTMPjk0H+vf0F/Hfth+keFh2R54NFB5dHT4TjI7RO4WHg9njQ2NqKr7dvR5GoxFlFRgL9wxiGYRiGoIr5MRV6qsQLUUw/WmQkkCn+iOAgxGe5vCP+iEnpyI6GHb9tx2fpY1AonfzIPsW24julP1ZwEOK7TOQx6P46/H0/nGEYhiFOqOhwCfVVLwTHgZoaeBITcbC5GYeF8DD5lRnD9IwVjUUbsPzZx/HoW9uxr8rsDw+fF1/8BP/5cJO0KjHDMAzDMAxz6lA89dRTT9PbnWPeJgWhWQgI6mI1ffp0qQnleEhwNLS1oUKIjjalEsbMTDTY7WgmweFwIEZso1Sp/G+CjvVlLd+OnVs24Ou1W7F7927JSqwGKHVRcLfbsGlLKWIyYqFWygfXHL/WcuQfqkR+uR2xGTGgsy4TlfKG/EMozS9HS2wGYkWgXEZhO7F78zZsKJcjRZwrjf9c1ZWXY9VHH2GTOKe7pHNbgNI6G+SpgW0lT4C9Gdaybfho+Vps2y72RWkLKrG3RYeK/VXQRGuhM2o6FtTyCQHZXoDtO+vQbJMhKsEAlbQTInheCsX+1ixfjs1SHshK0OBUQh2fgJijG8PRkIfcLd9g0YrD8GTNxERNGSoPbD/m2pCswowmnxJDDA3Y9dFybNi2HVuluAPYf6gevpQM7Fv5CXLLmtGsS8eU4YHzFxyaucpsNmPChAn+kGNnZOrp/ghA4jrwpjUUToYPaiql1sZgq0J3RW+PI9QuX8Rg9UFd3cgPlUeonOrjoPuDmvUnTpzoD2GYE09eXp7UpWPIkCH96v4IBj+v+uY4mpqapOuEtpk0aRISE0MbPcXlERnHcUJEB3WpajKZUCrSNIv9JOTkwCH26Y2NRa0QHtWNjdCJAzCK7VTiIAKZ8nndcDWXYc/Xb+C9jz/Fu8s3YOe2rdi2bSPyLBlITM2E2mHHh0v2YNzpOYjWqjpVbgcBbaKyvXQLvt3cjGELJiJenDaFuxw7li7D6lX7YZ+1ACMNgMpDYa9h8b/fxdv7NJhx9mQkGdTQiiLdu2kbfnvPo1hzMBfbd2zH9s17kV9mgSt1HIZn6KETgsBnbUZL/jbs/PJd/P7tZdi4cQt2bNuGTXmVWFVmwIYv9iNnWqb4IYjrGEwpDZpchudeOoxatwGjpmYiSsqwwBU8L1+//h6e/9M/sE7kg/a9fWMeKi06qFOHIUfkIyCoajYtw5qNh/DdiIfw2h3TkFC1DEs//RiLP14lrottkq1Z/j6WF9jRGJOOC7Py8b+rf4f3t2zBmr1CWG3bj32HzEg6/XRcM6YRjaWl2LjfhPHzpiBJOFF0cZmz6DiWSHpIBRgoPlh0MExwWHREng8WHVweoRCqj9By0A2UObPFgn2VlTAJUZEwbBhElVRUHwELVXCystAk7MOSEpTU16Pdaj0yxsNja0X10kfw6+Ui3Tl/xYodO7Bjx1Zhn+PBkXoktpQjY3IGnv/nFRgXmD1kMJE4DjkxbmTb9mBbtbjY6LQ1HkCRSYly7VTMSheCg8bsSGEG1GEEzvasQ261A81UCETUcMTP/zUWf7ce6+n8fvdXPHmeAd/d9S9sbGlHi0jStu8zfPLff+H65xPx8JIV+EYqhx1Y+exT+B02oRJOBFmPKzhd5SVlHmbe+k98Lva7lfa/4kGcg2qs+tMS7BDRHWttHcTezRUo2xGHe6+ZAYNOjcT5P8Pj/1om5Sdgb/3iDNw+LwbDUpLENnRVXIR7n30fn0rxq7Bm5T/x40mxyJi6EPOGWDCj5VN8KJzwgl4MwzAMwzCnhh8sOpxC3Ww6cEBq1dCkpEhCg3rhUzf6FqGU6LPTYIAnIwPriopQ0dAgKTXC1g58/JIX02fNx/kLJiFZqCSFgka/Z2LBtefhtNMnoDq3Go/98nMcarPBLrb54tUN+P3PPzymorrh1ffw8gPP49vcRXjogoU4d/ZszJ59GW544N/4rEb4EZX1F15Yhz//4mH86WcU12E/E/vaUAHs3VuNn963CG88sxA3XN4Rd/mdP8cLwkm7cNK47gX88+HL/NudLuwO/OmzXOSJmvjevYW47+7f4Zm7z8Tl587Gbb/7J57/YCkW3T4bC0876kOCWghqPsML99+Ay6R9nYuFFz6ORfvaUE0H9z0SkZUTjaQsG9Ztr4HTJQ6koRZIiIJ2yjgIzYEOzbEbJqUR8fOmY3r6PmzZVY7GFv8OSfjJ5EcHScbFwZiUhCyPTyp8mmylotgHu2I47n/5QZyVEINEf9rEUaMw76c/xWSjMeg0k8HoMi/+fEh5IEtOQXx0NFK9Pv+MMYKD+3DIIcfh0VMwO10GNR2c2O7I4FJR4or6L7FqbTZkylk4d35Cx3Y0gPOYwaXyjm5UMnH+ho/E0FHJKK2s4QkNGIZhGIZhThE/WHTQzCGZiYmwm81oamuDSQgNeitOgoM+t9vtcDQ1QV5VhViq9LlcUjMM4ZKpsFc5CSPHDMXYTIPUxYYqkIAGsckJiIk1wNHuwOH8BrS7vaAqY4wiFwr7Gmw5TIJHBJTvR25TLT4ucGPHs8VIvvAqXHL77bj92pmYmGTCN29tQrXVicLtX2JfuROu0SLu5utw+9wYFO7Nw+a8UlTVl2D/qvexV30JZl4g4i+ejjGGNnz02SZU2kVFN2sGZp17DW6n/d58tdjWib2Hi7CN8lXfjPy1B2AZcyXOmjkM8qLd+HrlflhmXoerZx71QSLMZnLh02fy4MqYiQW0rxvPw+VzZNi8ZBMKypqk1qFjUSMhMQ76WB32FlSJ4/WgPH83bI5WJGami7PkFWerSfhogs8bjVmnT8bU8aNwcOsBlDe2BtmfoKURbW1NyMtKFudSIfYBFFdHoaw1A1POGIJ4jaJj3IZApdcjJj0Rxqrl+OD/foPH778f95P99GHc/+u38W1+jdRS0gEtw9V1XiwdiY5SW4UanwMVKfHSfPZ0IbZVl8MVpUPi5PHIERlTSsrhKG67BYdXLkZZ0lAkj5+KKTQoRZKe27DsxWfwO5G3x555Hi9taoLFKS0pJs5fCqLi43G4ogouFh0MwzAMwzCnhB8sOpSi4jo8PR3xMhlsjY2oa2hAi9crCQ6LEBz22looS0uRKQRJttEIvX8wOeGVK9EqKpCx8aJyq3HAXHcIuz97FW8ufhWvfrQBm0Wl/viK85gRPuQMtWL1tmo4nB407i+EPVoNV0469i7diTq3D17hQ6W0w1RXgq1Lt6BUCAe7z4vorOmYcfFP8JN7f4yf3DQf8bY2tNTUwSryqlBpkT7nNlx1s4i/4yqcPSkDTbkH0CZEkjo5A8nxyUii/aoUYt9NOJSXj8IS2laEadIwToiV66+9AOMTouBq12HElT/GnTd08iHybrc5seLTncivM8Eu5dEDn6sGO4S4KahukoTJ8WiSUxETLSr+O/ej1tmCQ4UuyD0aDM/WQ2wMmA8ht4IGdqRh1rShyJx2GuJyd6Cqqgn1tGSuowX2sg344q3X8fqr4ry+twmba9UYf9MsZOtVoF6BLb44tClTkREVZMwDNUP4PPAIoUhjAySjz0IA0dz3R1opespLUyVqcr/B+yIPiykfHx5ApTEZo88fe6TFxmoxQ6XTICk1WRojckxW3GbYGw5h5acN0E8ahdHTs5EEHTT6oZh142xxDUZD72pCXdFerHtrJfbV2WEWolQTI0SbIQbesiohXD3gOdQYhmEYhmFOPnIaLELjMkKxYJCA0Gk0GJOaiiSPB6aKCjSbTB2CQwgQhRAcKUKMTIyPR5IwWviHFjaTthVCQGNtg8PmgsPjgKnmALZ/+G+88q8/4Km/fYiPNxR/ryKePHQckjLGonTHNrQ6m5F7yIJkfRzOnJeEUt9BrHljEd7473/x3ze+wsqt1TBGKeAUtVdP6nyMGDMB07LFTuSiipuUilSNFvG0U0MGNCMux4LxWiRRbdcQBUNcPCgpVYar923E1++/gRefF/v93yL8d8VB1B6qhtNsQZshFsqcSRibqkJUSjzih4zGqOwRGJesgDKlkw+BR+ZBjb4MW77+CB9QHhctwZvLiyBX+uBRyoJXiJOHIiU+AwsObcXhlnzsbxkvjmkUJojM+dxOOEu3ILfZh/ImM9oby3HIrsaw0q0oK6xFWbNHiI5mWEtX45PFr+CV5/+MP7y6FWtrh+HnPz0DQ40aqaVDaRTiI1oDrZPKpMPtEZQ6IPsK3PKrP+O5V8Q+yF4SZfSX23DeGCE2/cl6zEt5MSp3L8fb//k3XnxOlO+bNbDFjsdtV0850tLRHW5zBRr2f46VxQsxdtQYTMwR4kZIE13sbFz9f8/hr1Le/oJfXjsTqSvex6YqGxpJdGmFMBGCMrFFXJPiWhfSqFs6X+90b4Rzf5AR4WxzsnwQweK6MiISj4N9BI8/3k60DwpnmJPFibx2gxmlZR/B44+3SPQRoC99kLGP4PHBLFQfcvrH4XBIqwl2Z/SGuyuoH31cdDSmZmRgghAgtdu3w1xXB/f+/chsbsbkhASkpKRIRqsiB2a/UrgcGHpwHUqLG1HeFo2MyVfi7sXrsObjp3DLjGFIkVIdx5DJyMmahNvL1uCgZyPW1WTD68nBuJwcxM9/Cou+XYd1wv92yT7Ht8sfxAWJRsT5N+8Nz/9pN/JwNh76Suxzyzps/6yb/HWHygiMvRdPvroU3x7J43phv8fdp4/AEH+yYxmCxLQszDq7AA15m7FJkwFX3FCMETEepwPV29bh4K5X8K8/3IkLZ56PhRc9gbcat2DFgWIUlQvJFtXpvHz1D/xmwRikltSiiraX9g/E1RVBfajTYPVe0FNeih3jMfPWf+Azcf620PlL0ENb14IG//Y90VxRjB1fvQXnLRdh7LDMLs5VjNCLScgeK66tQB+xthaYhbDNH5qBJHGddjcZAY356HzNUzfAUO8PMkpHNx3dK8Hig1kk+6CxV8Hig1nAR7C4YMY++pcP2h/DnCz4Hgye5ngbjD5o/5Se4HPVs0WaDzlNb0VT1NH0W91ZoHWiK0h4xERFYWJaGq5IT0dqURGmiLDxfrGRnJx8pJUj0L1KL+rgV9/jw/at6/D12jw0SoOG/QOB6bOU6niiEZ+kx5Qph7Hjf+uxz5ACd04Wss3FSM59FV9ss6PWFGRQ8Q/AlzUZQ0YOx/hkhaiZulG/cwMOtzSh3h8fKkpXO4YeegU7dpRhf/WxeaQVcLsiLsGAceMT8NofXoFVrkXc0CxxTHY4HeXYtnYfRl3xW/z9w03YtEnYmm+w5b83Id3ZjILiCumcHhlInrwAl183EWeNKcQTF7+A7xo7Zq+aPBfIzijACz9+AWtbO8KIlsJCbH7hBextb5cmBOianvOSL/LSRAPJ1UYoMq/EQw9lQF2xHn/rNClAQlIabE3tOLT3IGrE9yP6x5SHirx8fLbmQlx+YQ6yMvzSoaUQ7ZtewAub2lFImTZVoKGkDJsKspGYJASGSGZqa4bT0ooxWelQiXPQHVQWna95mi4u1PuDjNLRdUvXeLD4YBbJPujlQLD4YBbwESwumLGP/uWD9scwJwu+B4OnOd4Gow/aP6Un+Fz1bJHmQ9R1ZdLOQ7HukByKilCSEBaTUlNxphAekzMykC3+JiUlITo6WspQ5/0odUaMveYn+NGYZjR99xwe6zRIOc+jhj4tOcisSUoYEuIxZNIIFH1hwbDsJIwYm4Dhw+Nw9S05KFj0W/z5Uf+A58eewS9f2oRii9M/01XvmJ6xF407XsAzD9+Pnz3+JP6904G2djmog0846I1q3PCTaXDsfA+v/sqfxwd/jvv/+hU2FgcbSP7/2TsPwDiKq4//JZ10Vb334ipb7t24YcAYMJhmwLSEXhIgEEhoXyAJIaEmEAgtdAhgbGNTbYPBvTcVF1m993KSTqfr37zVnX2WT9LKSEaS3y8ZrNud3Tez9f135s204xsSjKCJUxBXmowJiaGIS1AKL70R5ppsbKmfjbRJs7DwnKmYOlWkGdMw9ZJzMLGlHPacfOS690/zC0J42gzMmD8GC/w34K3HX8bKrfloHTYTcy6Zh4vD1otlv8cDVC6RHnjhLbxa6g+VTZxb5y48IqMsAbkF0NMIA0J4QBmOhLMWYP70IMRWfYPn//g61uUb0JwwAnHiTIUcTEd6HWCRWuz0KNy7Abt2H0DjWVdgVmwQwpTOa8jbLpR1DXb/+2H8jc75/X/Bm+sPQ3fVUowL1iDQW4/y4kJUFNYgJS5WEhXd4X690zXdk/uDEtGTbU6XDcLTus4S0R/rwTY8r++YetsGLWeY00VvXrueEuVlG57Xd0z90YaLvrRBiW14Xu8pybXRazOSE7QP6WuxWB+m00ktHzrxr1arPUlwEF4+CuF/DkOSRo+25gYUVRpgdwB231CMmHUeZk4cinitt9RsM2FyPAL9FNLIStQyQLOV11aGY8YFYzF6SAjChUMfkxyM+txCGKxmmOx22BVa+AYlY8r4WDjaLEKghCA5IRgqCn+mGBKzEC9D4hAbJQSRuw27ECk2Xzj8IqVlcV65aDM0oaLeLsrsi9C0WRgROwJTxiSeuK3CApNFh4DwaIwaFQmNsNHstEF2tb7eiB8eCkNlLZqb9DBQGeENuy4FY0fHITqkfZK8k/AV50cbCLU+ARMuGIOUxABorW2wGptRYh2HGWeNwNAY57Z0jAM0UFRZEZ4Qj4CEWET6udVNFQRdkD+Sg/XILfRC7KhUJA8djpTYULGsXixrhtXc3rTmHRyF0EnnYXacP6ZPTkDUsfKdePySY9RQdFOW0NBIjJg0HFMnRkEjVnlpIxAe5IVA31YUVSgwZMp4xEX5w684B/XFJdgbMg5zEzRQKcyoLytHk12DqHMvwtlJ4npyDWvl5YBNHMGaI/nt59xLjbCh4zH3miswLdIH6vp92LjpAHZVBmD6okUYF+4FcQo8wpMDnsip1sP1BUoOZ6oNaoImO3Q+5PJL14MnB2ROBzw5YP+z0d+eVzw54MCeHNDLYDA4SBB054yQ4Pj2229x++23S0KCYfqCpswV+ObHH/GPnEn4590XYVJyKALV8i98d/K//ide39yCkvA5eOHBuVIMTmdtHRs3bkRZWRmuvvpq55J2Z51uPjn3B0E3KfVZpK5Pcm/W02FD3OPSg4riqeQ8dFw2qEz0EJGDqx7kMMjhTLZBzjs9oIOCgpxLuqY/1GPTpk2orKzE0qVLnUs8QzZp7iajyQSdWi0NqS73Rccwn3zyidQNe8aMGQPq/vAEP6/6ph5Hjx6VrhMq0/XXX48RI0Y413QNn4/+UQ9+GzD9ioAxZ2PapHG4IusPuOLF9dgiBWucGr97oxxZbTFYeu2cY8PyMgzTd5jEy6qgogJrd+9GVX092oT4oJcXwzAMw7DoYPoZNIrZpbj1tXX44bHzcdbQUx937PkX7sG/HrgEc8LkdSliGObUoWHSc4TgKGxtRcjo0diQm4vs0lLom5ul7n39CpsRqFiNfz/3KT7+Kgu1zsVnNm0wNmZg9YMLsfT//ov/bilxLj81tmxJx/wLHsLbmXqUtzkXMgxzRtOrMR0M8/PxhkKphX94NGKCNVB1FoQhg9DQQIQGaaGS0cTBMR0ncqr1GOj9ZU+HjcEW00F2qDtVXmUl6oRdn9BQeAcFoUnsp6qhATZRX52vL/xEWdz3nZeZibf+/Gd89s03+Fqkb0TafrAY+rApSApCp/FXvYLdDDTsxPJvG+AIjMToCXHShKTHMBQgL+sAPl1dgcjUSKj9fOADA2rzsrDz09UojExFgNoPGh9atgsb3nkJr22zQxcVgjDx3KKxHlv0erxN9Vu5Equk+v2EHzflwz4kFSFa2rbdFKxCAOV8jdfe+RjvfrxcOg7ffL8B31QGY++WImki1tD4IGkiVwl9BrZtPoRtGS2IFmWj5e13teeyFJ90nLdhf24TFMNSESk2dk0Ia67NQ9G2/+Efu/2ROmkm5o1LQkzQiddodebX2PDNMry9U4EhwrbWrwyHvl6Jz//1Ft6T9k1prxCevlAGeCOs4iesyvFHSlIoYsPaj0tXcExH/7PBMR18PuQg14a8EjAMwzBMB+jl1NrWhoLqatQIcQuahykkBGbxslLGxqJaiI+M1lZkVVWh2WCAVYhfepkRlRV6fPNtJiqajTCKbS0tZSjNScd367JR22b1PFnqaaMNTRW5SP92DTJr2tBMhTFVozI/C99+dwhVRlFeqoa0bB++/GI9fvxiNfbmV6KaJiUVtIk834n65ZTWo4XqZ2xAc9l+fPfhVmQV14MG87M2V6Fq/9f46P2fsCu/GnWUT6Q2cayKtu/Aiq/3YuuRqhNHNmwtxOEDGdi0vUAayvxY57VOynLycS5HadZefPPxLuS3miEkj0CPuuLD2Pn5ARjHX40L5k7G5MRAaY2L2kPrsHvTSqz+YQu+Ecegpk3sCzUo3HMAu75JRxGVWyq/OHc2O+ITQnHjVeOg3L8MWUeKUEQVZhjmjIZFB8MwDHNKGM1mlNTVIae+HorwcPgKwUEOskGkZm9veCUmosjfH1tra5FfWYlWo1ESKhLaWPiP+xUe/tcreOWtt/DW8w/hpnOHI3fzLjSI/RaV6VFSkIeSvIPIzCpHg8UGo14Ik7ws7N+/X6QDImUL+wa02mjABDNycypRVZyBwwdp/X4cPJqPcuGZ20ggWIRjXZqHw7TtgXTsP1iM6uY24Th7QBuDMFGfKRpho6gFdQZRZmFb31iPw0FnYXS4EoFKIRrqi1BbW4/swPMwT30AtVWVKKp3diVTqIHES3HDw3/Hv6h+//kT/v67NFT850vhhJdJ8zwZhLDJXPEanl0biIlLH8LzlE+k1198Bk+m2hCmNqOlfW/d0mlZOh7nf/8Gv5rpj6xnViBLCBFpDiZTCcoKcrF2cwiunJuKhMjj7T4OuxXmunzs+/Fj7C6qQWPgBCSK5ccbkJOQPO5a/F7s+zWp/H/BfdfMwvj4SGhGzcH1oZtQUVSG7PJ+1sWOYZjTDosOhmEY5pSo0+ux88gRBA8bBgQESA4yfdBuFKne4ZAcWpsQIg06HTZmZ6NB5O80vkPfgKZWPbKTYxHu44M3X96Evz14D566ZxHmX/ASvqttwdFNL+M58Xvy5MkizRDpRvzti3Rk6oEDB8pw9+1v4f2/zMVVi2j9ZCz61f14aQ/QQhM11W7C6ufuwRLadtpsTL7kKXy4Jx+V7dY7EIiQsHCMm27DjvRy1NYbpfIBZvjMmYoYpS9oitKm4jzUVtfCb/6lmDkiH8WF+cgvdp8cyQ0azSsmDsmibjRsOFFfAxzK8sfNr9+HiyYPQ7xzuZ8QapPvuw8Thw6TRt2Tg+yyBAZCGxYhpIKbcCgpQGVZJdaPmYOxiUqEOOdfJWzGRpSvegBf2hYhYd6duGd+lHNNd6jhp0zEtDljYHKYUC/OPcMwZzYsOhiGYZhTIlQ4sJOF4Cg8eFCK32gSQoNcywbxr0GIi9amJljy8hBQVIRUITzslvahGCWa8tCw6W+45by5mEuTiV7xLF79zoTbr5gCrdoP9vwvUK9Mw9A7VmHdV7/F+WE6DJ/9W/z+X6uxY8cO7Nj0HXa8MhHVlUXYnlEi7c+cuwJFkz7DX98V6z9/Dg8uiMfXn6xGfqsRH/ztC2Tp03AFrdv6E3Z88Sium5TcqVOv1mgQER2PI6XVQgy1oaTwMIrzDyDx2ESjtSjO06OmWIVzZw3BrLmLoC9uwNH8Es+B6Q11aEvfje+GRsIWoJYmvq1p0mBrdiLCIxXQuDn6hBR/VbgKnz51My6g4+NKFzyIp5ZtR6EzXzudl0XomhMpKURleT7WpcYjxNdHEk/UgkPCIG32VCT6+UnLCGN5OrJX/xnPtN6CBXNm4ZK0IHifFBZ2GAc3P4ffiLLNEumqp1fhq6z2vlQ+PgrExiWhsqkVVY3cv4phznR8HnnkkSepjy19feoqUfBOnnh5cCA5MxihQFm9Xi+N+e265l3BVHLuD0qU3+VQ0b+e8nRMp8OGa8xtcpTkbHMqNijfYDhWp8OGKxCQzoen9R3TqdigfL1ZD7o/WltbTwok9xGOsVKhgMVoRKW4f+rEslbhrLeIbQwtLbDk5iKsqgpDRV3jQ0MREhwMjVhPAYolJQ3YvKMC595wAWZOm4zJo6IRGaRGZakaYydGYdvGHIQMHYMFl83H1CGB0Ph4w9dUhKwtm7D2i3XYLHWT2oXNJSFITE5CVKASu3dW44K7bsTc8UMwIsyEFiGENu3xwsJL0rBxbT7UyWNw/tLzMH1IGGLVpdi+14HAmDiM7RhILvDyMcHq0GPnm6UYOj0UhqpK1JV4If7i8zEm0Au+zenYtr0U2Y3RmH/5ZAyLbEXmqqNw+AYhYvxIhFqasPrV55B1aCs2b/wea348gC2loZh86bmYPykJcTolSkua8cOOKiy8YSoSdH7Hg8WdfP/9EWhjEzD/krMxY8IETKA0TAsvhEKpS8Q5542QxIu3vvOymFR2ZH70EjKO7sJPa7/Dd1tLUOhIwtlXzcfc4REIUnijrXgvCsrKcThgPq4YGwitX/v3yLrcTGx6/3l8tKMGpQd3YPem9Vi3YTcycvKQbwzB6PgoJCUkInbUKKROGIOJE3Ro2lEpjpsG/iOSEaW0wMeUhx92Qpz7cHH9RJ1UR3dcgeSxse3CruN16Cl1d+16SpSvr+/zwWKjvz2vampqpOuE8o4S1x3NV+EpX8fUExuU+roelE7FxkB8f7gnbulgGIZhTgkaqYQmARwRFYUo8YKyC4egnmI3mpthLShAiPg7WQiTZBIcISHQarXSy1JCGQJ10hxc+utbcMudd+LOOy/GOWOCUbd6J0rbzGgLSkVUbDxSwtuzE7vW7sDmrYeR32SFVbzcrBp/BBrNUBhNaBX7842ejNEJfgigT/UqFZRaHWhzetG1iP0Fdthfl6hDoYqdiLO9s9Fam4F0fQAaVZMwNRbwE1VoLcpEbsEhbDuUic0rPsR7azNRcnQPCvNzkVXcClAciUO8kG2irIZylOUX4Mdtfpg1PxXJUf6gabd8YRaiQS8EmqiLp8h5UeYx8y7DjdLxcaYbF2JeWjzcpwbrqiyZRQZRDitswoC1KQ8HMyqRXxaA8xaORLhKga7Gp1H4RyA09TyclxqMMHFMaSAAm52cDHIgyDEJR+Lkc3CRVLbbRboW0/xqYa4oQKEr+l3egHkMw5wBiHeGtzS7MbVedJV6MnQWwwxE6F5wv+bJOZJ7f1CifNQlgrbztN5TOl02aJue2qB73tN6T8lVD0/rPCW2MbBs0P48QdvQuuCAAEyMjUUSfe0qLIS9vBy6/HyMEOuGhocjMjJSGtryBNHREWHbWzjqvjWNaBYOracA78+XVaBMMws3vPQW3nztZbz62KWYPTQcOuf6rvA1GWAztqFV7NjhsMPcrIfRSiMwdYY//FTDMeO8ZjQUbEN6vQUNCWkYKdSEQoiFioMZqCjai7zCrVj2nzfx+n9+xGFTCY42lSM9qwJm90Dyfz+Fv9x8LmZZypGZWYIyvRE0yFWgXY+hzfuwaWsRCuvalxEO4dw3i2NoaDN2UT6ClE3XZcko8IbSFUj+0mN4YIEQPfoy7M4qR73FJo0S5iOOvZeQZoamZrSReJT2DYQNHYeLH38L/369PcD9rX89gj/eeQ3GpF2Fx363ACNiAH1TE2pJYDiEujALoReogjpQIa6p9nqYy4pRF6iFIzgQJ46H1Tl8D3rO0zGdiTZo/5SX4GPVfepvNrilg2EYhjll6GVDL52woCDMjIvDuTodInNzcVZwMIYIsdFRcFB+j0jBzHlYNyoBoc5Yg5NIHo/E4SkYFQbYzCaU79qEQ/W1nQSDn0hMwX60HM3HoVr52/r5+WDyzGRsWL4O2UdKEZ02UiylQPhyHNp/CNoRi/GHj/Zgzx5n+vAhXDJcg8MHDokc7TklAtMwbt4c/Om+Zjx/1UtYviUXNPVeXApwwVUteP/el/DNnvZlhLmlBXteegl7c3K7qVsPyxI2B4uvScP81Bz84YKXsL62BRQeHxgYAj8vJTI37UKxyTWMrgwOf4ZN2zZj2RHxt80sirIL+w+pUGcMQQSdI5sV5aUFiA7UIFKIDoZhzmxYdDAMwzA/GxIUQf7+GB0fj0XjxmFIYiKio6OlblVqtfrY18ljdAwkv/y/eHtXDJ56fjFGBqo99v0/L3o1spffggtF/jnnX4KH92phbhUOrXN9Vyy5LQrejZ/j9xf0YFs/JbymzMCM4Itwfnwq0kYJweRyro1z4Z8wE/NHeUt1k9KosUj1tWHEoQPYLTx98zHV4QWv4GEIm3cX/vubGuz99z/w/AtfYbdyHNKu+wfevbdeLLsDV9BxEOmsCy/FXTVD0YqQrssnoyyTDu2HXpTFLpVFlCN+DqZedCFeuPQAXlzyO7y2KgNZgUmIjonEOZmbkFFkRoNc1REWifqty7DsRlHuGXMxdfFTyJ04CWMXzkKqkC5mUxF2bcqCUgiakEAWHQxzpsMzkjOMgGckP5H+NIOpi8FiYyDOKNvVjOQu6NryEduqxPshQKORWjZ0Op0UGEz77XjtUStCfGIk0iZNbA+QnjITM2dPx7xpSQj19kJQgBIjhkUgJkx7bCbrAH8/hCeMQMoIkV84t1POOgdnTRiLqeMSkRgTgCHxwRg1PAI6hXC6vXzhp41AQkqytCwyIhCBUQlITBlx0rbuNk7ASxwLZSCCQ4di1OThSEkMglZa4Qtl2Aikjh6KIdFu2/pp4e8fKcqXgqSR8UiN02HcqCiE6pRQ+PjCWx2EqJhQhMSKbUeNwPDkGISHhDmXDcfIkWOlYzFx0mRMnzsH509MwMxxMSeWz1sJTVAshgxLRHIczVTuC1UXZRmRNhwzzhmDyWMiEOArjotCBaV/EGISohEaMxLjx49AUnQYdJYmeJVvwTJLKibEByE+iKJOOtDhmOrUOmjE7/ikIUidKM7jlFk4e8F8TBwRhXBLGfQHv8dTaxUYPX8BZoyJRXg3lzzPSN7/bPS35xXPSD7w3h/ueBkMBgeJiO6cERIc3377LW6//XbpRdIZVNg2cVAqxIUR4u8PHY1UIgoi19lhmF+CjRs3oqysDFdffbVzSbuzTteznPuDoJu0ra1N6moi92Y9HTbEPS49qAIDA2U9dFw2qEz0EJGDqx7kMMjhTLZBzjs9oGnUFTn0h3ps2rQJlZWVWLp0qXMJM9gw1R5BwfYP8PsVrZh0zmW4dK4QPwk0NtapUZy1F1/899/4UnMFfv+rGZg7Iswp2Drnk08+EULJHzNmzBhQ94cn+HnVN/U4evSodJ1Qma6//nppxEk58PnoH/WQJ3tkYheGW00mlArBsb+kBDniJVWr18MkHB4q1GnHboK1tRr5edVoNJiO969lGIZhGOYYyrBEJM6+GrcFZ+Hw4WzsKfp5k/kV1vtg5cFgLL1mNsYndC84GIYZ/PSq6CBxUVpbi/2lpYgYOxYHheDYV1CAusZGSZmdduFhLEfjoU/xwO8+xfr0cmnSKoZhGIZhOqKGOmgcFr+wDp/97TbcNts1P/qpMXv2OPy09gXcMjYIMR5HBWAY5kyj10RHa1sbcisrUWwwIHb0aNiVSgSOHIlyjQabCwtRJcTISS0eNiNQvhov33UNLnYF0M1fiF+/nYGMcrGuKQvp6z/F/Q+uxmG9Uf6IGifggN3ukAYWlL2/ki3Y/NZ9x2eApfSrP+Hcx9efvK1T2PyehE1GOY7Pudo+qsiml+/Cfbfeh7v/venYCCIvP/DAsfpOnXqWSL/G0xTMxxO2/qKkp6fjnnvuwddff41acb3KYd26dfjvf/+LtWvXOpcwDMMMXLy8KR7G62dPr0HdRak7J3esZhjGxc8WHSQiSHBQV6o6ux1+ERHw0mphEg8bG/0bFYWigAB8X1KC8vp6KS/1FSOMTSasfGo9agPGYeo1N+Pmm5fgqivGwppfA0tTG2A1oKWhCkdzamCw2o+NHX7KyNifPmMlln3wDT7ZrsRZN9+MG0W6WaSLk0MQlL8PP4htm9y3lbpwVSEnpwoNLeJv52LYLUBdOvbkGVFwuACteXuRXgdYxIYlzZEIGTkfV9C+f70UNy8OQdW3m7Ht+0wUOzdnTj8UmEX9JNesWYNXX30VK1euRH5+vnOtZyiorby8XBpogWH6O1VVVfjmm2+kVF1dfcIyuu5ptl+G6W9QP366RtevXw+TqX02E0/LGIbp3/xs0UEzlOaWlaFK3PQ2f38ogoNhEMtbRNJ7ecEUGIjmsDBkiXwZpaWo0+ulrlaEyWjHjlWNCB57Li6+o3221dtvvhGXTohEpE6B6sISHN2zHSVFm7Hqg3exavMRZGRl4Mjmz9snKpLS51izPRtF0uREYr/NR7Dzm+X4hNa99yk+/HIvio1madIlT/vLrj7xYVW0Yzsy8lthH3kB7nDNACvSHZfPx/mjQttbTGTgsJjQfHgbSrSjEBoTiCR7JrYfaYbZKvZwwiyzN+POO6YhRJStMqsI/Mr/5YgSAvnCCy/E0KFDoRfX6c6dO485YzSQQmura4pdhhmY0HW9d+9eKdHf7sv27dt3bBnD9CcqKiqkazQjI0MKcu1sGcMw/Rtvaqmglgc5yRNWsby4uhpWlQp2rRbNYn/US6iRkvi7WYgNixAfDo2mPbC8sfHYA4IG0gkI8YO1KR9FJYXIq/GBWp2GK69MQ1ycP6oLSpC9eyuKCjdgxXtvY/mmwziQeQCHNn6K119/vT29+Ar+u3ITfhSqw2ZqRdm2z7Hszbfw6kti3X8/xnurdqOwzdIuOjzs70gH0ZGVpUTQiElYfPPZoGmgXOMDUYzKqNnTEasvRm7GARwQL2h6Se87kIWM7ArorTa3QHU7rGYDCnamwyt+BEZOS0SUrhrbdhSg2Ww9sYWFRixSKuGrUUHpqzg+3CFz2qHRnaZNm4Z7770XN9xwA2JjY6Vz/N5770ldrvbv349SIZxpaF3XPUH3jyu57pGe3FPu28pNp2KD8LSus0T0x3qwDc/rO6aubHha56KrbRjmdOHpOvR03bqWdbZNZ8nTvrpLbMPzek+pr2246EsblNiG5/WeklwbXk1NTbLeJtTNhJoxOw6ZSzvRt7Rg/ZEjaA4OhiYlBS1CTdQL4y1CcBjFOnNhIZRZWZgbFYXkuDjExMRIDp6psRxbn56MR5dVYlf4dVh00+/w5d2TnHsW1O/A1vU78PRHWjz59lKkhunQbpkOiPQHsPdV/GWzBXv95uDDy6Lx9JQpaLz9DSy69iIsii5A7eEvccuTXrjxsUswf2QVDnvc33EeuvgVKCYn4conFsGtJBJbv/oav7vkEmQKnWB2LpPwC4RjzAN486XrccXMZITAAEPtYXxy8xMw3PgYpifUo3rHBty6fiRWvbMUH/1jPZJTI3HdzdMQbRLybOvTuPiDQKTMORcP0zLnbpnTBw2ZW1xcjEsvvdS5pB36mvbjjz9i2bJl0tCzFIdz8cUXS0M6Ep9//jlyc3Ol1pElS5ZIy/obNFxuT+fpYPoO6gpCz02aMO90Q9cqXbMEXa903Xpa1pHt27dLXQl5yFymL3ENmUvPWff7Y/PmzdiyZYvke9x0003Sv56WMb3PL/m88gT1Oli+fLn0d2fPq8FMfzsfPcWrpaXFQWP+d+eM0ImmbiYdRQcpG4vVisKqKhyoqUE+zR8wcqTUvaq1qQnmvDwElpQgzc8PCRERiImORmhoKDQaDew2C1oqDqGs3gJD5SFk7t6I/6wpAs5+EP+8cRpmhRzF1h+FSPhQiz8LZz01VAutFAy+Gi88vQo5wobVUI1y7QyMWvhrvHjvTPz5mn/hwgevxLnzRyHB2i46hO/vFB3VONxxf1ItjvPQPcsROjoKS++chUTnMhdbNx7CX/70CW780wIkumbMbStHY+FW/OWDSPzmyctwHokOYwnqc9bhd4+U44I/XI15k80o+24NXvxjBuZ8/i9sfOL3yMnaCUuYFn4+Yi/R5+CqXy/ChWelYnhnk1QxfQqJDnKsSAy7oBubHHYSGxSzQQKE+rwbjUYp9uOss85Cdna25IxFiGt7ihC81HWQgid7OgmPFHApUxD01MapiA6yQeNty83vqofcccCJM9XGqbw0eqseFL+xZ88e6W+6Xum6dS2ja4Ra+iIjT54Dm+4Bavlj0cH0JSQ6CgoKpGeV+/1B8Rvkg9DyWbNmSfMHuJbR3/QRiHyKM+1ZQpPjjR8/XpofQQ5UHnofkM8n9/1B9z6Vy/3d2BWnYoP2T8dLTj3ovH/22WfSNtdddx2GDx/uXNM1PbFB9HU9iMFwPoie2OiVyQGpcIbWVuTX1uJAYyMOKhSwh4fDVlSE0OpqpIg8Q8RvesGFhIRIM9WeNLGZvghFOduxcuMOrPk0HDc9dzXOGVuHox1EQvqKL/DD2g1oTExFSjCgaM7AtkMa2CLn4P4/nIMnbv4ENz18DuaT82/ouej4x40vwjw0GefddxlmdDinW7cW4Oln15+4bUcbwq6ucj9y1zyPa/5RiujUeMRG2dFSVIzsnU0Y9dynqP1iBWKCDRg1WQef8kP44PNY3Pn6Lbj4vJH4eYMUMqcKiY6ffvpJunlc0HVNyfUSoJaQI0eOSP/S9XvRRRdJEwpSP3i6rmk2c7pZKb/cm7ujje6g8vXUBj0MeiI6XDaojnJfflQH2o7KJYdTsUF1IAa6DTofdLzofMihN+vhms2XoOuVPgC5ltE2nc3wS3ZpEi4WHUxfQqIjMzPz2PPKRWFhoTQrPvkqkyZNkv51X0bXbU9Ex2B4ltAAJgkJCTj77LOPtbx3B9kY6JPRkejgyQEH7uSAvTYjOd1gJDxyhfDYUlmJKqF4dEJwJIl1ycIhI8FBLzP6euG6qdrMNmw6UIVxQ4MRGaIW8qocDYXr8fBlRzHnxeswZ5Iexd9txt9e9cJDq+/AxHAdVjz/BTbsLsDSVx/A2SHC2cl6E69+Xo4Dpol44MG5eGHx85j/+DU459zRiG/OQtHWd3Dda3G450+X4QISHR3211ErfvPQQ9hUIwTFRVfh1iWjQN/86BA2CUdzzdpMvPB1Bf4tRMfoTkVHjCjT99j82h/xTPEUxAX5gaoGYz1MjaXYnfBHoKAB1105GjdfNwT+RTvw/hPfo3jUDEy8aCbOmZgAeZP6M70JiQ6K30hJIYncDl3TdIPTl2DqgkKj/dCNGBAQIHURHDNmjBTISDM10+/Zs2dLNyvddHJvbrJB+5T7oqGbu6c26GFADyl6KcsRKi4bVCa5wsZVD/rSIYdTsUF1oO0Gug1qKaPjJbc7SG/WgxwVml2cmDNnjnTdupbRNuTAUItGR+gap+ueRQfTl5AzSc9Z8hXc7w8SxZTIf1iwYIH0r2sZiRO6bqlb1pn0LKF7lp4l06dPl774y4FsDHQnl0UHi45jUCFJeJTV1WGHcNKixM0TKV5UwcHBx1o46GZy2apvNOB3f/oMF8xNwIhkoSCMVWgu2YvX1yXihnvOwawh9Tj61Tq8+Nd0THrlFkwfPgoZ3+zGkcPZOO/XcyRBYNz/Lj7cakd52Pn4x4NnYd2ld6Hu4sUYOSMVI0yHULzjUzywaTb+/NercGmaAfkd9jcyNBih2uMHqXbjv/Df9w9gc2MSLnn8EowTy6iBqWTvQaz9KRffGeLxiRAdYzoTHdNUqN28Gv975r+w3/ctrpsagRGiaqg/jMod7+PcZ5SobPHHrXfMxn23T0O0uQVIfxu/eSobhhETcfFtF2BuYixCxHPKu3sflOklSHRQq8XVV18t/aYmTJqrg2KZDhw4gF27dkkvg4kTJ0ovOGrSJujhR/fGsGHDcM0110g3Hr1kKK8cXDe3nHuQcN3cPbFBdaGv69QcK+dl1l8ftvzS+Pn1oBf2p59+Kv1NAoKuWzkvcXJwSHiw6GD6EroOSTzQl3v3+4Oez5Ro3W233Sb5IK5l9DcN/EE+xpn0LKFjRS3v1L2IRUf3DIZzTgx00SFPssuEHBqtRoOkyEgsGjcOY4YOlb6kURM+CQ4qjLtjpbTqMafw//C32xdg8uTJmDz7elz6u90YdeuFSB0eg4CANCSMGYaLpnyAv186D7f/7QuUlK1BSM4DuETknybSXctzcbghWGpR8Q/wwX1/TULmqsfw6/mTceEdj+Ol4kQkWBUIIIMe9rc668QhIsPm3ieE1WwsDl2Gu8T+Z1K5RLrszXX4DGMwSuTp0tXTF6Om1oTdfnfgkilaxJHgIEJCoRo/ERfm7IA2rwZG10SAfkLATbkXj92sRWDme3jyrpexqlyIqfaWWeYXgiYK/Pe//43HH38c3333HRYuXIhnnnkG999//zHBwTAMwzAMw8ijV1s6XJDqoe4D9C/t19W60dGG3WpBXeEhVLdYYJSm7lDAx1eHyKFJCFUroBSSyGJsRFNlLkoaxNqQJAT7GuHVWoVyp1ZQBQZC4a2BRqlFVIw/fFsqkFtWD73BDIWolypAqEGTHyJjgxGgU8LeYX9R4cEIc2vpIGyGWtTXVKKots25RKANhUIZBK3ditgkISAU3u2KjSYHbGtEYRkQGh2EALVVCIoWVNR5n5gPFtgszag4JPbt0CA4OhhRkceDxi2NpaisaUGTQ4eIpDiEckvHaYW+mJHQSEpKkgZMoCZ+EsySGBaJmvupe0nHpnJu6WhnsHxFGuxfqrilg+nPcEuHfBvc0sEtHXLob/XoE9HBMAMNenmR2GhoaJBeXuSMJScnIzExEfHx8Z3eHyw62hksD/TB/tKgQQ8oPomgoSbpmqBldA3TNTJy5Ejp+u+IXNFhFvWiCWBLhWgfGhcHrUoFX3Gdyrm2GaYz0UFxRzR6ID33UlNTpX9dy+g5SM9qV28KOQyGZwmLDhYdcuhv9ejeA2GYMwQKtCbxcMEFF2Dx4sVSgJ6n4UPdIceN4jyGDBniXMIw/RcSGTT6DyX6233ZhAkTji07FWjo9JrGRhTU16NM/H2wrAxVQsS3mUzSS4npT1hhbavCkXUfYvlP+7Cv2NXft+fs3ZuN5d/sxJFmsdc+Os3U6kzXKI1SRYKjs2UMw/RvWHQwjBMSDr/73e8wc+ZM2c4XzXWwaNEiaTIrhjlTsdpsqGtqQpEQGfXe3ggUYjxL/D5UWYlKD8LDUFeB4kPC2d13ctqfnoHsCgMMpuMzD/cZFj3qqqpRUqaXJnxtL6FFlK8K1SVlqBUL7ceKbYXJUIuKo+lIP1qBWoMJFHpn0OuRTeU+VocsHMrpuK3AaoSlvhCZGQeO1zcrG5llzbDYHCgTZaiuMwjrbnRavhIUHz2EjPxaGKx2uI6U3LLYTY1oLNqKZW++hLe+2oE9RSfGNrbW5KEwPxc5kl2H+F8zavKyceTYfveLlI3iWgM2btyBt95ZgWXptWg0Hy8LwzBMR1h0MAzDMKcMNcM3GwzILClBs58fwlJSYFepEDlxItKNRuwRy+saG6UuAS7hkbnqDTy1pD1eqmOaMW8BbvhvBtLLjVLePqV2I1Z98AmeeXkjysXP9vE7akX5PsAnz3Qc1KMJ5QdW4q2b52Huzf/FF+nlIFf9wObNuIHKfawOF+FqTwOC1Oeg5rs/YeH8Wcfre/GvcMHLu1HbYsZLL23Eh19mCetudFq+5/DUzVdjwQOrkKE3wnWk5JbFWJ6No1+/iVcj/4B7fn0lbp994gxRh5f9Do8/eC/ukuyahd3dWPa7X0n7bt/vDJFuwN++SMfMs0Lw2zl2/Of5VchpOV4WhmGYjrDoYBiGYU4J6lJFLRy78/OhiIiANipKcjpbRTJ4e0ORmoojWi3WFhejsrYWJrNZEh5pi2/Ho5/twq7tG7Fr9WO4/ooHcO/j7+DbXbuw9ce1eP+WsRgbI3/G9lMmbBSGBFiQYDyAXcIxt5BjXnsIeXpfFKvGY2oM4OfqokwjE9Y0YLdjHs527EJ9TS2kXkn+KQie/Rje/n4jNony7/rh73jkPC1+uPllbG1oQQNtmrUaX7z2Mq55ORT3fvot1lI+kda+8Cgew3YcFY59vdBjnfVCO2G5VD4tKh1DMN+6SYgzExpcnr6MsgAlKM07jDUf+OLGC6Yg5dgQi4C5pQZ7Xr4An+VYUeYYiUQ3uw5Mx8LbXsD7Utm3ivQ+HrlsLMakjcOQ1ATcYHoD3+02oKzdCMMwzEn4PPLII0/SS4BGm+oq0ay1eXl5Uh9KChZhmMEEzWxLAbUUlOa65ukLLt0bcu4PSpSfEkH/esrTMZ0OG66gMArwkrPNqdigfIPhWJ0OG64Zyel8eFrfMZ2KDcrXm/Wg+6O1tVWaENOdhuZmpBcUwBYWBt+QEFiVShjEcvLFG0UyKBRoFttT8KNNiI4of3+oRB6VLhBBETGIiQpDjLoE29LViBk1AeddNBXDo6MQ7u+HI6v/gx3ZNajUDEdSEA1veBQbXv0aGYUGHGzzwbcfrUDu1nfx2YrV+PyLr7Etqxj6sCkiL+DbnIGtq5bhnVfexadff4evv85AY2AM/MNCEOz++vJRwVF9EHWNpdjpMxlzElRQlW3G7kofVIdOwGVTI6HyAigM3lCwDYeO5GAzzsK5ii9RGjQJweGJ0JrM2Lq3HlfesQBjhiYhKcYL5qoq7P24FMm3zkKcvwrVW7YiI6MU1rNvxI2XTMG4pHgkxoj6R4QhLiIQwQnx2PVjLoLCdRg7IQ7+7aUDWrKxP6MRFa3BOOu8EdLQ783pq7C91AcV3uGY4fsjDgQsRFpMIKJ0CpSUtXRbFm11BrL2HMCbGZFYeue5SI1QQ+MNmGrzULrjY3xcFIfhw2KgtAbB4RUu7A4Vdkuw55NKKEeMweRr52EylT0mHEEaP+EPqOBlbIBP2RZs8FuAiYkBiA2QN8hFR2iyPwpepQkqB9L94Sn1tQ06VuSX0cAPFFzvKU/H1FMblPrb86qmpkaqO+UdNWqUFFDtKV/H1BMblPq6HpROxcZAfH+4J27pYBiGYU4Z+hhuslrRKl42zeJv6nIkfd0Xvw1tbbAajbCLZBAChSaPpRePHBw1B7EnMwNrDtUCNhNQvhNr9mRjT1ETKosq8fWHa3Cgyogmi3g5NhaiaO8mvP/xTuS2mrF3bRYy9hWiml6cNgsc+sPYuVUsy66WWmGOo0FETJAQIwrsOVQOi9WG2oIjMHubETwkUXL+28fdakV1YSVqK8wYNm8GZk6OQFVxOXILO+5P0GYUx8OMuvBA6Ly9pWHRC0vUqDIm4rzrpiNFOOquNhx1aCjip09HvJ8fVI1HkLVxFT5680286UofrcOmg6UgAdd+pJtRlFkCi5c/Rs0ejwkjdEjfnYOyumaII3QyHspiqq5AY5MeLVNmYliIH/yFPjBVZ6MgawvW59kQMulazJs0CiMiVe37OEYJcveuwUpRrv++9yFW7atCVTOJQSX8AyMwZFQKCiqr0dLqNtQ8wzCMG940hCaN/ECtF10lucNzMsxAhe4F92ueviTIvT8oUT4aGpS287TeUzpdNmibntqge97Tek/JVQ9P6zwltjGwbND+PBGo1WJMQgJaKyqkGfzrhbjQC0dfL4SFwWyGsaYGPoWFiBD/Dg0IAO2Fvp7JYdzcqfDXqFBw4BD0ZhP0uzYjf+ho+E9Iwzi1DYpWJYZe9wwefvYNvPHc73Hj1Egcevtj7G1oxWfvF6K4KR4zb78dt992I26/NhH6vRnI2JVzYsyEQBsaDq1/MPRH8qC3tOLwkSJYhTiKj3EbTMJSjqLiVlTVhuDsKbEYN+d8+JTXoDyvGOWiztbGImSn78f+vXuxd0smDpc3oXn+KESpFCDXvdwQjNLWKMSGAT6dfeprPIysTR1Fx1pszCppFx0O4eCbC5CVLe5/rzDMmjYCwyfOhXHvfhRV1qOetJy1+7IYWpphhQUpY1MR5asQkgGoO/Qjtv7wDT6uHINJ2ho0lpegsLQENbVlOJJXB6tVh4ihNujLd2Dtm6/izbdewsvvbcGBgkYYhF2lWoPgyDjUl1YK0WF0xp6cOnwPes7jnmj/lP9MO1a0f8pLnGnnnNJAt8EtHQzDMMwpoRAvp2CdDjMSE2EsKkJpcTEaheBoFcnY0ABrVhZi6+sxOihImlyThqWmF5osUscgtQUYuT0T20xt2LbtW6TGBCE1KR4ICIdf2hxMTVQimJoN4pMQPXIIFtiKUFduQ4FxOz5+8wHcOGUKpkyfgymL/4YPl2/D0aoG1LTv/Ti0bVAMzv12CzLbCpFdMUHUKRVjUp3rCYqjaPJFEcV5JCnhO20mZuhLoDmah0P5+ajf9Dfccu4czCF7dy/H/6on4r0XLsXoQHV7q0ZkMNRJkYgVf3b60k26FNf837v4bvdu7Hal757H41fNQBKtt5mFetmF/W2JsAakYNTwUKjGTcSFuTvQkF+LYmpiapJRFg8U51Vh58rPselvi3HunOmYcsGDeOrlF/H56v/g1t9/iwb9aCx58T18KJVrHdYt+wMmr3gLe3YeRRbZVWvhGxWLVCE6TEJ0nDgWFsMwTDssOhiGYZhTgr5u0Veu8OBgnJWQgCiDAbWZmTBWVsK+fz9GCvExMixMmu8mIiJCmlhWtujASCSNbEHMiG+xYUsWNqw+BzHBUSDN0S1Jl+EaZ2A6BWxT2r37Zfzlttlw1xLtxCM0OgHTzjmKmqxt2K6KhSUk6YR8tYf24+juj7D8w9/jkikzMX3KXXhu89f4pjgHB0oDEDLHGbz97fN4bO5IRBZWocILx4aPDa7Kg/KwW7C6R6gjl5d0TE9M7WttZhPKd27CkX1v4aW/3oSFUxZg/oWP4MPaHfjuUB7yKapdiJHuyuIJKbB/mRAUruMltn383gewZPHd+O/zixEsBMvx8mig8ItBwkhvqCnIhDC2wlJVhsNxUVBq1Dj12V4YhhnMsOhgGIZhThlqhlerVEgQ4mJCSAjGCKHhX1CANLFuaFAQYoXYCBPrqKVDal4X+eWhRcLYkYiPUeHQa2/i0LgFiE+IRYKnSXKrK1FfW4d9KWMxJNIXicbDgMkOe7hriFdKw5AcEwiNc5PjqBASFoS0Cb5Y/donqPbRQReX4MxHrnotctIPwhE0FPNvfhC/ufV23HbrA3j0N+dhRLgdBw+WQh+UiGHjJ2LCnMtx3WWjMT2iAC//cSX26o1SnMvIYW2I1mbj/adWYl9z+zKiuawMWStXIst4fJlnzDCbK5C+dT9Cx5+Pxbfch7tvvQt33HYPnvztdHg3VSOnsByNCjUUoiwjuiiLVucPhZcv8jMOo9JilWJBdGExSEpzO1bjhiIpLh7hYbEYmaSDIncVNmSVIbNaZDYZYK0uxtHqMChUSmi1YpHRgIbKUoQI0aETokOurGQY5syCRQfDMAzzsyAhoVWrMUyIi2kiTVQqMS4qConR0QgPD5cm2+yZ4GgnMDEN0XHjEJSbjaALJyImJkQawQmmerQVbcaX77+Ld6X4h/XYdNgbydefj1ERSpw3AfCr3YOv3eMjPt+MbScFkrejDg1E1Pg0tGwxICE8ENEJzk/4DotQBkeQWaKFf8p5uOH2O3DHHc50++WYFa6AX1YmaoQ3Lw3eoknCyLOm4KyZIfDeuwofv/clNh+pgjptBCbNSUDg0ZX45P3/Hi/T/77ARzvL0GruJgrC2gxzQy62F8RglBATvzpWjltFORYhzVCF5txCFLtXrpOy6AOjEeQfBN3u7cipN0OKBe8KuzgGLYex4+vP8TGV+a138MGydagYMhcx0VGIUJrQrK9G3uF8JEdFCNHRMQCdYRimHRYdDMMwzM+Guk3pNBqkCLExe8QIJCUkSF2qSHCoVCrPgsNLLPMLQ1x8BCLDtNLoSifgo4UyMBGxwyZg7qRohAU6mzlMDTAW0cR57+AdcoRX5SHfkooHfjMLSTolzr95ESaP9EH1WqdzT+mzTZ2KDviHQpN2Ni6feA0Wjo1FYoRzOSmJ5loYIxcgadRUTE10LieEIBqbEI2LQuwYEhEGjY93+ws1YixGzT0Xf7xageyVa7H/cCUMsbMwY/HVYpmXWPYxPnGW6ZONe5AeMwMpPn5IjQs8+Rj4BiI0MgIJkSr4GlthSPk1Jo1KxghX+RR+wMgZmBetQTLMsHj5YegQURZF52WpDkxCdHwczm3dj62H61Dd5EF1uOzGBcHPxxdeMaOhLtyGzFWi3O+txLItVRh552KMGxaLiLYqVJcXYNNBG4bFhyJA66kpimEYRjzyDQaDg75AUV/NrsjJycG3336L22+/XeqXyzCDiY0bN6KsrAxXX321cwmOzW8h5/4gaFSetrY2qY87jeIgh9NhQ9zj0tje5PzJ+dLsskFlktv/3lUPGmNfDmeyDZqzgmbnpvHl5dAf6rFp0yZUVlZi6dKlziWniZyv8NV3G3Hr+pFY9c5SjA3VQisWb91agKefXY8/i2WpzmWMfAwFW5G+8q+4NP8WvHPnXCwa41Ixp0An5+hU+OSTT+Dv748ZM2YMqPvDE31tg47VkSNHMHz4cFx33XXOpV1zKvXob8+ro0ePSnWnMl1//fXS3FpyGAznnBiI7w93uvdAeojVZkNtYyPW7N6NPOHEtRqNssdlZxiGYRgXJYWH0agvwsVLL0WKuvPRl5ieoY4ZgWGLbsNvqp7Bv99djrc2lzjX9Jw3vqvHKxu88ZsHL8UwHZ8jhmE6p1dFh0Wor2ohOA5WVMARFobD9fU4IoSHvrlZUmYMwzAMI5eA4fMx9YJbcOucMAQrnV2GBEOGhOKeu2chSauU5plgeoa3MghBibNw1W334paLpmFiwqmPNzVp5jTccvMVuGp8GIL8jp8jhmGYjvTa88FMgkOvR4lIBqUS2thYNOl0OGow4EhVFZrFv9QKQs0wLqg5Zt26dagS613Q+mYhUrZu3Yrs7GznUkYura2t+Oijj471Y167du2xZZs3b0Z1NQ0/cvJxpnOwatUq/Pe/bkGObsl9W4ZhmNNBYOJkjJi8ENNjAD+3VvuoqAAsPH8kwlQK8LS1p4ICvqpIpJ5/I646ZxImJbrGvu05kyePxFWLpmGkv9hr9z1EGYY5g/F59NFHn3T18yZHtLNUV1eH3NxcTJo0Seq35Q6JibqmJhQ1NKBe/A5NSYHJxwf2wEBUmkwor62F0m6HTogRX4UCPk57jY2NeOyxxzB69GjEx7cPvk5dscgBfuONN6TWkQkTJkjLGXm4julnn32GnTt3Sv3+aQjEX//615JoiI6Olo41nVP340z9aN9++2388MMP2LZtmyRWfvzxRymWZ+/evdKkXrQdBYYORoqKiiQRNmrUqGPXPPVppH/l3B+uRNcv5af4DE/rO6bTYcPVP9N133rK0zG5bMjN716Pjus6S2eqDYqvITvUX9bTek/pl64H3R8UGzRmzBhpPcP0BVlZWdJ9ERcXN6DuD0+pr23QsSK/LCQkBGlpaR7zeEo9rUd/e17VCn/y4MGD0jb0PKL6e8rXMQ2Gc05pIL4/3JNXU1PT8aaHLsjPz8f69etPCiSnwulbWrCnoAD2oCAEJSTAKJa3iESzkjaI9TXCuTVkZuLaIUOQIpxWf61WCjahi+fmm2/Gww8/jJkzZ9LuJAe4tLQUzz33nCRwaD0jH0/Hz3Wc6QF12WWXSUFnNIxlZ8e5oqICH3/8sSRSnn32WefSwQ0FkhcXF+PSSy91Lhk80EOKHgg0gpCcYHWmbzGZTNJzU60eOL3ft2/fLj0/TnsgOXNG4Qoknzp16oC6P34JPv/8c+lD8LBhw3DllVc6l/Y+/e15RR9Cly9fLv29ZMkSDB06VPr7TGEgvj/c8WppaXHQSDjdOSN0otesWXOS6DAKh2b93r3wjYuDSjiyNqG+DGJ5k0gNQtU0iUTR9m3CwY0X6VxxgQyNiZEOmBzRcf7550ujZlH3IPrSRkyZMgX/93//J81y+8orryApKQmLFy+WHCv6ev/BBx8gNTVV+sLvvi3lp/3deOON+POf/yx9vSdH8/Dhw9LIPg899BCmTZsmjdRCX/buvfdeyR6V87vvvkNDQ8OxZS+99BLS09MhRJu0nLbdsWMHdu/eLTn0v/3tbzF27Fjp6/Lq1aulRF+c6Tjecsst0oWzYcOGY9uS3eDgYBiNRml0hgcffFBaR3Ssb0lJibQ9PXA+/PBDaeItF12JDvpND3TaD43SxKLjOK7Rq+gh5oKOJd3ccu4PglQ8OfjUuiR3lIjTYYO619G1R+fe9SWiK1w2qExy8hOuenRsBe2MM9kGPYvIDj1z5NAf6kHdK+nZyqKD6UtcomP69OkD6v7wRF/b+PTTT6Wu0SQ6rr32WufSrjmVevS35xX5R9STg7ahD6g0epccBsM5Jwbi+8Mdb3J0KJOc5AmFWJ4gnOw24XzX6vWSyHAXHIa2Npjq6uAjHLoQIQqE9yNViKB/ybknx9Y14dJdd92FRx555Fg8B81iS07xTTfdJAke+hJNzvn3338vOd7kONMXOMJVcXLKaVlBQYF0cV5++eXSttQURw4YxZJQ1yH6e9asWdKLlLp4ff3115LjSdvSfl2Qw0YvXPdle/bskfZDYomGbPvPf/4jOYL0mx6aX3zxhbSeIKFBLUW0jhLFsVDZ6G93u8ShQ4fw4osvSiKKykxDwlGXqA+FuKDykl0qB21HNxwJJ7mMHz9eEhx0fOj4Ur2YE3G/3une6Mn9QYnoyTanywbhaV1nieiP9WAbntd3TL1tg5YzzOmiN69dT4nyDnQblK8n+V2pp9tQ3v5mw0Vf2qDENjyv95Rk25By/gwUPj5IiYlBiDBmrKlBZXW11KXKJTjaKiuhKCxEnBAkicIZ1wglRAXriKuSruSCWkRiY2OlwpKoIOjLPQVAk+joCmopICed8lELBznp9AXFBTnu1N2IvvJfeOGFyMvLk1ou5EJig7anbUlYjBw5EldccQXGjRsn9bd0d+rJ2Schcc0110itGSSmXNu62y0vL5daRUhgUH0pkSChZS4Rk5CQgAsuuEASJD0RHdQCQ18F6JhSzEZ3x49hGIZhGIZheoOfLTpIIKiVSoyMikK4cJCbS0tRLwRGCwkOIUJ8hOCIFCJhTGgowoKDpVYAaoIhqGUgMTERf/jDH/D6669LiVoMnn766WMTvpDAoJYBWkdBzytWrJC6MFHLAzX/dAVNnkL9/ZYtW4affvpJagWhADWXXQoapsBoakKiLkokbOQSJerrCqymv1NSUhAjxBf97jhpCwU6kT1aR4n+dm3b0S6VjY7p//73P7z11ltSNycK5KamNFpOtkjc0D5OBTqu1BxLx5COLbd2MAzDMAzDMH3NzxYdBPUtDw4IwAThdI8RAqRyzx60CFFgzcpCXH09xgnBQQ42fe0n51luPzGCnGOKb3jhhRekfsUUzE6jM8lh9uzZUksHJRIrFOPxwAMPONf2T6gFZM6cOVI9XWWnRDEl7rEbpwrtn+JdqMWHYlJccSMMwzAMwzAM01f0iuggSHgE+ftjTHQ0LhfiIzovDxMUCowWQoPEBokOVyuHe/ep7iAnmWIxqEsRdQuiwG+Ke3BRWFgotXoQ1JJBw8TWC6FDULckmnuCujP985//PBaMTV2YKOi8M2h/tF8XZI/sng6omxWJARotpq8EAbXInHvuuXj//felrl0MwzAMwzAM05f0muggIUGCIoxEghAec4VjOy42FoniX4olIPFALRw96cJE0EhZoaGhePLJJ6Ug8/fee++EgG4a2YmCoikI/fe//73UFYlGyyIoWJvEBo0kRaM0UYA4zfvR3Sg+1P2IxkB2BbfTCFjUFel0QN3BfvWrX0mT9N13332S/fvvvx+vvvrqsXp1Bc018Y9//EMaGeuDDz6QtuuIaxx0iieh7loMwzAMwzAM05f0muggSHj4CeERIgTG2MREJMfHn9ClqqOjT/MGLFy4UMrjgvKQ0KBRpSj+gJxiykOtHLR/ykvDy1JgODnPtI5Gt3KJHuo6dN5550nburoSuVpXKBaC9ksiiAKxXXYpjoK6LrnKQvuj/dM2lGhIXuryRHZdUPckstFxWypTcnLysfIRlI+27Vi3jtsS1KJDQ/qS8KEgcVcZKBEuu51BNuh4U9cyqi9t5+k4a7VaKRD9qquuOml/ZJeG+3WvL8MwDMMwDMOcKl4Gg8FBgsDl1HYGjc5EX/w7ztPBMIMB1zwdNH+JCwqyd41V3d39QdBIYzTCGIlcEpRyOB02aFxv6npIYrSrFj4XLhtUJrlzgbjq4RLa3XEm26AWSxouvOOAE53RH+pBcxdVVlZ2O08H2TQJ20aTCTqNRhpSXc41xzCEa56OGTNmDKj7wxN9bYOO1ZEjR6QRKWlkTjmcSj362/OK5umgulOZ6MNpVx9h3RkM55wYiO8Pd/htwDAMw/QKJDgKKiqwdvduVNfXo02ID3p5MQzDMAyLDoZhGOZnQ/My5QjBUdTaitC0NPyUk4MjpaXQNzd3OXDHqXDgwAFpJEK9Xo+XXnoJX375pXMNwzAM01/xam5udshpcqFRjmi+DO5exQxGqHsVzdROkzu6oC+01Gwot0mSoGZPyi+nqxRxOmxQsydtQ3E8crfpj/UYLDZoND1ywnvyHP2l60GTsdbU1HjsXkV2qDsVCY568beDmv39/VFWWQm72GaoRoORkZEIFMvcuwTS5KQ0KMhrr70mDYBB0Mh655xzjjRASFdN+1SeZ599Fu+88440cAbF7tEkr42NjdI8TyRGXNB1T90maV4m6rrTHbTtjh07pG4M7s8DOSxfvlwa4tzTyIPudaM5mDIzM6Xl1E3i0UcfxYcffiiNXjhz5kzMmzdPWkdkZGRg165d0vGiQUZoMBXXtu7Mnz8fZ599tnQsOx5Tis+jURjpGUcTz3aEJsqdO3euNLGtiy1btkjHma5Tskv/fvXVV9i2bZs0/DwNREKxlgSdRxrmna4RmvR2yJAhUrk7DmRC+7/77rudv07G1b2KyjuQ7g9P9LUNmn+MuhpR/Kd7t+Du6Gk9+tvzirr6U91pG5psmeovh8FwzomB+P5wh1s6GIZhmFOCXk7UwpFfVYVaas2gQUOCg2EW4sJPOLs1wqHOEOszq6vRbDDAKvLQy4ygYcjJ0aYhyuklSi8rGu6chj2nPsWnAgnstWvXSvuk/dGLkP4mOzSyITn13UFOOTnMVI6eQjZddskBp/mVXGVxT+Q40NDo7jbo79WrV0vOPgkGOk5UFspHy+mjHwkPykcjNnbcJ6WioqIujyn9pn3k5+dLx4n+dt/ehesYUAsS5aPRG6lOFENAZVmzZs2xZbQPGimSllN+sk1QDJC7DTr2JJZoGZ0nhmHOPHwef/zxJyn4g75AkUrpLNEXJFKYNLIT5WeYwQS9rOnLJn2Jc13zLudIzv1BiQJm6UVPeSnQ21Oejul02CDHgJxDGpWsJzZo/z2tB32d9rS+YzqTbdD5IDv0Bd7T+o6pP9SDvpDT/UFzJrnTKhzKUuF85jQ0QB0bC18hMug7Og3u3SQczbaAAFQIB7ZaOOAhYv8B4hr0Fdcg2aMv5k888QT+/e9/S1/S6Qs5DRlODjENbU6OKg3uQO8dmluJEt0nVCf6sk5f4RcvXiw56TQiIW1Dziy1Wv7xj3+UhlhfsGCBNIofzUlE9aPREENCQlAtRFBubq60f9ov1c01lDotp3mSyHmmkQvpWFJZyIn2VBbaxgW1ptAcSJSo9YVaFx555BGpLNSSQKMT0vFMSUmRroPo6GipxYZGGCSbJBBowIfExERpqHg6FtRyQj0N6N6l+lLXMto/zTu1aNGiY4laK/bt2+fxmNLxouHXL774YmkkRto31e8///mPNIIhtSy4j25Iz0MSCBUVFVI9KViXtiFxQWWhelMdaBkNRU92SRyRwKDRI+Pj46XjRXndbZDwoOHgL7nkEul51JGsrCxp33ScBtL94Sn1tY2DBw9Kx55GwKRr31OejulU6tHfnlfki1Ld6Z02fvx46br1lK9jGgznnNJAfH+4J27pYBiGYU6JOuqKlJ2NIOHYegmnXRIbIjWKRF2t6LdNOPkNOh02Hj2KBpGfXk4u6CVEjjc53QR1lbj33nulrgPUUvD8889j6tSpx9IXX3xxQtep7qDuP+SMk+igLk/79++XBAM5vtQVybVf6vJDy6ls1MWHum9QiwF1WXr77bclh/rnlkUO5MiTw00tEzTi3I8//igJInKuOkKOgXty0dUxlQuJJXIeqKsX7YtaiVyT7pLAo6HbSfzQMjo2JBZIzJBA6QwSItTV6/Dhw6fcksUwzMCGRQfDMAxzSoQGBmKqcGoLhdNZJZz6JuH8HhMcwoFvbWqCJTcXAYWFGCWcXrtzKEaCnFmKb7j00kslp3jz5s3Schd/+9vfpHgH+tJPTjh13aFuRTTxaU8gJ5ycXfpqT1/36e/bbrtNahGhfa9cuVKat+nzzz+Xuj3R8KPUV5xaCsjWrbfeinfffbdXytId1JIUGxsrtQ5Qqwq1LFALDLWguKBlf/nLX6S4Cle68sorpe5N3R1TuZA4oy+qJCSodwPFuLgmyKXyUUsLCTk6FoXi3FILBwmxrkQHtZyQQKG6kKBhGObMg0UHwzAMc0qohPMYExKCFGrlKC1FhXDq9RTnIRzW1uZmmIXjHCaWDVUoEB4QAJVSeSx2gL7q33fffbjzzjul1ogffvhB6oq0YsUKyfmnmA+aG+qNN97Am2++iY8//liKkSCnuyeQPXKG6es6tR4QFLNALRm0708//VRqUaCv9eRoR0RESF/z6V/qbkmOPImV3ihLd1CXCRJFJHBIdJFzTt3DaLmL4OBgqasWdZdyJRJJlK+7Y9odJAhJXFALBnV/on1QKwu1TlCXK5rzh44ldWmhrmd07Kg7GgkTmoyXulm4oLwkMmiUMSrjP//5T6nV5qGHHupRqwvDMIMHFh0MwzDMKUFOpk6txsioKESL33bhsNZVVEiCw5qfjxDhrCcLpz8lLEzq/0/OJsUmEBRbQV2caNQpammgOAYSGuTQkyggx5vyk2ig1gqKdZg9e7bkXPcE6npEgdm0L0odA9ipGxI599RX3NUK05HeKoscSHRQLMr3338vdUnqOPkZlYVEB40k6UpLliyR8nV3TLuDhBkFi1MMD7Vu0GhcJFwoJoRGSqJYGIK6rVF8CcVskFCjVo7OoGNGiYQKxXVQ3VxdvxiGObNg0cEwDMOcEi4nPMjfHxNjY5EsnHZv4eTay8rgX1CAEWLdUGerAYkO+nru+hpOX97JmSXHn5zjG2+8URr6k1ocyPkl55oCoV988UW8/vrrx9JFF10kbS8X6vpDQedUBoqXoC/zJDruv/9+KeCahtglO+5Qi4j7CEu9VRY5kHNOw9GSI08tLVRuuXR3TLuD6k1dplzxLxT78tlnn0llolYdau0gSDSQeJg1a5bUEkK2OkKtM1T+F154QTpWf//733H55Zc71zIMcybCooNhGIY5ZUh4UEtBqHDMZ8TF4VzhbEbm5WFmcDCGCGeVHFYaYcc12grlJyhm4eWXXz42PCwFZZNAcPX5p1gBiqGgoGZPAdNd4Z6fRvi55ZZbpFYAGuWHugGlpaVJAoScZ2oJIBvuUCsIOdkuez+nLJ5w377jfqgVgZx1GiKXnPrOcO3DfV/dHdPuoLwU60ICi2Jddu/eLY0yRvN+kGih0bQIV5wMLaf4GIZhGDmw6GAYhmF+Nq4Wj9Hx8bh4/HgMTUqS4iHI2SdH2r2/P0F9/smRpyFWKRiaRoqi2IMHH3xQ6sr02GOPSUHUN9xww0kB051BjjEJA+pe5NqGAsNpWFr66k/dlai1hQQQtVLQ+meeeUYa3tUFCSTqBkTdhmiSPvraf9NNN/W4LF1B8RokDj744AOpG5QrSFsOngLJKdHoWtQS0dUx7QpqJXGN4EUihY4VQTEcFJxO3c9oPR0XhmGYU8FHPNifdP/61BkUWEZfUXieDmYwQi9r+jpIX0BdUP9u+loo5/5wQS9kyt/RweqM02GDHDFX3/W+roerv74czlQb1IWF7PSkX/svXQ+6PzzN0+EOXVs+YluleD8ECKeeHHtKrrHeO1579B6hkZAoWJneK9SdiL7sk8NPIoW6Y1HXIppnwt25pvz0lZ1aKmg4WMo3fPhwSSyQHZqLg5xkV35XHAEtJ5tUnri4OGm/EydOlIaFpSFgqQy0P1pP3aloVm3aL3UfIpvkhHsqC9ntCB1DOr+0DTnwHR1+Oi/U6kKigPYzduxYaT+uerhD+yLBQ+Vx1ZdaQtzL4UoUSE4B3p0dUzoHHffnukZoHbWGUJlp/xS34lpOx4QC2Ok40f5cgsSFp/rSNq5zJPc6dM3TQfsZSPeHJ/raBh0rEqt0PdD1I5ee1qO/Pa+o5ZLqTtu47hs5DIZzTgzE94c7XgaDwUEP4o4vhI6Q4KDROyhorasvJlTYNnFQysXNEBIQAH+NBgpRkO72zzC/JNSlgCYKo/7PLshZp+tZzv1B0E1K/cDpxS33Zj0dNuiLMj2oyImQ89Bx2aAy0UNEDq56kMMghzPZBjnv9IAmx1YO/aEemzZtkloDli5d6lzCML0PzZFCgmjGjBkD6v7wRF/boGNFQf8kVKk1Tw6nUo/+9ryiAQ2o7lSm66+//qSBFjpjMJxzYiC+P9zxpsy0czmpO+xiXwaTCSVCcBwoLUWOeEnVUp9S4fCQnV7BZkBLQxVycmvQahXlci5mfilsMLXUoDz7APYX1kFv7Jum98bGFuxPz0W5wQpTH5509+udrtme3B+UiJ5sc7psEJ7WdZaI/lgPtuF5fcfU2zZoOcOcLnrz2vWUKO9At0H5epLflXq6DeXtbzZc9KUNSmzD83pPSa4Nr6amJllvEwogW79+fZctHUYhOAqrq5FeXo6YMWOQe/AgIr28MD4+HhEhIdKX2S6/5lJFQcPrOX97on4ntv64A09/qMWf31mK1FAtjo9g/ssiin9y2T0udNJJfenEdeTk40YXhfNPifb1lK0zkx6XSzvxEns7eV3Hcng+d/XI37ocHz32KF4c+hI+vu88XDQm4sRtxXbuW3ZXP092v/56K66/9Vk8sPId3DAuFMm9fNKppYMCSmlSrcEGtXL0tHsV03dQsC49fKm7y0Bh+/btUrcGbulg+hJXSwd1CxtI98cvAU1mSSOxUfc1ii/qK/rb84p63dBQzgQNFU1dHs8kBuL7wx2vlpYWB3XV6M4ZoRO9Zs2aTkVHa1sb8iorUS7+1cbFwSoOSENrK2pLSqBrbsashASEC+FB/X1PtlWLrNXvYtWq3dgYdC1eeOJ8DAtSw+Mh7Y+iw2YEqtbiXx8YEZI6BhcuTkMYbGJFFTb+6wOUh6Qi9sLFmHOs62Hn9T2waROev/9+5Ii/29sMIjFkyvm49k/34fxIQE0tVyWbsenbz3D/m9ulHBKpF2DOJdfhiQVJ+POf1+KiX0/F1HExCKB1XZbvz1ie7gfL+CX4031zhDWATKx+80188MYbKKTtJZIw85obseQm93oATVkr8M36H/GPoxPx4t2LMDkgCxs+XYUPPt12bNukyx/HjYvPweI0K1pqduDt65/DutomtIduBkAXMh43vPAELhxWgbwPP8Znb3yH4zVrt7tgXgLUm/6DBzLPwqP3LcCFE5x16yVc3avoIeaCmjDp5pZzfxAklsjBJ3EttxnzdNig8fmpuZRe5nK7V5ENKpPcPqCuelDzqhzOZBvU3Y3suPrMd0d/qAfNbE0jOrHoYPoSl+ig2JGBdH94oq9t0MSMNCs+iY5rr73WubRrTqUe/e15Rd2raBhn2oa6lVH3MjkMhnNODMT3hzve5OhQJjnJE2TMIITG0YoK1IpCKiMi4KXVwiTyW+nf6GgUBwTgeyE+yuvqJHFClTkBfQ5yimtx4GgTfHN/REaVCXqTc91AgI6Nfxg0VZmoKxZ10YtldovQFunYU2BGhUGJIE17Voku6muwalFhS8PC62/CzXfeiTtvPAsTg+qx9i/Lkd5kREn6cnz63jf4ZKcW88T6WymPSJcPC0dcTRayrHZk59Wi0WByihaBQxxvcy3KSqpRXWeANFr7sfKZUHS0CKaCPUivBSzOU1PXFgJH+AwsEfu+nWwsTUVg6RH89M5POCLWt++7CNk7c5C7xwczL7oAk4aEIbClBOageERdQOW6VaR5iMzYgewfxf71VlgtBpRlapAy82JcLpVd1PNXF2BilAr+vq3QVzhgs450q9s1uGjWSIxNicKk82ZjZs3HyDlSgOz2Oap6Hffrne6NntwflIiebHO6bBCe1nWWiP5YD7bheX3H1Ns2aDnDnC5689r1lCjvQLdB+XqS35V6ug3l7W82XPSlDUpsw/N6T0mujZ8dSG4RiuhQURGqbDb4hIZCGRICmve0WaQGkfRCYDTU18OYm4tZPj6YlJCAKJHHXUEZMt7A+z9U44fdekxybEHtdR/j1hmJGB2mEAaa0FaXgw1r01FhNMPUWoi8gkZsLJ6MV95ZiuacGvjqD8FhbUBB/RCcdcVExDnKUXTgENIzi0UZ6GCEIXXuTCRrG9FSkI5Nh6lkguBUjBmXirQYO4w527BWeN1Gs/C6dQmIHToa86bGQNeSi50bMpFbXo8WKOGnjsa48+dheJhwko/F8ZKn3oDtL/4FOzAC2nN/jdtTbcDhN/HQijAkjJ+GGy8bCZcu7aq+W7cW4Oln1x9vxWk9gF1f/IQX/1CJJXseReCXT2HjbgvqRl6K+x6chyFif1SMmsxMISjq0Jg2BX+7+RPc/PA5mD8zGSFk0GoASj/BQ88ZEDlpOq67eRoiTXq07H4OT3wXKDRQBhKiFbBd9TIemqJDgJ8X3nlnJ/YeqcJDz16COLKhX49P/rYd244E47Ivf4OzxDJlzbd4999bsfFoGK5+9X6cHQyoSjcgszkUdf5jMC/BLHJl4L0bX0dZ/EyM+e0izHFsxdOTNyD1zVsxe9EYnNgwuhdf/3kTdu/1w1yXjfYVAjPaGnPx05+uwdqhf8VZ8xdiSZq8ICc5cCD5cVw2qEz9IfDMxWCxMRADAWkYVpp0jkZIYpi+guYFoSGWafQsDiTvGg4k50ByOfS3evxs0UEjVa3fuxde0dHwjYiAVaWCQeyrUaxrFAVpEQfH2NQEi3hhRZeU4JxhwzAiPl4aSlEUVSQLcj5+BF/WxKHUNwILSv+Kv/u+jCeun4Z5wwNhqjyEo2tfw1//vR8VdjOsMAjnPwJt8dfhf8Ix//DJT2GsWAP/IBMOVZyH379/E5Jy1mDz8q+wevNhVDuEk2UOxaSbf4fxfrlo3PUZ3jvYCqpBq2Ymrrj5Slwy2QeFrz2OZ/a3wGZ2wKYUQmTexXj0sYXQ/PQe3v1wHXbkVqLRroRSlYSz7v8/3DA3ESPDlFJXJBe1ax7H29lBKItdgn9d5I+WNQ/hb/VLMHr8TNw4iToDdV/fHR1FhykTe77ajJcercLVm36P/L89C3PccKTdciMWehgprramCTdf80/MvXY8xo91615VvQ4vf65D6tln46abpyCsuRKH3rgTH2hvQWTrHgTWHcDnIU/h/TtGIdrfF+91FB2Gjfjs2V3YdTgIVyy7DeR6eG1/Ef/4rgm7fOfgjf+bf6xr1jEcFlHdQ/j4kQ9QEzcZY284BxPNm4Xo+AKBD12E1FlDkawOgC4yGcmhwon23idExxpsWK/HkBeWgAYBDAhPQnR4CMK0PrC11qFqxV34U/UVmDztbNw5S/5Mvd3BouM4/e0h5WKw2BiILw16/ufl5cm2zzCnAsWe0dDGNOwvi46uYdHBokMO/a0e3Xsg3eAnHJ+Zo0fDWF0tfQlrEgWl3kUNohDN4gHSKg6QqbgYfpmZGC0EiVospwPWDsUVlOHQgTYorIGYP2sMxk08F3k7M5BfWy/tJ3d3Pl77/RcIf+BzvLFWOL0/vIO3Hr0UqWKd5HIVrkKjOg0j7v4S339zj3DEdfjh6Uq0+F+BJ3fsEE7899jxxaXQZR/Cv/5ehh9rr8QrO3Zi865d+GDJMMwMacS2PC3eWjkJD322Ft/t3IUVf1yCG6KrkVNvxb9uKULy0r+KbcS+hABZ8eIkHHrnOxw+Wi6Vz52w8Gi02YWAqayB2dSGPdvXQOVjQ0igK/qg+/qK0yclOuFSKipERXk+fhidgFBfH2QXRkldn8I7G5ra0iK1sPz9tsuxYPp0qW/s9LPOxvTLnsbHewtQJWUyivKVYdcmOxLCwzF39jTERo1A1uZdKBLOqZAogg7lOJSJI5YmpKdEIUasoQuntqYC6lAhZMalSstOutRsJjhKdyG9LQHWwBSkijJ7wQQv77X474PXY4ko23lL78aDq8rQaKRjI/DKxqGtL+C3Yt2c6dNw9dOrsDpTL5WGLuaY2CRUNbWiqrGpPT/DMKcFErk0mzcnTn2V5H5IYRhmYPKzRQd9ndWq1RgbEwOtwYACobwbhNgwCEeVWjjMubkILCzEpOBghAYGSq0k9JVWwmYGynfhQFsirAHCKR0eCtX4ibggZyfq82pRLPxKg1hePf4OXDpDi9jg9s1OIPkyjJ08E2ePdP4WVGI7/vfmA7hhyhRMmT4HUxY/hQ+Xb0Nt1TYc2fwhHr7wZayvbUHUVVdh5uzZmIQKBNcsw58veBYrtuQAYtnMJUswHm0ox3f45/1LcTnta85inPerV7FpyyHkCce3o+hAahpSDcCIHbuxw1aP/MIFGJoQhSTXPEoy6oumfNRvfAq3nDsHc8jmXZ/jf9UT8e4LizE6UA1VchQCI4MR3r7Hk/HVAaPuxKNvr8b63bul5urdOzZh9+rHccPkFKk1AsZ6mMozsNk2DRFCvSSkJSEqNgrnZG5GRpEJDaQ6Krdj9we/x2JRhulUjidyoI+fjb/eM8ezwDiJerTUb8XLt6yHdsQoTDibgtdDoAtfiHu/W4+vpLKtxOu/nYuI/zyPr3NaUG5Mxezb/oKXpXVbRXoNS2oPoHzNT9hME/b6iBdSbCKSGw1Q1zdC/hy+DMMwDMMwzC9Jr4gOmvwvWoiKkSLFWK2oFsKjpa4OFiE4wqqqMNLPT/qiHhkRIX3NoCYYwm4xoTZ9Cw4eWYfPP/4XnrzvYTzw5/9hd9UObD1ShIJyA+wKNczaaIQF+EDp6SOIMgw6/4ATArVNUeOQtuAq3EKByHfdjTvvfRx//dtNeP6Ve/HUc7fg1ku8kPXEH/HcY//D55uKoBmXijtffQwP3hMP41dv4q2HXsGrn2WhVKGEIXEW5l95A26jfd19H377wKN47vmlOG9UNEKd9o6hGY2UODWGBWUi+2g2duimIypIOPXOFio59YUyGJqkebj816KcS2dgjE4Da7EFYSlhUCm8Ed5QBEtVNcpOUjxOvIQc0EQjYcRojJ04UZpxd+KE8ZiYloAIfxXoyJv0tajY9wP2567D2y8+gYd/9xT+8dZKZOr3Y8OBCtRSVLsuHnHjF+K622/CHUuEYGgQPr/BG0GxgdI+uu4IVI3SjO34/Il1aJp/BWbOG4sxMVr4QgEf3xDEjhmLNKlsUzF2WCLi/UrRYLbBZNcgMDoJQ6V1k0SagRGhFmFPj0aKfhdCFs2NaFD5waJWwT02n2EYhmEYhum//GzRQVA/cbVKhaSwMIwJCkJCczOUxcWIFMJjqEKBFCE4IoTgoAAxjUbj7PNlgcVUhyNbdwFim5DYaPj76KDWJGLmOaGoripHTkG1yGOAf1URKhptoHnnTPp61NdUokbswTnQ0kn4w4G4IRMx49LbcNttrrQQ8xZfgIkLFuPG66ZhmL8FNbu34mBGNor8oqGafQWuu+lsTErSwJyTiYPbdiKnSfjewkjShPNx3lWu/dwk0jxMTAjxMGRrGBKHBiI8rBzrP/sO1UPGIyjAlU9efQ3KEKgSZ+PiG2/Cr2+7HbcvGo0xiiKs+HAH8lrNGBZdiZaCA1i35iDKxF6dnZKgLypC8cETl3mmDc21pTi6Kx3aEcMQEhwEjU8wwqPiMHmWDhl7c1Ba14w2ITqixy7ANaLOt4h0x/wQKMuzsfa74zY0Wn9YRJlqKmukgQOoCxQMhaKOm/D9VxkoxFBMvvZCTBgZiQgSXsY6mIt3YEexGfXUmmJqg9lgEZIiSAhHb/g2ZqGouAgHpZMrDnxTE5otatiVamiFwrDbbGgqK4I1UANVcCCLDoZhGIZhmAFCr4gOgoSETgiKoUJ4nBcTg+FCeEzQ6TAiKgqRkZEIDQ2Vgsepz6YUMGs3CIczHzsyTEhdeBf+8MxreO01kV75J1770xIMaatBRV6REBrNGGM7iE1b92Dr9t3YtTsdWUeLpa41nYmOVGU2WvN2Yt13zu5FlDIL8c33mfh8+T6xvQPxVyzCWWcnIiXUB6XZdfjsoy3Yvq0R2inTMfmisRiX5As/gxmT1XtxdPcu/LTeuZ89+7D7UDlqWkwenfvwxHCpnrs+3oWksUnwD/VvXyGzvuXSeLZOAsdi5sIJmDvRhJ9e+ACrtqTDf1ow/FCM3cuW4UtRnh3O+q1fsxE/bdiDCrFZZ8dFwlqPutoyHCjQ4fy7/4Gn/uksxz//jKfvnAefzH0orhTCzhV24y3UQugsXH79KMR65eOH/67ANwdyUGKwQhWVAEVLK2ozspBvFrsWqsNSvhU/fPA5Plp1GLYLJkNbcwgF6buRLs5ZSVkJWo+sxv++2oH1m0W5t2zAvsw85PtNRkKYL7R127Fv23oso/O2ayd2b1iDzIYQ2P3jERNoh81qQEFOHkKFAgkXooNhGIZhGIYZGPSa6CCoxUMrhEeiEBkXjR2LtCFDECMEiEtwkDA5NkKPsQGm8iPY4rgZY1NTMNYV9+AnnNzJMzGzqQy63AJYI7W46X4dPvn9Ylw+bzpueH4lvq2OwWhvLymQ3Ev823HQnyWPXYa0oENYcZMzkJrS0n/gxceewKo/LBK/zxLpMvyndQS0E+ZhTvMe1P39Miw6m5YvwmM/VaNuxrW4brQOf3jvTvjvfxXPLXHuZ/a5mH7TO1idcXIguUR8EqJSz8Olqgswf7IKoa44FJn1PSLUlLeo0zHiZwkRdCFevCITL139AFY2zMPMq+dgcdgKZ7B1e7mWvP0DVnqNkUaVUtIxad/aDS+alAVezSWorTVjn+oOXDzFLU4mOBTqcZNwYf5uNBbUorS5QzlSl+Dqq9KE3e/x8AV/wEcZepQnjUGqnx0jDh/ArjIHzEKF1R7JQG7pTmzY9zH+ftl0nH1We/kW3/8iXt3TCqtOg+K/LsZdF4jlC27FE18dwvC/3IPpAToEh0ehcceK9vMmBb//HfmTJmPcwllIpeD3tiLs2pQFlRBCx4PzGYZhGIZhmP7Ozx4y1xM0fBYNfUf/0n6lCUHI4XW3QcPftulRXAGERAXCX+vnDE6mTjotqM2vh8VPB02oBhpjNbJLG2Gx2eEnRI2vUgcfuwrRCcGoq2qGUuUrfGaxXNpeYNGL5bWormlCm3MRVGFQCpve5ibn6Ey0KAERoUHQWFpQnZ8vDfNLrQR+AeEICotEbIAokaUBZUXVaGxpA806IcVMqCOQEBeCoGNldscEo74F9SUm6EZEQuvr0z7Klsz6OnT+MNY3S3WjGA5ShXazQSwrQ341EBQbi0BfURZ9NUpqj9UO0IQgMDQcCUEqFBc3ICTS/7gNmhyQ6lFlF8dO1M8PqKv3PsEGTfdnE8ehKrsWPtHRQkCIc2WxIDI2UDqudOZoyNqGujqUNyoQkZKAELUZVevfx6of9uH90Nvx7V3jEGyvQVVtI2qapKN1DOmYhgQj0q8ZxaIiLVab1FLkpw1EcHQKIsUl5WM9+bwFiHXUqhFgyEbVzg9x4Utm3PTgTVg8OxXx1GWrl+Ahc4/Tk+HvXAyW4QhPh42BOmRuUVGRNFt0X+Pl4wtdxDBEBYknj6ESDbVVqKXJn5h+R2VlpfR8UavV0lC3cp4vXdHc3IywsDAeMleGDR4yl4fMlUN/q4dXTU2NQ05BCgoKsGHDBlmigzlzMFXvw+6N3+DVZVnQLbgP91wwBmPjet8xydi5C//+x7/Qcs49+M0laZiS4O82ceDPh0QHOVUXX3yxc4kQe+Kmo5tJ7o1K0MOA8ssREMTpsEH56SMAPRB6sk1/q8dgsUEPdLJB50Muv3Q9iouLJQfTk+jw8lZAFRyHUJ3bYB/0ocPciIraZrS2ufpqysNb4Qf/uLFIDBXHp6kE1RUlqGxxrmT6FYWFhSgpKZE+apBYiI6Olpyhnlzb7rhER1xc3IC6PzzR1zaWL1+O3NxcDB06FFdeeaVzaff0tB797XlFdV6xYoW0zZIlS6T6y2EwnHNiIL4/3OnV7lXMmYcyYiRGTjwb18+Ih054HDKv6R7jpQmF/7DZuOHCsRgZ1buC40yAHgRyHzgM0zOotdYBh0IDbWAoIsNCEO7vy9fbGQA5J9TSUV5eLrWGZWdnS0Kkrq5OEiIMwzDu9En3KoYZaHD3quO4bFCZ5H7pcNVjoDddnw4bg7Z7lS4a8TERiPd3wFxbhIzSZpjhAz9xrfr5iGtblMcm9k1XoJfdCpvVApPZJnVp9fFViWtaAYVYSd2rtFL3KgXsja6WDrG9whcqP3HdH4s1E2LHRvsQdfXyFfvwg5+3Qyxqg9lih91b7E9so/QV+UU+anDx9lHAj4y4sFtgEdubrXY4xP2n8NWI8lL8m3O9OC6u/dnE38yJ5OfnS91dqqrap50lyD+gWE5qrQgODpa6Xrm6WHcHd6+Sb4O7V3H3Kjn0t3pwSwfDMAzTN6jDEJkwDGNHj8aYYcMwbMwYjB47FmNTk5ESHXAsXkwdlpYbz2YAAHEaSURBVIyEYWK5WDdmdCpSwhXQHAvSE3iLF5k2BslDR0p5pDQmDWOHRSBE4wdNQCQik8W2aaMwLEIDjZ8XfDQhCIkbcSyff1hMe1lc21MaEYeYkPZ4QG8SOzGpGDry+Hr3/THyIKeIROqOHTuQkZEBvV4vde9kGIZh0cEwDMP0MRbYrHUoO5iFwrImNNoCoNSFSpO+egdEIzJYhSBHA5rKcpCRdQj51Ra0unrnePtBoQpFUmIofIzVKMnJQvrBbBwq0cOijER4iD+UllrUVRSgRO8DZWQsQvxDER6kQ2CgA9bmCuSW2hEQ6A9/bwOqCw4hPUPsI78aTXZ/BAYFIyIsEKrQJCSGKuDdXNpuIz0dGZkHkVPdKsrCrRw9wfXlk+I9tm/fjoqKCunrKcMwZzYsOhiGYZi+xW6H3WSEodUAo9kGq8NH6kblq/CGWggEtdIPNosRzU2NaG1thdHqgN3p51MLhJ8uCEEqX6h1gQgMjUBURJgQFTTRrB80KupWZUNbcwPqqytQb9FCFxGFiFAV/KxNqCxvQAtUUPspodXqoAsOR1SU2EewDkqxTOnnB61aJXXxUiq84KcNkGxEhATC38cMs8XGXat6CHWloi6g1KUzMTFR6pYnt2sHwzCDFxYdDMMwTN9CTrvVJgkJd/ednFOlnwre3j6wiPUmD1/DvcQ6HyEOfEVeL7Ef+orusFlga21EdXUVapuMMFqESLFaYWpuglEIGr8Af2g1PvC2tKJJ3waHrxI+3jQ8uHN7IYIcpiY01NWgpqEZTa1tsLQ2oLqhFTaFFgEhEdKktpSiAtVCjPCrUi7Ur5vm5qK4DIo3SElJQUBAwM8eTpdhmIEPPwUYhmGYXwwKWBQyQBIgNIFpR2id3dnSYGtrRENVKYry86UgZilVNKCh1SIN3eur1EKjssJuNsFsFlt6+0JJo+rREL4CmvOopa4cxe7bl1Wjok6PtoZyFJVXo66hCS0GI0wOBVRhsUgM10Hjx1/pu4LOHQ1sQUHkJNSGDRuGtLQ0SXBoNBoWHAzDSPCTgGEYhvlFoFYHs8kIu80GhY8PfBXu0ePtkCixmNukvMqQQGj9NVA717mjUKvhHx2HEJ9m1BeUoLzKBJs2FAlJwfCxW8SObPAV22pDA6AV+U96+TlsQEsFCnMPI+NgLvJK66WJZLljVfeQ4KDRdCj4fsaMGVILB49yyTBMR1h0MAzDMKcMxWb4R4/CsMRYRAUJOeCngW94EkYNCUeAtpsJrIQQMNeXoabZCJM6DBHJo6QRo4aE+0Lj2tRqhKWxFIdyylDd4gtdZDKGjRuHcc40Ii4ScXEJiEpIRlyADU2lFdC31qO+uRl6vRcUukgMjbCgpqYGJbU2eAfEYYjYboxz+9TkGMSGBUITOQyj08a27zdtGIZGa+HXXI68cj1aejjB4ZkCiQ2aEHDChAk466yzkJCQIHuYTYZhzjxYdDAMwzCnjhAOppYa1FWVoLioAHn5BcgvrkBFbQtMzfVSd6i8olIU1RthtTtg0legqjQPRUIc1LXaYbUYoK8uRVlJMYrLKlBZUYGy4nwU5OehtLoeTW12OCxtaG2qRVVJKUpLylBeWSnNkE6ptqkFTU166GvKxHaFqKhrRavFCrOhEfUVJcgvpPz10NfXoraiHKWFJShz2749psMES0u9FCMiLa8Q+yorQ1FZHRqMFqnczMlQ7AYFipPYoKBxEhzclYphmM7gpwPDMAxzyjgcdpiba1BfWyVNEiel6mpU1Rtgam1Gi74OVbX1qGk2S7EZltZG6OuqUFvfCLFIbC9ES3MDGmrctnemer1BCAjJCmAzormhDjUd8tQ1GSTR0STsV9fUQG8UQsYutJDFCCMJFVdZTK0wCju1HbavbWxGMwWSG8S+heg4tq5G/G40wiIEB0sOz2i1WqlbFf0rZ/I/hmHObLypnyz1mZWT5ECjgtjbjDCLF4C5phLWZj0cNm6aZgYG7te7NMpND+4PSkRPtjldNghP6zpLRH+sB9vwvL5j6m0btJxhThe9ee16SpR3oNugfD3J70o93Yby9jcbLvrSBiW24Xm9pyTXhldTU5OstwmN8rF+/XrcfvvtXQaI2YwGmEqL0LhlPRwWM9Qj0qAbMwl+IWHOHAzT/9i4cSOKi4tx6aWXOpcMHsxmszQjsEql4q+R/QCTySQ9fNVqT+HQ/ZPCwkKUl5dL8y0wTF/R3NyMsLAwxMfHD6j745fg888/R25urjRS2JVXXulc2vv0t+cVzXa/fPly6e8lS5Zg6NCh0t9nCgPx/eGOV0tLi4Mm8enOGaETvWbNmi5Fh40mfio4iqbt62GtLIHdaAJUWihHjEXQwsVQ6QLgxf09mX4IiQ7qw00PMRdWq1W6ueXcHwSpfHLwKbhS7kRYp8MGTbZGswGTwyinv7XLBpVJbv9sVz1ojH45nMk2DAaDZIf6wMuhP9SDnBsS5Sw6mL7EJTooTmQg3R+e6Gsbn376KbKzsyXRce211zqXds2p1KO/Pa+OHj2Kzz77TNrmuuuuk0ZKk8NgOOfEQHx/uONNjg5lkpO6w1JXDXNpAXwdFngJh4h8KHtVJYwZ+1GXvg92DxM/9RfoANfW1uLjjz/Gli1bnEuZMw33653ujZ7cH5SInmxzumwQntZ1loj+WA+24Xl9x9TbNmg5w5wuevPa9ZQo70C3Qfl6kt+VeroN5e1vNlz0pQ1KbMPzek9Jtg0pZy9hN7XBbjTA20cUWPz2sljpMyvaamvQUF4CWyexHTSUIXXdeu21146lb775BkVFRc4cvcORI0ewfft2568TIdHR0tKCbdu2SUqaoC4p9PV7xYoVx8r11ltvSWWtq6uT8vwcqMuCe5337NkjLXv77belv5uamqR89JW6urpaOiZffPEFPvzwwxO2cyVS/4cPH5ZUKsMwDMMwDMP0F3pVdPhodfDR+cPc3CzERgugb4DZZIJRpYRZo5ZGAKFmGBfk6JPg2LBhAz755BO89957x9JHH32EzMxMZ87egbqI7d271/mra6jfXElJieToU+uHq1zvv/++9Jv6N/9cSFS9+uqreOSRR/DKK6/gwIEDkmh4/PHHpaZT6s5AAoKarejv//znP1i2bJnUl/Odd945YVsq26pVqyTBRCKFYRimN6FnNz2POHHqq+TuHzAMM/joVdHhGxIBRVQC2sx2eJktsBvb0KJUoyUuGaoho+ClUDhztmM0GiVH+a9//as0zvfOnTuPpdmzZ0tNNQQ9iKjVwZVIrBD0r3vqjkWLFuE3v/mN81c7HffteuhRC8cHH3yAhx9+GLfccsuxcpEIiYiIkPIQZLfj9pRcZXLfZ0cmT54siQWaVIlaUG699VYEBAQgJSUFO3bskFpmXK0dLu655x58+eWXklBz35bKRsJt8eLFHIDHMEyvQ04hPY84ceqrRNcYwzCDFy+DweCgYBGXg98Z1Erw7bffdj16lXCu26oqoN+xEYpd61FeVY/mIWnQzD4HiWPGIjAgUOrT5aK+vh733Xcfpk2bhgULFpwQEETxFVQuCiwjR/8DIQAogIaYOnWqtB11KaKyUCsABZ+99NJL0vrOIIFD3Zd+97vfSb/JBrUYkLNOwoBaCGi88TvvvBNpaWl4/vnnccUVV2DevHmIjIyUtiERQWO4BwcHS8GVtM+VK1dK64ilS5di4sSJUktFXFwcdu3aJQmBO+64w5njOFQfatl44okn8Nhjj2HmzJnYunUrnnzySVx22WXQ6/WYPn26VN+O+Txty5w6rkDyq6++2rmkvVsbCUc59wdB11BbW5sUTEWB3nI4HTboWqHWMgo8c7//OsNlg8okN1jdVQ+5sxGfyTaoGyc5VzS/gRz6Qz2yjx7FwfxStKoiYPOSVwaG6Qk+Diu0bTVIjAxGSnLygLo/PNHXNshvoQ+T5DdRQLUcTqUe/e15Rb05qO5Upuuvvx4jRoxwrumawXDOiYH4/nCnV1s6hNcEb3KGNBr4COfGrtFCGxePiOQU+OtOHjmHHKGMjAxpeDwarcIdEhH01Z/SlClTJLFDrRQ0uhCto6/93333ndQNau7cubjoooucW3YOiRz3blEUO0EXMLWA3H333bjhhhsQGxsrrWtsbJRuaGqNoFlXXdABjYmJkVoToqKicPbZZ0vlokT7ofJ89dVXkhNLgojEA5W/J9CJppYeciwLCgp6PbaFYRimJ9hsdvGis8EGH1i9/WDxVnLi1GuJrim6tiziOrMJZ4dhmMFJ74oOgRRALhJ1KKIRrFRqDXRancevsvRll5JGiJTOFBXNLRAdHS2pLlJfpPAoqJoCwun36NGjJceeWkp6ysGDByVBcdttt+Hmm2/GNddcIwkKgspFIomEQ2dflEkQhYSESOVwlY3mM8nKypLqQy04tE9q+egJLmEzatQoSfxQVyuGYZhfCnq2Wc1t8LMb6bOWcynD9BLimlKKa8tqaoWVBqBhGGZQ0uuig2jvJCJeTDRalUgOh+cvF+TUk9NPDj691DxBXaDWrl0rxS1QV6jVq1dj37590nLqvpSamorw8HBn7p5BXaaoaY7iSTpCzURUNlczkydIYFCLyxtvvIF3331XmseEBAc1Mw0ZMkQSDT9nXHvqVkXdvUgcUVerzsrBMAzTl/gqFFArvOFnNYiXhk0sYeHB9BYOeDts0rVF15ivQl4XEIZhBh59Ijroq4Wvlze8/XwBpR/g47mlgBx6mtwmLy9PcqrdoT5ilGi0qT/+8Y9SfAUFT3///fdScHdvQTZcuP9NsSSHDh2SYkBocjV3yPmnvDSS1A8//CDFddBQuxR7ctVVVzlz/XyoG9n48eOPBdlTdzSGYZjTTUJCPEaNHAYfiwEKuxlebs9Khvk5eItria4pb0srRqd6/gjIMMzgoNdFh7dKDUV0PGqDo2BKToVPZKwUm+AJ6rpEAdYUdE3JHXLoN2/eLLUUUFA3PYgojoKCxkkM9AYUL0EB8tRqQg49OfYU90HQCFIUP0KjRdGcGS5IjLz88stSEDm1lIwcOVLqCkVdoqhcVL7eZMyYMVKLDrWmuALpGYZhTif07FWrVGhr0UPXWgU/Wyu8uLWD+Zl4OezwFdeSzliFNkOTdI1Rl2qGYQYnPo888siT9OWekvvQrx0TTYZHLRKTJk2Suh51hpe3N7zUGjiCQqFMGgr/WCEWdP4eI9pdsQvUykEOO7UUUHclStTCkJSUJHVx2r9/vzSq09dffy11XyJhQPN7EBTLQYHocqD9kMA477zzpN9kl0QH2fvxxx+PBZpTl60ZM2ZIgeI0UhVtR7YpH3X1omNBcRrUAkLr1q1bJwWPU8A3xZvQfilOhUaton87g+Yheeqpp6T5OUjEkAij/FRX17Yk2KhVhYYTpPKdc845Un2plYjqQq0/c+bMkX0MGM/QuaPzRt3tXNe8q0VLzv1ByZXPtY2nPB2Te34527jy9cSGq4sgdWfsiQ1Crg3KR2Wi5Gl9x3Qm26APHJSXnn+e1ndMp2KD8vVmPWgZdYP1E8+j6qpy+EBcT6L8Di+FSH3TYM4MbrwdVqisLfA11sFu1CNVPHtdw9HT9TaQ7g9Pqa9tkC9EvgjFlZLP4ilPx9RTG5T62/OKfD+qO+WlLuw0ipOnfB1TT2xQ6ut6UDoVGwPx/eGefB599NEn5Qyj2dDQIFt0eCtV8A2NgCY0HCpnEDm9sDpCdqkLEQkLKgzZoLyUqHVj3LhxUrwG5aOAatoHOdfkGCYnJ0s3Go0MRcPXyoFiLegGpdYJgvZNdsmZpy951KpALSpjx46VYjJoPT0EyRmlOUWoXCQEaEQrKh/FW9ABdpWbhq4bOnSotC0FuJMw6epY0QODRs+i+tBwplQuElp0MblvS2Wj0b2o1WfChAnH6us6ydQFS+4xYDxDooOEHT3EXNANR8i5P1zQOaH8nq53T5wOGxQvRdvQ9SR3m/5Yj8F0PshOV8+GjvSHelB56QVPItbS2gyH1QxvL+qP7xDbiAwiib/a/2CYDlDLmLdDXGNCbPjZ2qC0GuDb1gCNlwWxMdHSe5BaOQbq/dGRvrZBsZ7kQ5D/RP6IXHpaj/52Pshfo7rTNlRvqr8cBsM5Jwb6/dG783T8wtDLkBQw/esJ6g5FI2H15GQxZwY8T8dxXDaoTCSA5eCqR1+OTz5YbAz0cdYJirWjl7/N4Y0m8bi1+ulg81HC4U3XJF3H3V/LzJmEcGKE4PBy2OBjbYPC0oJApY80KEFoSMgJIzwOhvuD6GsbPE8Hz9Mhh/5Wj0ElOqhrFA1TW1FR4VxyIr/97W+loHQSHgzjDouO4/S3h5SLwWJjsDhV1PpMrd9ZWQeh1uqELT9p5CFvGdcxc+ZhtztgsdlgMptgFPcA9RigHgsduyCz6JBng0UHiw459Ld6DLqWDrog6V9PuLpLkcPGMO6w6DhOf3tIuRgsNgaLU0UTodI21EXV29tHun67uoTJBl2HdO3Kbban4+S6P+RwKjao6yzZkTu8eX+tx0CwIX5Ky+x2myQ2aD8dbbPokGeDRQeLDjn0t3oMKtHBMKcKi47j9LeHlIvBYoOdKj4f3cHng89Hd7DoYNEhh/5WD3mfNxiGYRiGYRiGYU4R2S0dNPs2Tcx36aWXntQHk2EGOjTLPfVRp6GKXbjUvpz7g3CpfW7p6J4z2QZ/yeXz0R18Pvh8dAe3dHBLhxz6Wz1kiw6af4JGLGGYwQrF+9CQ0C5cN56c+4Nw3XgsOrrnTLbBThWfj+7g88HnoztYdLDokEN/q0ePRAdNhEfxHHKcI4YZSFBQbEBAAIsOQX97SLkYLDbYqeLz0R18Pvh8dAeLDhYdcuhv9ehxTAc5LbRTTpwGU2IhzTAMwzAM03dwIDnDMAzDMAzDMH2KNzWLUDNKd4nyMcxgpuO9QL/l3h+u5Gk/XaXTZYPwtK6zRPTHerANz+s7JrbBNuQktuF5vafU32xQvp7kd6WebkN5+5sNF31pgxLb8LzeU5Jrw6upqUmWmqirq8OhQ4ekfu9y+oUzzECCJgijUdnS0tKcSwYPFM9BE7ipVCruRtYPoPgheviq1WrnEuaXhM9H/4LPhzw+//xz5ObmYtiwYbjyyiudS3uf/nY+aM645cuXS38vWbIEQ4cOlf4+Uxjo94dXS0uLg4JSu3NGampqcODAARYdzKCERAcNkjBx4kTnkuOz78q5PwhS+eTgU4A3xYnI4XTYaG1tlQLDaMZluYHkZIPKJPded9WDAsnkcCbboMB+skOB/XLg88HnQw58Ps6sY/Xpp58iOztbEh3XXnutc2nXDIbzQYHkn332mbQNBdBTIL0cBsM5Jwb6/eFNjg5l6i6d7i+kysBoRMYPRVJcNMKEoPPmD7SMG83NzSgvL0dlZaV0g/QGHe8F+i33/nAlT/vpKp0uG4SndZ0loj/Wg214Xt8xsQ22ISexDc/rPaX+ZoPy9SS/K/V0G8rb32y46EsblNiG5/WekmwbUs5ewFcTjKDQKERFuaXwAOg0vs4cPcNXE4TAkAiEhgRBK8SWqAvDHINaJkhw0FcPmriytrZWUtoMwzAMwzBM/6PXRIdCHYiA0BjExCUiJTkZKfHi79BAaFWnJjoYpiuo6Y/Gqy4sLER6errUz7OiokJqAemtlg+GYRiGYRimd+g10WGsK0RxSSEKqpoBhw1oLEFBSSWq6o1ibXtTzcmpfVsJ+uG+zrn4RNzWH0turSCuZfRn+xKBe772Nce3Pb7uGCetE4kWt69l+hnUl5BiFqjFY/fu3cjMzERjY6MUOM0wDMMwDMP0D3pNdHSKMgABUckYO2YMxg4bhhGjRyN17FiMHT0co5JCoFW09/FSBkQiKlksp3UiDY0NQFDH4HxNKCIThh3LI6URcYgJ0UCtDkBwwliMThuLEXGhCNEo4O2nhTZyGEaNFrZFvsjoqPayuG+fmoyU6ABQuAwJC01oEhKGua0XybU/pn9DXa6Ki4uxbds27N27V5pFnwKoGYZhGIZhmF+Wvhcd3j7w8VVBq1VDq7LBpK9DU5MJZp9A6IIiEKzxhq8mEAGBQYj094HSokdNVSXq9G1oc/mLXqKYigCEhYciUAgRS1M1KiqrUKEXGZTBCAkMRKCvVey7Bk1WpVgUhsDAYARpdQiO9IfOzwRDqxcUfjqEB6sAQw2qqypQ0dAKk5cWgUGhiAgU2wXGIDw0CIF+1nYbFSKPSNVNrWi1HB8bmumfUJcrGk6OWjpIfBw8eBClpaUc68EwDMMwDPML0/eiw4XDAdiMaGmoR4PegBaLAl6+OqiV3lD5B0vDlaq8zTDUV6Gmphr1LWa0ObvmUxcnH3UQggJ00KopqtwZBU9dnxRqqDUaaP3sMAqhUFNVg2a7EqqgcESGByJYbUZTTY3Yn0PYUyNQq2zf3pm8fJTwU2oREqCCQhMEndoXKl8vKY/YPWyGBrQY2mBk0TGgcO8exzAMwzAMw/yynD7RQZgtsNrt6Oi+K5Vq+Pr6wWqzocVohJ0EijtCAPiqtVD6+EDpp4YmMAwR4SL5+8BuaUObyQKbwwsOuw3G+krojXZ46YIQHOYPta0JtVV6mKCAQthQKkTyD0VYeITUuuELM1qNbcI2YLcaYWwzwy7EUFBUIlKSkpAQFYJgnRAmitN7qJieQ/NW0IQ5oaGhSExMxOjRoxEXFyd7rGmGYRiGYRimbxhwnrSluRY1RYeRkZFxPOUUo7CuPWAdXtRy4Q0f3/YgY8L9Y7etrQVNZUdw8GDm8e2P5OJQuR6tNQXIL61EVUNr+7bewomNHIIhseGIDFA698D0R6hFgwRHfHw8pk+fLk3yFx4eLk2ixzAMwzAMw/yy9AvRYTG3wWq1SF2mVEo/Gl/KucaJEAAmkYf67Pv6a6ELCYS/WNyx44yXjw/8o+MRrLLCXFWO0sJGNCnCEJsUBuqVJYzAR6WELioMAcKWR3e0tRZVxTnIyDqCQ7lV0Ftt4HGQ+i8kNjQajTQr6dSpU6XAf5qpk64lhmEYhmEYpn/g1dzc7CAHrbu+7zT5Gg1HGhAQ4NGhoxnEg4JDEBaoRiCN9GRqgb6xBhUGbzj8gpEaqwPqCnC4rBFtqiiERcUjVmcWizJQaVRDFRKNiBAdVNZmNJts8FYFQqNWwqutAbXFR1DaJsSGfyjCI/yhU3nBpDeCQj6oLcPa2ix1sTJrwxAuyqAwFqOhphGNZg108fFI0llhbDGgySjy+yoRGqaEud4Ai90hdfWym41o09eiDqGi/CohUET9vHzg7eMLf7UFjRVVqGloQZOJ53/oL9DIVGVlZdJwuTQRZXBwe1zQqXalopGvtFotxo0b51zSHphOLV5y7g8XNEcI5Zcrek6HjbY2EvVWSZzJ3YbyU3c1uWVy1YO2kcuZaoOuNRrSma5XufD54PPRHXw+zqxjtWzZMmmo+GHDhuHqq692Lu2egX4+aE4uqjttc80110j1l8NgOOfEQL8/JA9EbkG6RBTQYTHC2FyPyqpqVDa2wmgWBbeYhP5wLTPCZLXD2taClvpKVFXXoNFog8loQHNDLapr69HQaoHVZofZ0IDG2krU1DUIESL2TSJG5KmqqkNtgwEmcVBsItHBoRgQOkAOmxWmpmrUkeBoaUWbWQgFYbeqtgWGlmY06euEsyrsVDeh1Wprjy9xJakSbr9tohzCZoNwbmsaxfYsOPoV5EBHR0dLD5ykpCSEhIT0WexGT++PU7mf+qMNhmEYhmGY3sLLYDA4yFnrziGhL8v79+/vtKWDYQYy9PXA398fkyZNci6BNMcHCVA59wdBwpdaFXx9fWXHkpwOG+Iel4YNltvtzGWDyiT3S4erHkqlvNinM9kGzaRPX4WCgoKcS7qGzwefDznw+TizjtUnn3yCI0eOSF2Lr7vuOufSrhkM54Nad6juVKbrr78eI0aMcK7pGr4/+kc9WD0wDMMwDMMwDNOnsOhgGIZhGIZhGKZPYdHBMAzDMAzDMEyfwqKDYRiGYRiGYZg+hUUHwzAMwzAMwzB9CosOhmEYhmEYhmH6lB4Nmbt3717ZQ24xzECChnwLCwvjIXMF/W2IPReDxQYPCcrnozv4fPD56A4eMpeHzJVDf6uHbNFRVVWNXXv3oVUZCruXDxzo3kFimIGAl7ialdYWxIdoMGXyZOfS4zeenPuDcN14LDq650y2wU4Vn4/u4PPB56M7WHSw6JBDf6uHbNFRUVmFbbv3wqCLh9VHLYQH98xiBgcKhxkqYy0Sg3wxY9o059LjN56c+4Nw3XgsOrrnTLbBThWfj+7g88Hnw52cnBw0NjY6f7Wzbt06FBUVIT4+HgsXLnQubYeO3bBhw5y/jjPQzgfVmeruTnFxMb7//nupTFTvxMRE55p2qN6eysr3R/+oh5eogIMcmO4cnvLycmzavhMIToDJNwA2b1/nGoYZ2CitBigMVYgJVGL2WWc5l0K6senGk3N/EHTjkXNPYkDuzX06bLS2tkoPEZpxXa7oIBtUJjn5CVc96KEjhzPZBolAskMiUA58Pvh8yIHPx+A9Vp9++ulJzndWVhZqa2sRGhqKMWPGOJe2Q60fV199tfPXcQba+aBWjc8++8z5q526ujqp7pR/7NixUv3dueaaazwKroF2zjtjoN8fXk1NTQ7n311ComPL1m3QRcTDoI6ExUflXMMwAxt/cy1sDeUI0akwZ84c59LBAz0MbDYbVCqVLGHD9C0mk0l6oKvVaucS5peEz0f/gs/HyaxYsQJ5eXnOX+2Q400OODndaWlpzqXtDB06FJdffrnz18/jlzwfubm5WLlypfNXOy7RQVC9O4qOK664AkOGDHH+GnwM9PtDdksHfS0tLS1FXlEpGhUhMPn6S7EdDDNwcUBht0DXVoXYIDWSEuIRGRnpXHdc7cu5PwiX2ueWju45k23wl1w+H93B54PPhzt6vV5yNt2hFoDs7Gzpq/7SpUudS9uhbjGejt9AOx9UZ6q7O9T6sWzZMmmba6+9VmrVcYfK6alb0EA7550x4Fs6RAVkxXRQAZqamvDThg2w+OpgUYehTeEPB385ZQYkDvjYbdCZa4GWWgwfkoTUkSNPuMlc/Rrl3B8E3XjUr5FuPLnxFqfDBj2k6IFADyk5Dx2XDSqTXGHTl31AXQwWG9xnnc9Hd/D54PPRHX/4wx+wdetWnHXWWXj22WedS7tmMJyPLVu24OGHH5byP/fcc1L95cD3R/+ohzzZIyBnRaPRIDYmBmq7CQpjHVS2Fvg4bM4cDDMwoNGqfG0mqMwNcDTXICI0COFhYdINwzAMwzD9FXI4CwsLUVBQIP1LiQLKqQvtYKe+vh75+fnH6kx/NzQ0ONcyAwHZooOgr6sUsBQeHiqER5s04o+f1QBfIUJ8HFbhzNlFLlkhIgxzmnHAWwhkH7tFXLNGKM16qMX1q1EqMHLkSMQIMc0wDMMw/RnqcvTTTz9J3Wbpaze1ZP/444/Sl+bBDsV4ZGRkSPWmRH93DLBn+jc9Eh0uJk+ejOSkBNgNDQgwViCgrQpqa5MkPsixI/FBX5M5ceofSYgNhwW+tlapO1VAW6UQzNWAECDnzJ+PyIgI55XNMAzDMP0T6sZCImPVqlXSR2AKpKbuLKtXr5ZECK0frFDdSGSkp6dLH79Hjx6N/fv3S0Hlg7negw3ZMR2Eq98WXezUxNfc3Cw1be07kA6HtwK+KjUUCl94c5wH04+g69Zmt8NiNsFsbEFCbCyGDR0CnU4npc7iHFz9Gk/l/uCYjq45k21wn3U+H93B54PPhydqamqkmIY333xTmp+CjhENm1tWVoY77rgDs2bNQlhYmDP3yQzk83HgwAEsX74cmZmZkuCgMh0+fBjjx4/HlVdeiXHjxjlzeobvj/5Rj1MWHeTwUKGMRiOqqqrEWi/4iGUkONx3Rf0MaTu5DhLlpQNKBZfjIBHU3Eh2aAgxufXoqY3TUY/BYqM/ng+7XVy7pjYyJjnfwcHB0g3SFa4b71TvDzmcDhssOvqXDXaq+Hx0B58PPh+eoK/8b7zxBsLDw6U89B50QYLkrrvuOmnODncG8vl45ZVXpDgOGoWRbFCZ6B1IH79TUlJw9913O3N6hu+P/lGPnyU65OAqfF/aOFWnqr/VY7DY4PMxOM4Hlak/PWwHiw12qvh8dAefDz4fHaEgaordePfdd/HHP/5R+spP86fRMO/05f+ZZ57BLbfcgvnz50sf1TwxEM8H2abpGp5//nnExsZiwoQJ2Llzp7R85syZ2LdvHyorK/Hggw8iLi6uU5t8f/SPesj7rMwwDMMwDMP8IlAQ9cGDByXHm1ozAgICpOX0MYlm5iaHm+IbBltgtStwnhxtmvSQWjVc0N80Twk5yWdKMP1Ah0UHwzAMwzBMP4W+JFMQNQ0Re9lll500GzX9puU0a/lgCqymelBLPQXOk7jw1HWMlpEYOROC6QcDLDoYhmEYhmH6KRTLQXNTUJA4BYt37PZC3VpokjxaT/N3kEAZDFCQPE2ASN2DqTUnOTnZueY4tIzWUYsI5a2rq3OuYfojXs3NzQ7q5y2nPzlBTVyUX07fcIL6hZHy7Esb1KRG29DkhXK36Y/1GCw2+HwMjvNBfTPllslVD7l9Rokz1QYNvkEBoDRymlz4fPD56A4+H4P3WL3++uuS6Jg4cSKuuuoqadmyZctw9OhRqQXg6quvlpZ99tln0jCy5IjTaFaeGEjng0aqeuuttyQxtXTpUqmu1H2M6k7bXHPNNdIyOg6ffvqpJFJuv/12aSjhjgy0c94ZA/3+kDwQuQVx0dP8BNuQD9uQD9uQz6lswzAMw/wykHNJo4OSUx0SEoKpU6c613hm2rRpUhA55aftaPuBCo1KRaNVFRcXS8HxFDDfGVFRUTj77LOl/JRoW6Z/wqNXnWEjGfH54PPRHS4bVCa5Xzpc9RjoI4OcDhs8Og+fj+7g8/Hzzgcto33Qvsjx9vZu/wLresTSOqoHbSMH2h89Q+m525PW4p9rg443CQiKV6AuRIsWLZKWE99//73kYMfHx+P88893LgW++uorKa7jkksuwfDhw6X9uTiVetCXdaoLDVUrh946VjQi1Y4dO7B9+3Y8+uij0vuLIBHyww8/SNssXLgQCQkJ0vLGxkY8/fTTUjczEl8kRNzp7+fcy8tb+k2pvSVDC5VKdZLtgf68YtFxhjmgfD74fHSHywaVqT85I4PFBju5fD66g8/HqZ8P+k1OG/Xt371nD/T6ZuG8qZ3ru3/GMswvAc0lZhXXbZvJhLZWAyZNnIjk5CRotdoTfAMWHd3gKnxf2mAnl89Hd/D5YNEhh9Nhg51cPh/dwefj1M8HdSvavXsPlCoVDBagzVsFq0INh48f7F70/Ov+OcswpxcHvMR17O2wwttqgsLSAn9qoLJZECp1q5vSnk0w0J9X3XsgDMMwDMMw/RzqbpSZdRBtNgfqHFq0qMJgUoXA7OsPs48aFiFALN5KTpz6WRLXpY8KZoUWJmUgTJpINHgHotmmQHVNLXbu2iV9OBwMsOhgGIZhGGZAU1ZWhvzCQtQ0GWDThaPNLwgmhU5y6uxePvQt2ZmTYfofdH3ahUtu8/KFSQjkNiGULepQGLyUKCktx9GjOVIrx0CHRQfDMAzDMAMS6tpB3UFoKNXahiZ4C8Fh8A2F1duPhQYzYLF7KdAmRLNZHQZvlT+yDh1EfX291O1pIMOig2EYhmGYAQk5YeSMefso4NCGolUZ7IzdOI7QJbDbfkYiP492wjCnEYe4ji0+GrRqIqDWBqDVaJRGExvIsOhgGIZhGGZAQq0cNGN3fYsJVh+19IW4I5WFDqx63XpK6Zt37NjypR3VZdUwGpphs1mde2WYvocENHURtPpqcfBwtjRk8ECGRQfDMAzDMAMWm90BMzlmnXSp8vbxgVKplobOVas1x5PKmTz8TXlpGz+lCt5ePijLz0FjTRUsJpNzrwxzeqBYDwoyNzu8xLXO3asYhmEYhmFOOzTUOAkEh68aNu/jE+G5ExSiwNR5gbjskmBceWkwrlgcjMtFusyZLr04CJeIdLFIixYF4aKLgnDhhUFYKNLsswOQMNwPdZWFaGqog9UyOEYRYgYQ4ho3+6jg46eWPVR+f8WrpaXFQWP+y50jgIbtokrLHe+XxhOmPpd9aaO1tVVqYqUZM+XOQ9Af6zFYbPD5GBzng8okJz/hqgeN0y2HM9kGzZtCdmjeFDnw+eDzIYcz9XzQZGpbt25FtXeYNOKPp5YOlVKD6NBIzErygbfIQS0j4v+ifBDlEg6dlSZms7dvK57DJqsdFpv45eWNeoMDu45W4buPn0PCiNFIGjEGASFhzj33R6ywtDaipaIUepMaEfFx0Phrnev6EJsBbU11qK1ohEUZjtDoEOg0yjP6y7bDboPNaoFDRpc8iknyVgg/wNvze93bYUOgsQwpEYFISkoasM8rr6ampgEfHUWVpRlIacp4OY4b07fw+ehf8PnoX5iEk0QPdLVa7VzC/JLw+ehf9PR80PNt7969qPAOl0b78YTKT4iOkAhMivWCvsWEFqNVEhgKH2/o1Ao0GMxoNdnEbx9oVL6obTLBZLYjyF8Jh5cP9gjRsfazF7sQHQ7J8XKI5yx1fvHyFg6kEDPHnrYOu1QnEjokZLyF3b57EjeiNnMNdr76V3yfNxK3/OUxjJkx0bmuD2k6gNyNy/H5y9+idMgtWPrbxZiYJgSPc/Uvht0KG52bEzzd9nPg3cfvQ3NrM1rrK4UYq3cu6RxVQAg0IVHw0/g7l3TEgdC2MiSHByA+Pn7APq+4paMf1WOw2ODzMTjOB5WpP3wZcTFYbPCXdT4f3cHnQ/75IJGyfft2lHuFdSo6lH5qRAW3i446fRuaW6kegK/CBzqtAo0tFrS0WSXRodP4orqRRIcog84XDm8fpOfU4IcVLyFxZFonoqMcVQc2YPu//4cj4lfC4icwZfoUDIsQP+xtQP0mrH93FbKO+MF//HmYf89FiBOr+qajDIsOF3ZTE5p3vYQv1x1EYblrjguaZXsm5t57BdLGJSGkfWGf4LBaUJOXgdrcDNjM4jroBB8/JcKGjkPokLHwUXjuIki0iw5/JCYmDtjnlRB6XlImuYnoyTaU93TYIDyt6ywR/bEeg8UG4WldZ4noj/UYLDYIT+s6S0R/rAfb8Ly+Y2IbbENOGkw2usQhHFDhRNnEvzYhNiziP2ZKVpvUjYq6V5kt9G97tyrpb4tVEh70r93eXfeYACgUKqjVR1FVchTFJRVobHIObUrb1uaiqPgo8lqF4NEESI6ujFIzP4O26sMo+O5JfPHFD8hqikb4xMU4d8n1mLdoLhK9NyFzzz7k5NY5c/cNXj4KKP2DodQFwdJm6DRJeUSiLlZy6K/3oJxtfB577LEn6YspZZYDKSDKTxvLgW50UkF9aYO+4va0+0h/rMdgscHn48w9H9QCI5cz1QZ9ESI7dD7kwueDz0d3nKnng55tJSUlaPbSSKNXecJHOHMaPw2i/L1haLWg1SQEiJ1iNgBfXwUMbXa0mW3kNUl1a2oVYkOU20/hBbvDC9V1BhRl70FQeASCwiKhVHf8fu8Hb0sTvA0HsP9oC9rUqYhJjEN8XCC8zAY07v8fdh4ogDFyMobNPA+TEtTwMuYjb+dWHNm7C7lHMlCYk43CZg0CtGpovBuhL8lA1sbNOFqhh754D0qP7EF2ZgaK846izhEBrUYJla84prYWWBqzceinn3A0az/yj6QjX/xbmJ2PGkMYJs2fg8h4HVoqspH7wzocFrbyyd6RPNTUGeEdFg2NOJ3e+mwUZO3Egcw8VLSqEGk7ioN7S1DXBqjCAqT2gS4xVaK+6BAO7TyKppChiNJUoaU0C7nuZfauQUPOXhzathU5UhnaU2WDGWbfEITojn/lb61IR2nG9ziw93i+wsoWtDh0iAzupmtRSymqstbhp1X/w74joYiYuwRnLVyIaVPGIzYpBoG++Sipj0CgygfBKEYWHTux/wKnnbLyauh9IhHi7wsfb3GRiP3V5u3Gzu172s+RpRhVuYXILzZAHRcmHRuPb1ZxPUnzx9htUjcrO0364g5db34qhA0ZC//IBPj4dn2UNdZmBGuVCAoKGrDPKxYd/ageg8UGn48z93ywU9U97OTy+ZADn49eFB3eCqiFcxfp7yUEhg1Gc3urBz0PSXS0imUmi0389oZC/G4RosNitcFPOPUOhxdq6ptRLJzlzkUHoPAywdeux4HtR9HYEoCQxATEDouB0lyPgvWv4lCOFQEjz8HYGdMQ7VuO6vTV+HHlOmTtS0d5gXB40zdhV5kSYRFRCFVWonr/l/jq5bexI78FptpMVBXsx5HdW3FQCJFCaypSEsMR6m9DW81hFO9YiW/f+ALZRbkoKytAVXEx6upbYLSGYcrccaLuNTi6ZQ22vL8aeTXFKC88hPx9+1BaWA1zWApCQ/yhLF+HbV9+jC/W7EJ+qxYp9WuwZkUu6oQYiB6fjCBnPTvFJTp2HEGTOhQaUw5qO5Y5qBClezZgyzcbUVaZL+q9D0c2rkNuURvatIlITo6An7hMbC1lKN7+EXZ88wE27i5HfVkuKnKF6KqwoUURj4kjqd9a59gqdghB9w1Wb6yDTbcQ51xzLtJGx0ANcR36ahE8Ih5erSEI962GoWwbvvvgW5RVFIrjko7cnT/hSEYeKr2GICUlUhw7sU3NHuRu/hjvvbsCB4WQi2jYisMb0nEgz4G4c8YK4dJ5y5WPwk+6rtpaGmFpbRbX0/Ehb0mQaMNjEZo0Sorp6I7BIDrklYBhGIZhGGYAQg6UXYgT4UtJwdzSv9LfDinI2NXtilo/2pPrN+UT29ptFCru3Fsn+AfDd8QEpPn5IqD6MOpLS1HR2Aa7tRKNwlk2mycgNCIFMZFVaC34Eiue+xBZvjMx7q6Xcf+f/4LrF0RBk/kaNmzcjYzC5vZ9ijKjpBIBM+7Dgkdfwk13LEFqWxtqv16HtooqOFqOomTXF1j+4pcoME7F5Luex+2vvI077r8NsxIA4S/D0Sj2t+wdfPXRThSNuxNXP/MB7n/lDdxw3VTE6H/ET889i90FzWh0TT/SVglj/pdY/dFGVJXrhSPp3bOg967KXFkD76S5GH7NM/jDKx+J9CTOGzMMmsO7kPfTN0ivFaJTHHNDxkfYu+kn7G0cjSFLX8I9L36CPzz9R1x49gSEU8tDN7QZ9GhprBEHQIjQqeMRFRIkCYN2qDVlNCbMHY8hY2LgFTYSgQuexG+ep/I8gysumo3oigKUfPUe9pca0Og+QrKtDahag81f/ojD6aVCUPh0f2yEsPXzD0TokDFC8JwYr+Ht64fQoWPhp5MXnzEYYNHBMAzDMMzghUSHEA5W4dC2J4dIdmmYXKvwkaVEy8RvivegCdgoufI5SH10SyAUfmlIme4LXUgpWg21aK5phLU6AzkFFrQkDUdIYiz8a4qRv+ETlJpaEZMyBFFR0fBVqhEQFisNl1rbUI/mZmfQs0I4zYmTER0djBCtP/y0IWIfNngrysRKI9qqS1BXdARVahUiL16I5JgoN+e6HUPRYVTXlMAQFITYcWMRLBxfX5ErJDYJMUMDYbEeRc6RMrQ0uwKdQ6AKWoAFz36Ee974P1yyaDKinGtk0VWZA8dg3PS5OHteishIDngaYkYHIDShFmZTGeqF6KCGgOb6UrS11KKtUY+y9EzUWyywBEx127ZrjM21aGkodf7qAs1wxI86F1dekQa1msqTgtDEaMSObhEiNVeUR4jFE+aCpJa0yZj62+dx6xvP4Vd3L0SSWNLdkC7UbUobEgVdeDwU4lwT9K9/RLy4VqLg4ye/1WKgw6KDYRiGYZhBi9TSIdQGCQ4KFqfgcOp2aqZAcbP4l5xasYyWm03it9UKm8hnIwFic0hduLpr6CDX08c3EMljJ0ITqEFNTSXyD2VBn7MXxa0WhKQMRUR0DBQWszSfhVmImerdn2LTu/+HD179N1auOYi2NgusdfWwNTtbOug7ulIHPz8FFN7ekijxUVJB6PO7HUZ9NfQ1RbApFAhNSYZOqzlpRCybySjqZobdxwd+ag18vbzEXhXQBoQiIDxM1M2A0rJqGI1O71qpgU/EEMQkDUNsciyCg7SSqy2fLsrso4a1agfy1zyJ9595RKS/4PutOShusAixYYI47NJhDh4yHpFRKfA3lKEp40N8+dLj+OiFv+LbNRuQU22RrHSFr1IrqtFthzBRHhXsLWVo3PoXLPsXledJfPXVJhyupJatNlGeDkPtUqB3aCLC4oeKY5OA8MigzuM53JC67QmREZo8CkptoPjtJcRYIIITU8WxUUu/zxRYdDAMwzAMM2gh0WEl0SFEhEM4+3AIp5Lmb7DbJIdcmrzNucxiFc6xNFqVXeqKRaJD2qZ71QFvXyUCRk5HpH8IvIR4qMw9gorCbDRZ44QTH4uIiBMn6aP8fiotVIExCBgyF2ctuhZnzxqHpOgAZ46uIWfVy9mH3kGF7b6Ix6BjQvUid/eEbvjkWAvxohT77m0HsTn/Jxze9Bl2bNkmxIMDPn4a+Pkq4NPBkDZxFkbMvRbzFi3GzKkpUBR/L7ZbiW0/bsHhw9TK0zVqXTB0QVHtTVgl5WhuNcI5lphALEMVyvLLUbJ/Cwq2/w+b132LrKJWmBzifPhR8Hh7zpMgcaAVIkyIPPnRDu14C/GlDY+DJjQK6uAIaMOioIuIlZafSfT2NcUwDMMwDNNvIAebWisoiFf4lFArvaDy84bSl776U8AsTSDoJY1W5SUcdz/xt1LlI/xvmr+cHHo53asEPmLn8ROQHBGESHMlmooO4XBJLay6GYiJDUNIkMjip4ImJBoq4WwGj7wAk654AFfe+3+4+p7HcPVdd+HchbOQEC9vxnN1UCQCw5PgK5zr2tISGIxGIZVssNsssJCXLQqv8A+GRq2D0mJFW3MLzEKcOGCBQV8LfU0dfHz8ERcXBY2m77v41Kd/ioM7NyG3dQiSFv4el931EObPHIK4DjHUJpMO4ePOx9y7/w9X3fV7XHDucMSGqmDW69FUU+PM1Tl+ATEIih6CCK0Z3kd3Iq+oFBXN1JIjhKStWZyXn7B3ewYyf/wCuVs/w+5CHYJn3IHzbnoICy88CyNj2vfTqwjBQiNV+UclIjhplPg3WfxWtwuZMwgWHQzDMAzDDFraRYdVmoFap/FDcIAaQf4a6LQq+Pr5wV+nQpBYRv+q1H4IFOuCArRQKVXCQRfCg1oRZEFxAaMRMzoIIQH/3969gMdRnXcDf3elvWh1taybZdmWjG2wjR3sgLmmCYQkBAINNJQkT5J+oU3oB2naB9J8wdBCmjw8KYGQkEvTEGghkFBIS5oEaCEJV2MCGN+x8R18lXXfu1Yr7Tf/w46QxUh7RjBidvb/eziP8c6ZPXP2tUbn3TNnZqN0b/uDPLsxKEMrVo4uZo40zpWO939K5lZWSefLL8reHdukfygj2cGYZDsflyceWyubthxR71ZIuGmuNLQvlpaRIenatEGO9nRLfKhPUrEe6d1vDLGHRSqXnSnt841jikflyKb10p1KSGroqHTv3yuHd8ckGF4ii4xRdlV1wZvivm2YlcHsTCgQlLraahkZ6ZRod8o43nyFvCNP3Stb1/5OdvRkJOcvl9lnXGIkHXPVA/HKGmbma02i6b3SuuI8+dhpI1IVXiPPPfW8bN2wX7JDMUn37ZANP75dNu7bI0eNxA+XPpUZBXeEKvNHJdEflVjhB4hPGZKOmR1Lpbp5Tv6V0sKkg4iIiDxraGhEunrT8setR1VZt71HNu7slc1G2bKjW17Z0SXbdnXLq7u7ZefuLtltlD27j8ruPUfk0EEscjYGv8dc3D+5lo4VMqPlOPX/eErziSee+OYTpIPNEmm/SC699vNyUs122XH3/5PvX3Gx3PR/Pyk3Xfsjef7V/TJuDD6xyCJpOeFs+dD5rRLqfFAevfkKue2KG+S+f18jPfOMpENdAzRfFl74STnn/5wuHRt/JL+4+pPy7Ssul3//2QtysO5D8sFrvyar2qulzt7CjSlpWflhmXfcSinf+4I8f9sn5darbpEnNu+T7vz2Nx2Q3X/4gTzw1TGfS/QEWfSB8+U8jYXkUNm2SpZ85h65/LJVMq/vt/L0D6+Um64w+n7NjfLIppPkhFWnyvsuOV86Vn5IGhK9su2uy+WOr9wgD/32BaN15/jLAmphOf4sRb6urq4c7quru5AF9+JFfbv3+3WyDdTH1Cke2V7M/fBKG4yHN+KBe27r1jf7gX10lWobWMCKNhAPXYwH41FIqcYDz/XYuHGjHPY3Srq8Kv/qsTLpjPR39Urvkf0S7++VofwtidRtcNX1U/n/zzOaH4VjGTb6MJjpl47Fy6W1Y5FU1Y6/R9Q40T1yYN9rcuBwv/gDYalffLa0zgxLxOxSLiuSPiCvb9kt3b1RtSx8VMNiaZtVKbXD3fLa9oOSqFpotDtH6uvKZbjvoHRv3ySH4rWy4KTlMqOxXkZSPZI4tFl27BuQIayUl4iUB8okXJGQhFFvkaoXlOTR/XJo/XbBl/hvXCwWkcjMNmlZulQawsZgOJY/5n6/kRctkWXHzZRAud7vGGWoV2JHXpv8mBc3ylBsQA6/3ikp9Z13rVRUJozfTxnxhWdJ/cLTpK0OH81aOXzwiHRH33hrpbLdSObapXX2DO2F7TnjfTOHX5bdr/VING5+yvi32yptKxdKQ92wDOGYX9knCePVnFRLKGz8fi1LGfEeE7fsYek7tEde3dcv0rRcju9okhnTMDM03sz0QeloxOVwbUV7vvJ1d3cXfdKBkxTasTuocls/vNIG4+GNeLjlJGXyShtmPEIh/V9ajAfjUUipxgNJx4YNGyZNOpBkxPp6jMHubon2dkv22PugFoRzbVXdTGme024M4FskVHHsgnDPMhKjwzteldd3H5Jk/iVrtUaSsUTaT1iQ/7tDMt0ycGiX7Fy/U3BT4TG54TiV0jCrXZadtjL/d28Ym3QU6/nKl0gkcrqDERxEOp1W04W6Tyq0O+CZShtGH9SJB9OXOgMxt/bDK20wHt6IB45J96Rj9kP3RFjKbcTjcXWCxjXEOhgPxkNHqcZjcHBQ1qxZI4d8DRMmHTjmbCYtKeO9h4w/8Xc7cG4uDwSlorJKguEK9STpkjCwTjY/9pi88NQG6cm/ZG22nHnBRXLmRz+Q/7tDEjvl4Pon5A/3/16OGn/FfaisNciCZWfKJVd8Ov93bzCTjvb29qI9XzHpKLEBKOPBeBRitoFjKrUBz3S0wUEu41EI4/HOJh1EXuCFpKPwCISIiIiIiOhtYNJBRERERESOYtJBRERERESO4pqOEru+n/FgPAox28Axldr15NPRBtcQMB6FMB7213QczdVIpqwi/yqR99RmumReUx0Xkk/GPHgn2+Agl/EohPFg0qFjOtrgIJfxKITx0I8H3h9JB45N5xxKVKzwszdr1iwmHZMxD97JNjjIZTwKYTyYdOiYjjY4yGU8CmE89OOB+vfee6+8//3vl3nz5uVfJfKeRx55RP0eP+WUU5h0TMQ8eCfb4CCX8SiE8WDSoWM62uAgl/EohPHQj0csFpM777xTLrzwQlm0aFH+VSLv+cUvfiHV1dVy+umnF+35qvAIhIiIiIiI6G3wI0NBRqNbwM4+qDsdbYDVtokKuLEfXmkDrLZNVMCN/fBKG2C1baICbuwH27DePr6wDbahU7zQBuoSlRK3/Qyi6Lbhi0ajRf8Ti0tHhoeHJRwOa12iQs5iPNyF8XAX3G0HJ9+KCt5pxw0YD3exGw9cjnXffffJRRddVPjyKjWYMgZIxp/GydD4z6/+JCoG5uVVq1atKtrzlc/4gc3h+nDd68kxgMG15LrXhuHaTJxAnGwjmUyqa9AQDN1r1t3YD6+0wXh4Ix44Jp36YPYD13TqKOU2sMYG7WCNjQ7Gg/HQUarxQNJx1113FVzTMTKclWxvt8Q3viTZvh4JNDZL5bKTJTCjXnyax0b0bjKTjtNOO61oz1d+DHRQSbeAnX1QdzraAKttExVwYz+80gZYbZuogBv74ZU2wGrbRAXc2A+2Yb19fGEbbEOneKEN1C1kZGhIhrq7JPbC05J85SVJbV9v/P8z0vP4byTV0yUjxiCLqFi47WcQRbsNVZOIiIjIg0aSCUm/tkuGj+6XXCouucGUZA8fkMQfn5X+rZtkKB7L15x+uOvPrl275Le//a36/+mEGfCjR4/Kr3/9azl8+HD+1emBb9Kj0ag8+eST8sorr+RfJa9j0kFERESeNZxOSubIAQmEyqU8FBS/v1z8mSEZ6Twi3ds2y2Asmq/5xqUiWFeyZ88eNSAfa9++fXLo0CF1Kck7BZe/rl+/Xu644w51aZkTOjs75bXXXsv/7U3ox+uvvy7/+q//Kq+++qocPHjwLfWwLz4LfCb4bN4pSDp6e3vlwQcflOeffz7/6tShLy+++KJ6UCTKtm3bRl9DUodbK8PY+G7evFl99uY+YwuOaf/+/dOeCHodkw4iIiLyLH8gKGXVdTIUj8sIEoyBXuPPAUkbA9B4mYiRfowOqHHTDXzrf+utt6rZB/N1/PnDH/5QXVePwXIxefTRR+UnP/lJ/m/Wenp65Oc//7n86Ec/OqbPv/nNb+Q73/mOHDlyRCUKboXjv/TSS9VDIs8++2z5h3/4B+nu7paLL75Y/vmf/1m2bNmi+jM2vldddZV8/vOfl3PPPVc++MEPju6Lv//pn/6p/OxnP1P9pncOkw4iIiLyrLLKaqmYv0gGh/2Sy2QllxqU1IhP+mbNkdCiZVJWVZOvadQtK5PZs2eruwMNDAyogSsGqpjhwLfeNTU10tDQkK9dHDCA/vKXv5z/mzX0CYuTU6mU6iv6jL7jEih8Fq2treqafLeqr69XNxRA4vGP//iPKlHCwubFixfL7t271YwG+jPWxz/+cfnlL38pf/zjH9UlZua+L730krrs6wtf+ILqN71zmHQQERGRZ/mNwWewvkGC8xZKMByRIZ9fEo0tEjj1fdLUsUDCFZVqESzgTwxWjz/+ePX3nTt3jiYdc+bMkblz56q7B+Jb/66uLvnWt74lf/EXf6HK3/zN36hLee6++2753ve+J7fccsvotl/96lfqUiVc2oP3/NKXvqRev/LKK+Xf/u3fVFsm3JHriSeeGN3X3B9wmdBtt90m//Iv/yI33HCDfPe731WvT2bTpk1qED3+mL/4xS/KN77xDZVYoM/oW2Njo2zYsEGt98AgHXdLOuGEE9R2fDb9/f1qBmDsseG9H3nkEdVfXKqFwTpex//jkjTT2H0vv/xyufrqq9VlUDD+c0EZ27f7779/9DP927/9W/VeYyFZnD9/vko+kCigLzheJEwnnXSSShiRXIyFp3ovWLBAlixZou58Zu67dOlSlazgs9C9gxPpYdJBRERE3uX3iy8UluCMJikPBGXYGEjmmlulYdlKmdnQZDmwxAAWg1YMmjEAx+U5M2fOlJaWFrUd6y+QLGBgPmPGDKmqqlID24cfflgNrLEuAOs1MDOCJOLpp5+W7du3y969e+XOO+9Ul+3g2UkY+FZWVqr3NL3wwgsqycB+2L+vr099U4/kAe/5H//xH+p4kESg3UKQCL388sujx7x161bVN7Q99lbq6BtmPJAIoM+YIYCOjg71J+CSM6yFQJ8xM4LB/nPPPacuzULigUvPcMzYH8nL2PUa2PeZZ55R29A2ChI4GP+54LPEAnN8jlib8bvf/W70M8V+dmZdTj31VHW8+PwPHDigbglL7w4mHUREROR5xjhbDbZ9RuIRqq6RhsZGCVdUWA5g29ra1OAYg2EMejFoR3KAxAMw44Bv4pubm9VlOZdccol6foKZEDQ1Nclll12m1g5cc8016pt5DOKxgBl18E0/Zhxuuukm+fM//3P1niYM1DFAvu6669RlQn/3d3+nZgKwvsJcgI1v5q+44gr5q7/6q/xehSGJ+elPfyonn3yyfPOb35Sbb75ZvbeZuCDhwP8jKcHAHIvLMfjH5WYmHDvaR58/8YlPyAUXXCDr1q1TSRVmQz7ykY+ofl177bXq/ZAsmXAJExI8zNCgX7iUaeHChWrb+M9l9erVctxxx6njRbKE2RjzM/3617+uEhtdmKFCEokZq6eeekrFk94dTDqIiIjI83ABFRYT54xkwoe7MQ1n8cIbG8fB5VX4Vh13P0Lygbs84ZIdJCMmJCvXX3+9Wnj8sY99TF0ahEE2BtsrV65U74E6uGTHfII0BsvLly8f/fbdChIZXBKE9zDXJeBYMAOCv+Nyp1NOOeWYY9FRaF+8hlkEzCpgbQcuB0MSYl5qBkja7rnnHtVnJBif+cxn1AwHZizGHjM+g/GJwbx580Y/l/HGfy5IFHAsjz32mEp8JttXx7Jly9SlVP/5n/+pkhhzsTxNLyYdRERE5Hm53IiU+31SbgyKJWgUXNqD6Y8JYLCPQS4SCXzbP/YyKDMZwCVBWHg8trzvfe/L1yo+s2bNUgkFLuUKhUJqncNY7e3to4utxxas43AzXAqGeGE2Cpd9FdsdyLzCj6k6TDXpFGT7yA4x7Wa13apgOms62sA+Vtusipv7wXhY1xlfGA/Go1BhG2xDp7CN4m9Dh8/vl/L6RknWNkiqpU38rXMlEAzlt1rD5T2YofjBD36gZgjGzkzgOLH+ADMQ+FYfi4/NMtk6C3zLjjUWuG0rLpnCe+ASrrFw+1dcXoW1FfjssB3HgW/r3w7zvbCuwbxkCZdSjf0MsXgaMxboM9ZrjJ8RwbHhrl5IwMb2GZc+FYLF+JgxwqVmOBa0jWMAHM+OHTvUehG8hs8Fl7CdccYZ78hibvQFM1W4JS6eDYLjKFbF/HOuZjowXWaH3frANvSxDX1sQ99U9iEi8gR/mYSaW6Vs2clSecr7pHbREjVbMdl5EYNUDKZxWRMG4mO/9cdiZzzbAd/yY4COOyvhT9xlabKneyNxwd2S7rvvPrn99tvVOoexd3gCrHPA2hE8FwTvi8XfmHU477zz8jWmBoN3rOfAwm+0jWMwExsT2kVf0Wdc5oXLmsbCpVlY2G72GQUL53WeKo6ZBnw23//+99Xdt/DZmUkHPmfMQuA5KNiOtRx4UOFnP/vZtyy0t4LLwR544AE1Q4PLw7D+ZTzzUjHMWuHzpOlXdv3119+If4i4Hg+Z4GQF1yYiA0Jd/LBa1RlfkP2Ak23gBwZZWSQSKep+eKUNxsMb8cD72+0HTuRW28eXUm4D8UA7+EVqtX18YTwYD6s640upxgP1cfkTBpPmIm8rSC7KwhUSaGqVSOscqayfOXpME8Ex4NtZPJkaC7axxsCEfVesWKFuw7p27Vo16MbCa8wCYFYC6w+w2Bt9wYwGnvaNATwG9LhLFJINDJDxGWHNB94bD6dDMmMOih966CE144E7ZJ1zzjnqeRv4VhntIHlAUqADMwxoB4N6XB6Fheo4ZhwrFlijLcwo4P3wuwiDc3ymf/Znf/aWNRRYF4FZiMcff1z1GQXHh/dHXSQlgD7j9rz4LMzX8P6YYcC+mHHBseD3EmZwUAf7465dWIiPY8ZMEx7gh99bmB3C54LP1ApmRZCkIfkwExl8nuM/K8Qb7eJ3IvpiFaOJ2ni34XNBrJAMF+v5ypdIJHL4R6bzLSgOBAt68Kb4R6ADPyAIrpNtYFoOJwZcs4fOF+LWfnilDcbDG/HAMeEkocPsB05SOkq5DdxBBgOlsQOYyTAejIeOUo0HBptYV3HhhRe6drDoNHzOOMfjTyv4XYHPX+d3DLkXZoFwi+PTTz+9aM9XXEhOREREVKQwo4BLr/CNvlXBA/XGP42b6N3ApIOIiIioSOFyKDzZ/Ktf/aplwdqTyRa3E00XJh1ERERERQrrIvCwvs997nOWBeslzOeEEL2bmHQQEREREZGjmHQQEREREZGjmHQQEREREZGjmHQQEREREZGjmHQQEREREZGj/HioBx4ColvAzj6oOx1tgNW2iQq4sR9eaQOstk1UwI398EobYLVtogJu7AfbsN4+vrANtqFTvNAG6hKVErf9DKLotuGLRqNF/xOLJ3HiEezhcJhP3HQBxsNdGA93GRwcVCdf3sLSHRgPd7EbDzzB/L777pOLLrqoZJ9ITqXBfCL5qlWrivZ85TN+YHN4dLkOZDEYwAQCAfH79a7Mymaz6gTiZBvJZFI9tr2mpkZrUOXWfnilDcaD8SiklNtIJBKqndra2vwrk2M8GA8dpRoPJB133XWXXHjhhUw6yNPMpOO0004r2vOVH4MQFFTUKSarbVbFfH+n2wAv9MMrbYAX+uGVNsBuG3bq2+0DCtuw3m5V2Ib1dqvCNqy3WxUvtIG6RKXEbT+DKNptqJpEREREXpXLyXAiJqnd2yW+5WVJ7tkh2WRCvU5E04NJBxEREXlWbmREJRipvTtlYO0T0veHh2XguT9IYtd2yaZT6vIQInIekw4iIiLyrJHMoAwePigDzz4mg3u2SvbAbkm+vFa6H/qFJIzXhzOZfE13QlKE6+yxNo+omDHpICIiIs8ajg5IcscWidREJFhTK2WV1VKGu3zu3SOda56Swd7uNyq6VHd3t9xzzz1y++23518hKk5MOoiIiMi7sMC1zCcjmbTkBtO4RZbk4jHJGP8fjQ/IUNZ6BqGzs1Meeugh+dznPjdabrjhBvn973+fr/HO2LFjh3z3u99Vd+KyglmOnp4eOXr0aP4VkX379smPf/zjY47tlltukQ0bNuRrTF1/f798+ctfHn3f2267bfQ13Cls9+7dqh7ucNTV1SV33323fOMb35Cvfe1rxxyPWa644gr51a9+pepSaWPSQURERJ5VVlEhwZY2I8kYkpFUUkQlHBmJVtfKSFOL5ILBt6zr2LNnj/z617+Wxx9/XGbOnDlaMPh/9dVX87XeGeXl5VJVVaXu/lMILrHasmWL/PznP1d/jj02HPOBAwfyNd+esrIy2bhxoxw5ckTdbh3PT3n66afl4YcfVq/j1sZIOvDnCy+8IPv371e3cZ0xY4a6daq5L46rvr5eIpGIek8qbWXXXXfdjfiHoPOPHZBxoz5ufaUD/yjxw+xkG/ghtPvwMzf2wyttMB6lGw/88tRVqm3gfuZoB/HQxXgwHoWUajxQf/369XL88cerAa4VX1m5+AIhie/bLf6+HhkaiEqsLCjxhUtlxqqzZEbTLPVMgrHnRwyuH3vsMTVg/s53viPnnXeeKhhYoy94Jgi+uUcCgm/+X3/9dTl8+LAaoGMAjlkSlL1790pTU5P6DCaCbXhfsx7O2ZjVwKwF3nfnzp0qwcC2M844Qz2vAQnABz7wAVm9evXosSExaGxsVOXQoUOydetWNSOC94hGo2rgv2vXLunr61PHiD9RdzzEd8mSJSqB+fCHPyx/+Zd/Kel0Wp588km1HX3EZ93Q0KDe97nnnlMPrMNMyIc+9CFZsWLF6L7XXnutnHvuuXLcccfxAZxvE/4NhEIhmTNnTtGer/SOgIiIiKgI+YzBUHlNrUQWLpdQpFoGjSQkMWuuVJ11rrTObVeD4fFfyGDA/973vlf+/u//Pv/KG84880y5+OKL1SD8kUcekS9+8YvykY98RA2wP/GJT8imTZvUZU7XXXedGnB/+tOflt7e3vze1rAP6mIAD0gGcFkXBut470996lPy3//932qbOeNw+eWXq/bGuuSSS1RSguQHT2nH37E/EoGvfOUrKgnBn//0T/8kV111lbpUzC4cEwaXTz311OjglEgXkw4iIiLyPL+RV5QZyYU/HJFIY5O0tbery5owiB4PMwSpVEp9m28FiQqSjwceeEBeeuklNSuCWYf//d//lWeffVZtv/LKK+XRRx+d8D0mcv/996tLu7BmA7MI//M//yOXXXaZ2oZZkG3btqlvvDHjYKWtrU2+8IUvqJkJHBsSmI9+9KNqhmTdunXSbvT7pptuUjM4di1evFh9045ECu+N4yHS5YvFYjlMh9i57AL17U7TONkGvnHAPpg61N3Hjf3wShuMhzfigV/Eusdk9sPql/dESrUNDGRwuRsGO7oYD8ajkFKNBxZf485OF154obrkaSK4bW7s5T/K8NOPSNfBQ5Kev0TaPvV5mWEkBH7/W/uDxc/Lli2TL33pS/lXjoXPAus7fvrTn6okAOdZDMRxmRZmGi699FL1HhNd8jUWkpRvf/vbapE26uMuVS+//LJ861vfUpc/4VKre++9V93F6pprrlHJzje/+U05++yz8+9wLMyG4JKq733ve2r2BAVrL3D+x2VVmOnADEh1dXV+j2MhZrg8CseE2R7MqqBt/InF4rjk7JlnnlGXln32s5+Vn/zkJ6P1rPaldwaSRsTs1FNPLdrzlRqB6B6IyW59YBv62IY+tqFvKvsQEXlHTvzGeRAzHqJOh6P/8xZIfJLJpBqsW8HrSBIwuK+srFTrMWbNmqVexxc8LS0tWgmHFbxfc3Ozeo/xAz8MBnFsSLaQ6FjBOhIcG7ZjNgTHVVdXp/bBQu/W1tYJEw4dc+fOVWto8Pm89tpr6k8iHUbi61d3GkB2XqigHgYu+CGw2m5VUHc62sA+XugH42FdZ3yZrn6UcjywiMxqu1Ux+2G1zaqwDbahU9gG2yhU0IYen/iCIcmFwpKrqhZfdY34AxMvlMVxY9E1ZhzGwmwGZjLMpOOss86Sm2++Wc084PawSDjeLsxUmEkFkoxYLKZmgADHhYLjwvGNhePC8SHp+OUvf6lmabC+5Prrr1eXV71T0McFCxao9S2Y8cCCeZo+xfxzrnetBREREVGRwmLyQHOrxBpnS2ruQimbu8AYLB17x6qxPv7xj6tB/K233qq+yTcL1klgjQQGWFjfgFkDDNJQ98UXX1R303q7cNkW7liF5AHJB+5ahMuiALMgWLyO5148+OCDxxwb1pdgDQhmN5YuXarWkuBSGdxdC5eA6UKigyQHl8ygP0iCxkO/zznnHHUMmO0h0sGkg4iIiDzN5/dLqGmW1H/wY9J2/iXSunyFWow9kT/5kz9RazKwfuHkk08eLXfccYfajqQDC7Jxlyq8/td//dcqMcClT2/X+eefLyeddJJcdNFF6la0mLXAHa3AXMCOu09t3rz5mGPD2hDATASSkwsuuEC9jpkYO7MRaAtrMZBQYP3H1Vdfnd9yLNzmFzM8SHCIdPgSiUQOUx4TZftjIfvFdB+mUvADpwN3NkCm7WQbmOZENm7eP7sQt/bDK20wHt6IB44J3+DpMPsx2S/xsUq5DXxziW8QcY21DsaD8dBRqvHApUd33nlnwYXkJiQF6APOtzgfTnZOxOJpXMKEWQcT1mngmRMdHR1q0I81DTjHYpCPNRg4frw/Lj9C0YGF4ridLW53i88WC78xy4Fb6YI5m4IZjJUrV6rXsFgbC7nxPA4T6mGtBY4F74ckCJ8ljhlrOHCcgAXeVs/nMGGWA88pMS/pwt2wcGyYRTnxxBNH98VniWeVYCYFa1DQX8Qc7bzyyisqYdP9DKgwcyH56aefXrTnKyYdJTYAZTwYj0LMNnBMbhqMeKUNDnIZj0IYD+eSjncLnrOBRMIKbkGLZ2ngjkQ652gqTV5IOvivm4iIiMhBa9eulf/6r/+yLLgsCmsyMHgj8jImHUREREQOwjM38CRxq3LbbbdZ3h6XyGuYdBARERERkaOYdBARERERkaO4kLzEFhUzHoxHIWYbOCY3LTD1ShtcuMx4FMJ46McDayHw3AzctWmyOzIRFbv169erO4ItX768aM9XPuMHPIcBjO6AB4MXDHZ0Dx4nDxy8k23gpIMPCav6dQdVbuyHV9pgPLwRDxyTTn0w+4GTjo5SbgNJINpBEqiD8WA8dJRqPPDgOizSxj4651CiYoVbFGPtz7x584r2fOWLRqNFf7sEdBbBCIfDPOm4AOPhLoyHu2CQhBM6HvJF7z7Gw13sxgPnt3Xr1qlvZTHoIfIq3B4aT5nHLZaL9XylZjqK/ZsR85tcPDjHzrfFbuuHV9pgPBiPQkq5DX6zzngUwnjYn+nAMaEdIq8yk46inukwfsC5pkPDdPTDK20wHt6IB45J9xIusx+8Zr0wriFgPAphPPTjgaRjzZo1qg2cF4m8ykw62tvbi/Z8pZf2EBERERERTRGTDiIiIiIichSTDiIiIiINuAzW5/erS1X9PuPv+deJxsNlR7hMCX/SG5h0EBEREWkI1rRIS8d7ZNnSJTKnLiBhvaV1VIKOHDkie/bskcOHD6vkg5h0EBERkUcFK2fKzNkLZeHCMaWjVVobKvM17PGXlUt5qEIqKsISLPeJxv0/qEThJgeHDh2SLVu2yIYNG6Szs1Pd1KWUMekgIiIiT8rlhmU4JzISqJL6mQ3SWBOWcJlPsniRyEGY3cAt65FsYMZj+/btsnv3bunq6irZ5INJBxEREXnSULJf+rsOyf6uuAyPGIlGyvh7T48c7U+LL1Ah1dXVUlNVJVXGn1U1NVJTY/y9MiTBMr9ar+Hzl0ugosaoh201UhUJSWj8JVVGnfJQRG0fLVURiYTLxe/zGduqpbIK+xoJTzkWgvjEHzC2V6Ft48+K0JvHYu5fXSXVkYCUYQ2JasJoNzLm/Y0y+n7kakg+cOv6ffv2ydatW2XHjh1qBiQajarbQ5fSmg8mHURERFRayiskUNcmxy9eKicuXCCLFi2U45YslSVLlsiJC5qkvjKoBvyBSK3UzzlRFhuvLzXKcXMapfGYK7OMpCBcK7Ut7bJ06RK1/xLjfZYeP086Wmqkoiwglc2LpGPRUjl+Xqu01ATF7w9IsL5dOhYslqWL5snc2Y0Sqp8jx5+w+M39T1ggJ8yrl6pyLFj3Sbi2WVrajddH21giC+e2SFM1n01STJB8YLbjxRdflM2bN0t/f79KPEoFkw4iIiIqYQmJHtknr+/YK/sH/DIcapHaqrBUVtdIpKZB5tZkpWzgddm7Y6ts39spnfH8bhCokfqGmdJUIxLdv022bt4kG3celM5EQCqqG6Wl1ifpzlfkYFdUEkbd6sYWaaiokqbWiIR8/dLdHZW+ZFDmza6STNce2bVts2zcvlf2dg9JWeUsaZ0ZlpqGNmmYWS8zA/E329i4UbbtOSiHo0P5A6FiYT5Mb//+/fL888+rWY9SudzKF4vFcrj1m87TkAEZmbpVnMaTjcG8XZiTbSB42CcSiWjv48Z+eKUNxsMb8cCTRXWPyeyH7hNPoVTbSKVSMjw8LFVVVflXCmM8GI9CSjUeWKyLb40nfSJ5oFKCda2yvGOmBOMHZf/hLtkfL3vztdRhOXCoSzrTxgC/9QQxXpL4wW3SkwmLv3a2zKvzSfzAK/JaT0qylbOloWWOzK7KSM/eTdI53Ci1jUguAjKSikl8cFhGyiqkEpc+5VKSPrpPth6OSy44Q+qbm6S+NiLBoUEpN5KU2IEjRsIREH91g8xrNfqbNBKTwawMSVCCYeNYQn7Jdu2SfYP1UlVbJ81VPhnKt5HuPyp90ZhE07wrklthHQcupcKajrHws4B/r/X19dLW1iazZ89Wl9YV+v1sPpF87ty5RXu+Uj3UPRCT3frANvSxDX1sQ99U9iEi8rxhY5BlDLTGD9/LcKeq8qDxfzkZHBoyqr11gO83Ep1yo15ZzniPYSNhMOoNpaLS33NUjhztlp7kkGApSTaVlMGM8f/BsFTVVUvYn5F0wkhKhnLiKzfeA5f1G/tnsX86Lon+bjl85Ih0xQYlleiXgYEB6U+NSKi6XmY2NEpTc7O0zDQSmQiOj4oFkg0kDvPnz5dFixZJe3u7VsLhFb5EIpHDh6AzIEHmg29N8W1CebnezanxA4isyck2cI0cpqZqa2u1AufWfnilDcbDG/HAMel+02H2IxQK5V+ZXCm3EY/H1bdCdXV1+Vcmx3gwHjpKNR6Y6VizZo1qA+dFS4VmOvKvHclEpG7MTEdftlLK6tqkrTorfa9tlgN9GRmpajtmpuOotMgMIwlorshIonuf7DoYl8HhnJGmHKssOFMaZjdKQ2OlBFJZKa8akt59h6QvXSHBGc0yvzEo6e7dsu/wgAwks29JgCRUI9W19TKvqRqryiUcDkkg3SN9Rw/L9iNjr/citzBnOo4ePar+/eNqA8xuYGZj1qxZUllp77bN5kwHEpViPV+VRmpFREREJQdf5vj8PvEbRX2t4/OrJ4obfxSUzWZkaDBt/J9PwsGwlBsDKizqxpPITUNDg5IdyogvFJSKpgapLS+XoPH++IJHFdW+XyobmqS2OiD+gU55/dWD0p2plBktM2VGbVB8Rjs5o164eaZUV4QlfMz++T4MxY2k5nV5Zds2eWXnYelJpCVjDPYw4CP3QuwwGEeysWzZMlm1apUsWLDAdsLhFUw6iIiIyJPUE8TnHi9L5tYZSYMx5KlqlubZrdIxqyZfY2LDiQGJ9XVJZ8ZIJJoXyILFy+SEjhZpHns5fapHOg8dlN0HojIUaJA5S0+Upe95j7zHKCcuWiDzm2ZI0/wTZU5zjYTSUenrPCLR4Zh0HUnKYK5OGuoqpKYsKlt3dUo0WyONHYvkhPz+y09cKgubK6W2oU1mdyxRr71n+TJ5z+I50hhIyEBPtxzoTuUPhNwGVyNgRmPFihVy1llnqbUY4XA4v7U0lV133XU3YjpE59IOMBeL6FymAZiiQSbuZBuYCsLCMwSzmPvhlTYYj9KNh+4lX1CqbeBSN7Rj55cP48F4FFKq8cC5DXcBQhsob2Ec73AmKalYv/T29kpvX7/0D8QkHk9KOmWUhJEI9EdlIJmRIeNYhwcTkoj2Sn80Jkks6h7KGPWM12ID6rkKAwPG/n3G+/T2yUDMSByGhlUfMSOSSsQlZtRBPVViRjvJlKTSg5KK98tAf79Ek4OSGcnJSCYtg0b9aNR431hc4gnjWJIJiR+zf1RixnGmMkPG+xvvk4jlt+EYjGK0nzLa51yHO+HnBM9TwaVQmNnA33V/B1vBzwYu0cL7Fev5Su8IiIiIiIrMcMZIGAa61FOgR0vvgEoYRtIx6enulq6BpCQzwzKSNRKMWJd0d3epJCQzPCLDQ2lJ9hmvjd3fKN09PRIbHJEsFl+MYPF3TPrG1ekxEoOBpLH/QLf0Ge+JJCGNRzLkjPdNR43EwWgbxxJPGW+RlGhP9zHtdHf3SH9ySAZTRlIy0HPMe3f1GQmN8Wa8d5V7IdHAWkr8+XaSDS9h0kFERERERI5i0kFERERERI5i0kFERERERI5i0kFERERERI5i0kFERERERI7yxePxHJ7iqbOyHrfQwi27cBsty1vTWcBttHD7LSfbSCaT6raguo+Sd2s/vNIG4+GNeOCYdG+xZ/YDD0HSUcpt4AnxaAd3NdHBeDAeOko1Hngi+dq1a9X5EOdFIq/C7/LGxkaZN29e0Z6vfNFotOhv8YzO2n0OATmH8XAXxsNdMEjCCb2ioiL/Cr2bGA93sRsPnN/WrVsng0NDxt94fiPv8hmD+1mzWmTOnDlFe75SMx3F/s2I+U0uHsJi59tit/XDK20wHoxHIaXcBr9ZZzwKYTz045FOD8qza9ZIr69OBgOVkmPiQR5UlhuWyvRRaW+uk4729uKd6TB+wFXSoTsYSafT6o11pzEx2DEP3qk2cJJChxEEnQ/Vrf3wShuMhzfigWPSvYTL7EcoFMq/MrlSbiMej6uTOp4qq4PxYDx0lGo8Usb7//6JJ2WgvF4yoToZ9umdF4mKhc9IpcuH01IRPyQdLfWycMFxRXu+0kt7iIiIiNwGA55UUvxDSSkbwSVWRB5j/BsPjaQkm0kaCXlx/xtn0kFERERFCTPEFaGQhHIZKR8ZVN8KE3lHTvy5YQlmk1IZDEgoqHfJk1sx6SAiIqKihEtNTzrpJKmvCktZNsXZDvIUf25EAkYy7c8kZPHxC6WtrS2/pTgx6SAiIqKihHVqWK82nM2KP9EjlZle9c0wUbHzIeEYTkllqlPSiahUhMNFf5c9Jh1ERERUtLB4dcmSxdLSWC/D0W6pHuxW3w7zUisqVv5cViqGYhJKHJVsKiYrV6yUhoYGrRvOuBmTDiIiIipqTU1NMr+jQ2Y1zhB/vEsqBnuNQVtUgiNpKTMGcD4Zydckch8kyJihw7qkcDYhkUy/BFLdUlWWlQXzO6Sjo90TzxLiLXNL7PapjAfjUYjZBo7JTbfS9EobvEUr41EI4zH1eHR1dcnGjRuN82NABlJDkpKADAciMlIWNEY8esdANO1yI+IzkmN/Ni3lmbjURYzf8UYiUl9fr9YsmYr9fMWko8QGoIwH41GI2QaOyU2DEa+0wUEu41EI4/H24oFj7Ovrk5deekn6B6ISDlcY2wNS5i98jqVj4fMFnd9PNHUjxuecHR6RQeN3dToRl5UrV8q8efMkEonka7yBSUcB5sE72QYHuYxHIYwHkw4d09EGB7mMRyGMx9uPx/DwsHp92BjI4dz6RnljG/qB/bCPDtQdHBxU5107n5UX2kgm8WyIrNTU1ORfmVwpf1Zvpw2//4028NrIyLCRKIfV+4wfFxR90tHV1ZXTGYiY8IOM+joDJMDBoDjZBgKADwiB093Hjf3wShuMB+Ohw24b6AMUextmPHR/MUGpflaMB+Ohg/FgPAphPNzRD193d3dON/sBdBj17Rw8BiNOtmFmZQiCncC5rR9eaYPxYDx0lHo8dL9FAsaD8SiE8WA8dDAejEchTvaDl1eV2KU2jAfjUYjZBo5J96Rj9kP3RFjKbfByHsajEMaD8dDBeDAehbitH/pzJ0RERERERFPApIOIiIiIiBzFpIOIiIiIiBzFpIOIiIiIiBzFpIOIiIiIiBzFpIOIiIiIiBzFpIOIiIiIiBzFpIOIiIiIiBzFpIOIiIiIiBzli8fjOTzdWPdpyHiyMZ6ErPtkQzw5EU82dLKNZDKpnqBYXV2t/cRlN/bDK20wHt6IB45Jpz6Y/cATSXWUcht4QjzawRPidTAejIcOxoPxKITxYDx0ONkPXzQazan/0RjwAN4cdOuD3X3s1h8cHJTh4WEJh8PaH6ob+wFeaIPxcFcbU42HnT6A3X2mUh+KvQ0zHpFIJP9KYaX6WU1HG4yHu9pgPNzVBuPhrjaKPR5qpgPZjE5lvCk6jGzGzje5+ICcbAOZH77Jramp0RpUubUfXmmD8SjNeNj9ZsRuG+gD9iv2NqbyTVWpflaMB+NRSCl/VowH41GI2/rhx0DHTjFZbbMqduqaxWS1baIylfpgtc2q2KlrFpPVNqtip65ZTFbbrIqdumYxWW2bqEylPlhtsyp26prFZLXNqtipaxaT1TarYqeuWUxW2yYq01EfrLZNVOzWR7G7j936KHb3mUp9sNo2UbFbH8XuPnbro9jdx259FLv7TKU+WG2bqNitj2J3H7v1UezuY7c+it19plIfrLZNVOzWR7G7j936KHb3sVsfxe4+U6kPVtsmKnbro9jdx259FLv72K2PYnefqdQHq20TFbv1Uezuo1tf71oLIiIiIiKiKWLSQUREREREjmLSQUREREREjmLSQUREREREjmLSQUREREREjmLSQUREREREjmLSQUREREREjmLSQUREREREjipbvXr1jbpPKcRTB/H0ZNTHQz504CnFKE62kclkVBuhUEhrH7f2wyttMB7eiAeeXm6nH9jPbj/stIH6UOxt4GmvZjx0lPJnNR1tMB6MRyGMB+OhYzraKPZ4+GKxWA4Vddk9eBwMipNtpNNptU8kErH1obqtH15pg/FgPHTYbQMnWij2Nsx4VFZW5l8prFQ/K8aD8dDBeDAehTAe7uiHSjqQzegcDAYV2WxWZT+6B4ODR3GyjVQqpfZBEHT2cWs/vNIG4+GNeJSXl2sdE6AP2A/HpWMqbeCkBsXehhmP6urq/CuTK+XPivFgPAphPBgPHYyHO/rhSyQSuWAwqHUweGNkWYFAQL25DnMqyMk2jD6oS0hqa2u1B1Vu7IdX2mA8vBEPHJPuScfsh50p31JtIx6PqxN0XV1d/pXJMR6Mhw7Gg/EohPFgPHQ42Q+9r0qJiIiIiIimiEkHERERERE5ikkHERERERE5ikkHERERERE5ikkHERERERE5ikkHERERERE5ikkHERERERE5ikkHERERERE5ikkHERERERE5yhePx3N4srHu05DxpEI8cVD3yYZ4nDqebOhkG8lkUu2Dx8LrPnHZjf3wShuMhzfigWPSqQ9mP/CkdB1TaQNPYcV+xd4G4oF2ampq8q9MrpQ/K8aD8SiklD8rxoPxKMRt/fBFo9Gc+h+NAQ/gzUG3Ptjdx279wcFBNegJh8PaH6ob+wFeaIPxcFcbU42HnT6A3X2mUh+KvQ0zHpFIJP9KYaX6WU1HG4yHu9pgPNzVBuPhrjaKPR5qpiMYDGpVxpuiw8h+dL9lRcaED8jJNhKJhMqykPnpDKrc2g+vtMF4lGY8MNOBfuiYShvoA/Yr9jYQD3xetbW1+VcmV8qfFePBeBRSyp8V48F4FOK2fvgx0LFTTFbbrIqdumYxWW2bqEylPlhtsyp26prFZLXNqtipaxaT1TarYqeuWUxW2yYqU6kPVtusip26ZjFZbbMqduqaxWS1zarYqWsWk9W2icp01AerbRMVu/VR7O5jtz6K3X2mUh+stk1U7NZHsbuP3foodvexWx/F7j5TqQ9W2yYqduuj2N3Hbn0Uu/vYrY9id5+p1AerbRMVu/VR7O5jtz6K3X3s1kexu89U6oPVtomK3foodvexWx/F7j5266PY3Wcq9cFq20TFbn0Uu/vo1te71oKIiIiIiGiKmHQQEREREZGjmHQQEREREZGjmHQQEREREZGjmHQQEREREZGjmHQQEREREZGjmHQQEREREZGjmHQQEREREZGjylavXn2j7lMK8dRBPD0Z9fGQDx14SjGKk21kMhnVRigU0trHrf3wShuMhzfigaeX2+kH9rPbDzttoD4Uext42qsZDx2l/FlNRxuMB+NRCOPBeOiYjjaKPR6+WCyWQ0Vddg8eB4PiZBvpdFrtE4lEbH2obuuHV9pgPBgPHXbbwIkWir0NMx6VlZX5Vwor1c+K8WA8dDAejEchjIc7+qGSDmQzOgeDQUU2m1XZj+7B4OBRnGwjlUqpfRAEnX3c2g+vtMF4eCMe5eXlWscE6AP2w3HpmEobOKlBsbdhxqO6ujr/yuRK+bNiPBiPQhgPxkMH4+GOfvgSiUQuGAxqHQzeGFlWIBBQb67DnApysg2jD+oSktraWu1BlRv74ZU2GA9vxAPHpHvSMfthZ8q3VNuIx+PqBF1XV5d/ZXKMB+Ohg/FgPAphPBgPHU72Q++rUiIiIiIioili0kFERERERI5i0kFERERERI5i0kFERERERI5i0kFERERERI5i0kFERERERI5i0kFERERERI5i0kFERERERI5i0kFERERERI7yxePxHJ5srPs0ZDypEE8c1H2yIR6njicbOtlGMplU++Cx8LpPXHZjP7zSBuPhjXjgmHTqg9kPPCldx1TawFNYsV+xt4F4oJ2ampr8K5Mr5c+K8WA8Cinlz4rxYDwKcVs/fNFoNKcz2DHhze3UB7v72K0/ODioBj0VFRXa+7mxH+CFNhgPd7XhlXigPhR7G2Y8IpFI/pXCSvWzmo42GA93tcF4uKsNxsNdbRR7PNRMRzAY1KqMN0WHkf3ofsuKjAkfkJNtJBIJlWUh89PJ5NzaD6+0wXiUZjww04F+6JhKG+gD9iv2NhAPfF61tbX5VyZXyp8V48F4FFLKnxXjwXgU4rZ++DHQsVNMVtusip26ZjFZbZuoTKU+WG2zKnbqmsVktc2q2KlrFpPVNqtip65ZTFbbJipTqQ9W26yKnbpmMVltsyp26prFZLXNqtipaxaT1baJynTUB6ttExW79VHs7mO3PordfaZSH6y2TVTs1kexu4/d+ih297FbH8XuPlOpD1bbJip266PY3cdufRS7+9itj2J3n6nUB6ttExW79VHs7mO3PordfezWR7G7z1Tqg9W2iYrd+ih297FbH8XuPnbro9jdZyr1wWrbRMVufRS7++jW17vAi4iIiIiIaIqYdBARERERkaOYdBARERERkaOYdBARERERkaOYdBARERERkaOYdBARERERkaOYdBARERERkaOYdBARERERkaPKVq9efaPuUwrx1EE8PRn18ZAPHXhKMYqTbWQyGdVGKBTS2set/fBKG4yHN+KBp5fb6Qf2s9sPO22gPhR7G3jaqxkPHaX8WU1HG4wH41EI48F46JiONoo9Hr5YLJZDRV12Dx4Hg+JkG+l0Wu0TiURsfahu64dX2mA8GA8ddtvAiRaKvQ0zHpWVlflXCivVz4rxYDx0MB6MRyGMhzv6oZIOZDM6B4NBRTabVdmP7sHg4FGcbCOVSql9EASdfdzaD6+0wXh4Ix7l5eVaxwToA/bDcemYShs4qUGxt2HGo7q6Ov/K5Er5s2I8GI9CGA/GQwfj4Y5++BKJRC4YDGodDN4YWVYgEFBvrsOcCnKyDaMP6hKS2tpa7UGVG/vhlTYYD2/EA8eke9Ix+2FnyrdU24jH4+oEXVdXl39lcowH46GD8WA8CmE8GA8dTvZD76tSIiIiIiKiKWLSQUREREREjmLSQUREREREjmLSQUREREREjmLSQUREREREjmLSQUREREREjmLSQUREREREjmLSQUREREREjmLSQUREREREDhL5/44BE3LtM/YTAAAAAElFTkSuQmCC;" vertex="1" parent="1">
          <mxGeometry x="-46.99998779296874" y="-103.00001220703126" width="797" height="595" as="geometry" />
        </mxCell>
      </root>
    </mxGraphModel>
  </diagram>
</mxfile>
